<?xml version="1.0" encoding="utf-8" ?>
<svg baseProfile="full" height="200mm" version="1.1" viewBox="0,0,200,200" width="200mm" xmlns="http://www.w3.org/2000/svg" xmlns:ev="http://www.w3.org/2001/xml-events" xmlns:xlink="http://www.w3.org/1999/xlink"><defs /><rect fill="#1a1a1a" height="200" width="200" x="0" y="0" /><text alignment-baseline="middle" fill="#e1ed5e" style="dominant-baseline: central; font-size:9.0px; font-family:Arial;" text-anchor="middle" x="100.0" y="100.0">2016</text><line stroke="#e1ed5e" stroke-width="0.3" x1="100.0" x2="100.0" y1="15.0" y2="10.0" /><path d="M 100.0 14.0 a86.0,86.0 0 0,1 42.35913384403234,11.155469271406648" fill="none" id="id25" stroke="none" /><text fill="#e1ed5e" style="font-size:6.75px; font-family:Arial;" text-anchor="middle"><textPath startOffset="22.145653131862478" xlink:href="#id25">January</textPath></text><path d="M 100.0 79.0 l 0.0 -50.19598811184825 a71.19598811184825,71.19598811184825 0 0,0 1.2221738091402128,0.010490892241157743 l -0.861680884291358 50.18859161780153" fill="#3cffa5" stroke="none" /><path d="M 101.08105385017728 79.02784411241856 l 0.9790345959218825 -18.993009609689654 a40.0182260680058,40.0182260680058 0 0,0 0.6857516508672291,0.041253116444604214 l -1.3049305989215738 18.97340451542036" fill="#ffce13" stroke="none" /><path d="M 101.44090949804482 79.04949213459386 l 2.7044443102211515 -39.32202672667711 a60.41491855783285,60.41491855783285 0 0,0 1.034047376562584,0.08004180671861347 l -3.379060681558969 39.26980715296344" fill="#3cff2e" stroke="none" /><path d="M 101.80034050326958 79.07731436759882 l 2.335174886759812 -27.13827187891557 a48.23855433619217,48.23855433619217 0 0,0 0.8244208672826261,0.0780735132788086 l -2.800695317427451 27.09418661013158" fill="#c6ff1e" stroke="none" /><path d="M 102.15924093988457 79.11130261209362 l 2.545193211622199 -24.62243550929146 a45.75363284234669,45.75363284234669 0 0,0 0.7805659056548341,0.0874640378332995 l -2.96749501887783 24.575115710951188" fill="#e5ff1a" stroke="none" /><path d="M 102.51750503828377 79.15144685158666 l 4.791298492387907 -39.678824768732106 a60.967057388190426,60.967057388190426 0 0,0 1.0379559595397592,0.1343841795646727 l -5.471732273818457 39.59072899296704" fill="#36ff2e" stroke="none" /><path d="M 102.87502721639298 79.19773525538626 l 7.459335138909268 -53.9720332015044 a75.48506261920656,75.48506261920656 0 0,0 1.2820774637096672,0.18842123640311711 l -8.384737708226618 53.8360308918024" fill="#42ffd5" stroke="none" /><path d="M 103.23170211078529 79.25015418208739 l 7.804727715953034 -50.11195067031162 a71.71608595607424,71.71608595607424 0 0,0 1.2148107222645406,0.1998966420589346 l -8.663815941270645 49.97058802975702" fill="#3dffab" stroke="none" /><path d="M 103.58742460773223 79.30868818359171 l 4.137344355241058 -23.863102784553156 a45.21911007489734,45.21911007489734 0 0,0 0.7636975106332237,0.13917112653996105 l -4.546376599425336 23.78856348408183" fill="#ecff1a" stroke="none" /><path d="M 103.94208987418118 79.37332000966035 l 6.583556881679679 -34.44795155128523 a56.07142123287858,56.07142123287858 0 0,0 0.9438783079569858,0.18880209644513402 l -7.173931675167622 34.32986005817724" fill="#6bff28" stroke="none" /><path d="M 104.29559338865022 79.4440306129975 l 5.542156262121231 -26.521223997401254 a48.09411039975481,48.09411039975481 0 0,0 0.8066930105743907,0.17581498703548235 l -5.996611689314756 26.422177552232053" fill="#c8ff1d" stroke="none" /><path d="M 104.9986988182912 79.60360301121754 l 8.032976945195124 -32.7772871965002 a54.74728543992675,54.74728543992675 0 0,0 0.9108767496661352,0.23154130780931048 l -8.594458988086652 32.63456065685562" fill="#7aff26" stroke="none" /><path d="M 105.69591212413111 79.78721728523813 l 5.110588141566444 -18.13567439225181 a39.8419955634879,39.8419955634879 0 0,0 0.6567098976684701,0.19115868021869478 l -5.421158051616518 18.0452720177306" fill="#ffcb13" stroke="none" /><path d="M 106.04205211174951 79.88797359093562 l 5.630411244675413 -18.741807841511 a40.5692844006185,40.5692844006185 0 0,0 0.6652577667165636,0.20609855667145532 l -5.951309644263607 18.642392697032896" fill="#ffd513" stroke="none" /><path d="M 106.38641147887787 79.99465700312896 l 11.732337368021525 -36.75137970338193 a59.57864241026669,59.57864241026669 0 0,0 0.9716347784443927,0.3193956507936317 l -12.361494884113661 36.54456313118627" fill="#45ff2d" stroke="none" /><path d="M 107.06938296918511 80.22567764915836 l 5.607053138488777 -15.683925553626644 a37.656066932788775,37.656066932788775 0 0,0 0.6068200740997196,0.22283273654325728 l -5.875462364242622 15.585361968074665" fill="#ffad10" stroke="none" /><path d="M 107.74402155503746 80.48000691201159 l 11.24255812794544 -28.338590664956012 a51.487224113325965,51.487224113325965 0 0,0 0.818758514206344,0.3329819599022641 l -11.727371103342223 28.141421448474453" fill="#9fff22" stroke="none" /><path d="M 108.4095320186766 80.7573450057729 l 7.964795339780473 -18.225010438469383 a40.88941855074971,40.88941855074971 0 0,0 0.6407695052418111,0.28660804943559276 l -8.276478247877915 18.085598638123937" fill="#ffd914" stroke="none" /><path d="M 108.73861861582097 80.90454125486305 l 11.820759469091955 -25.83049274739707 a49.40677225591566,49.40677225591566 0 0,0 0.7681842263207935,0.3595490058135925 l -12.262432409284255 25.623767510012947" fill="#b8ff1f" stroke="none" /><path d="M 109.06512990194946 81.05736502329252 l 11.150489539960068 -23.300234574866458 a46.83087974159148,46.83087974159148 0 0,0 0.722176210588338,0.3532525733101678 l -11.548825999810473 23.10538825145907" fill="#d8ff1c" stroke="none" /><path d="M 110.02825361518725 81.54914285379988 l 13.685234350397076 -25.179289804661792 a49.65802286084009,49.65802286084009 0 0,0 0.7454752529312892,0.41350255633472816 l -14.115453791484466 24.940654332893917" fill="#b5ff20" stroke="none" /><path d="M 110.34350942703115 81.72400993836675 l 6.9325002964897715 -12.249063764548847 a35.07476903784976,35.07476903784976 0 0,0 0.5214574800796962,0.3010636164949565 l -7.141750244429865 12.12825325077772" fill="#ff890c" stroke="none" /><line stroke="#e1ed5e" stroke-width="0.3" x1="143.13028292997686" x2="145.6673583964461" y1="26.7553504044142" y2="22.446841604673864" /><path d="M 143.63769802327073 25.89364864446614 a86.0,86.0 0 0,1 29.32050498858742,28.57503671076993" fill="none" id="id26" stroke="none" /><text fill="#e1ed5e" style="font-size:6.75px; font-family:Arial;" text-anchor="middle"><textPath startOffset="20.669276256404974" xlink:href="#id26">February</textPath></text><path d="M 110.65571695917076 81.90426304109057 l 12.606667941145117 -21.408878244925866 a45.844881651647206,45.844881651647206 0 0,0 0.6747214856202506,0.40515086579206483 l -12.972322183322802 21.18931337859788" fill="#e4ff1a" stroke="none" /><path d="M 110.96478420261332 82.08984904055464 l 6.739401068267744 -11.00830515936231 a33.90745169429703,33.90745169429703 0 0,0 0.49381500140219375,0.3081770832745617 l -6.927380198459651 10.890992279246204" fill="#ff790b" stroke="none" /><path d="M 111.5731344415666 82.4767994020092 l 11.41430268315978 -17.28270907186647 a41.71179225961781,41.71179225961781 0 0,0 0.5941024711894509,0.39973865656713486 l -11.709301442446232 17.084220741242216" fill="#ffe415" stroke="none" /><path d="M 112.16784306229584 82.88440491214696 l 3.4421906400504207 -4.841872212574751 a26.94074094077113,26.94074094077113 0 0,0 0.37462894996669827,0.2712024692150877 l -3.5248006003910866 4.782068971986589" fill="#ff1101" stroke="none" /><path d="M 112.45986205192187 83.09580414077388 l 14.898266119805442 -20.212359286370933 a46.109715277117104,46.109715277117104 0 0,0 0.6331237420158234,0.47510785924961485 l -15.243042850732031 19.953632399857305" fill="#e1ff1b" stroke="none" /><path d="M 112.7482090630111 83.31218511350987 l 8.991961650141844 -11.770766445882428 a35.81237040588485,35.81237040588485 0 0,0 0.4853259274549792,0.3773923766566204 l -9.192697522232049 11.614673017605018" fill="#ff940d" stroke="none" /><path d="M 113.03279911837588 83.53348406188908 l 9.179416057555885 -11.597892320857904 a35.7909697262867,35.7909697262867 0 0,0 0.4784898656615818,0.38543756525658135 l -9.377156693572726 11.438606461807915" fill="#ff930d" stroke="none" /><path d="M 113.31354834802062 83.75963576809568 l 9.062986498041685 -11.055369906619283 a35.295416329574635,35.295416329574635 0 0,0 0.46527033935560497,0.38814506500348955 l -9.251431171559183 10.898162657703924" fill="#ff8c0c" stroke="none" /><path d="M 113.59037401385872 83.9905735841838 l 10.229827325597691 -12.050710867019152 a36.80724515885164,36.80724515885164 0 0,0 0.4781796082254214,0.41304015664252 l -10.435186413585974 11.873326577911913" fill="#ffa20e" stroke="none" /><path d="M 113.86319453409587 84.22622945171908 l 9.7753097391852 -11.1225080543342 a35.80766240551621,35.80766240551621 0 0,0 0.4582271998125725,0.4097495876415304 l -9.964801965821147 10.953062936809282" fill="#ff940d" stroke="none" /><path d="M 114.13192950727249 84.46653392183569 l 9.887012629328916 -10.867558829318288 a35.692067711564746,35.692067711564746 0 0,0 0.44966945317743495,0.4162073326858982 l -10.072111853820317 10.696233750500015" fill="#ff920d" stroke="none" /><path d="M 114.39649973595853 84.71141617570332 l 14.505408927985254 -15.404241612097568 a42.158864520856326,42.158864520856326 0 0,0 0.5226243999740771,0.5006623529329532 l -14.767705813824643 15.152967128859036" fill="#ffea16" stroke="none" /><path d="M 114.65682725009322 84.96080404539774 l 8.68681986327379 -8.913442446780211 a33.44629646075616,33.44629646075616 0 0,0 0.4077391493182007,0.40425422026468344 l -8.838550932721953 8.763008216286869" fill="#ff720a" stroke="none" /><path d="M 114.91283532996326 85.21462403516908 l 26.13287311808957 -25.90951657032276 a57.799865574672936,57.799865574672936 0 0,0 0.6925337652522157,0.710600652043593 l -26.573793684492596 25.457093226211427" fill="#58ff2a" stroke="none" /><path d="M 115.16444852881244 85.47280134310134 l 7.735846512786171 -7.410765967321476 a31.712738841761997,31.712738841761997 0 0,0 0.37321992385652347,0.39634662559858885 l -7.861922270378955 7.276877881778392" fill="#ff5908" stroke="none" /><path d="M 115.41159269507618 85.73525988315684 l 9.448658480564996 -8.74553722933044 a33.87484246552002,33.87484246552002 0 0,0 0.3913387936073504,0.43014988664083353 l -9.597394975014224 8.582049767131934" fill="#ff780b" stroke="none" /><path d="M 115.6541949942343 86.00192230759917 l 19.380244375785303 -17.32993402534439 a46.99847082787653,46.99847082787653 0 0,0 0.5326245746618844,0.6060289934206121 l -19.674880014405776 16.994692754112478" fill="#d6ff1c" stroke="none" /><path d="M 115.8921839302757 86.27271002978787 l 19.522735045626092 -16.863273553761495 a46.797425813648715,46.797425813648715 0 0,0 0.519909231247469,0.6124517671163556 l -19.809338840380676 16.52565500419559" fill="#d8ff1c" stroke="none" /><path d="M 116.1254893667686 86.54754324733833 l 22.981105014566168 -19.17165515447418 a50.92797268530889,50.92797268530889 0 0,0 0.5542738165216972,0.6761239324945466 l -23.306825650326495 18.774328940281137" fill="#a6ff21" stroke="none" /><path d="M 116.57777611688842 87.10902102172516 l 10.092217021027173 -7.847768997779657 a33.78437807020827,33.78437807020827 0 0,0 0.3520783017609334,0.46088179887038283 l -10.225447300142413 7.673366285668393" fill="#ff770a" stroke="none" /><line stroke="#e1ed5e" stroke-width="0.3" x1="172.87174338648825" x2="177.1583165268699" y1="56.24261187166439" y2="53.66864786411523" /><path d="M 173.72905801456457 55.72781907015455 a86.0,86.0 0 0,1 12.242430191666344,42.057860355516425" fill="none" id="id27" stroke="none" /><text fill="#e1ed5e" style="font-size:6.75px; font-family:Arial;" text-anchor="middle"><textPath startOffset="22.145653131862474" xlink:href="#id27">March</textPath></text><path d="M 118.00360718960297 89.18935116829356 l 20.39267334372635 -12.245214413811485 a44.78668539633347,44.78668539633347 0 0,0 0.39012677119698075,0.6625205473511918 l -20.599873825053102 11.893342698166736" fill="#f2ff19" stroke="none" /><path d="M 118.18653347947321 89.5 l 54.55960043841963 -31.500000000000007 a84.0,84.0 0 0,0 0.7102665399144961,1.2549729196035277 l -55.092300343355504 30.558770310297362" fill="#4dd2ff" stroke="none" /><path d="M 118.70294669586156 90.45014215332178 l 21.506617767796776 -10.981432272955653 a45.14801156566776,45.14801156566776 0 0,0 0.34652192487961103,0.69327597559421 l -21.691959605888123 10.610624441197691" fill="#edff1a" stroke="none" /><path d="M 118.8641267826498 90.77261029715802 l 34.321878830743906 -16.788550827397994 a59.20794165296519,59.20794165296519 0 0,0 0.43876113403336564,0.9168420192382424 l -34.60501922273718 16.196896306094647" fill="#49ff2c" stroke="none" /><path d="M 119.0197475246899 91.09779779509293 l 29.474603179045875 -13.795602547754708 a53.54336925116755,53.54336925116755 0 0,0 0.3824922472227374,0.8358145890419151 l -29.707079891123662 13.28759897649811" fill="#87ff25" stroke="none" /><path d="M 119.4528033332814 92.08871423366111 l 19.86244622337545 -8.077883963532317 a42.44222421543004,42.44222421543004 0 0,0 0.2686821678373385,0.6772545791325901 l -19.998187066178915 7.735728367186162" fill="#ffee16" stroke="none" /><path d="M 119.71291397450082 92.76114493625339 l 11.321871013660289 -4.157547860470287 a33.061093128819714,33.061093128819714 0 0,0 0.1910613638226151,0.5344326390985408 l -11.391572547526847 3.9625802649908297" fill="#ff6c0a" stroke="none" /><path d="M 119.83427380445688 93.10060997987247 l 42.73964414932884 -14.86706683667039 a66.25159509163498,66.25159509163498 0 0,0 0.3644297655794566,1.0773718470099618 l -42.988559336480655 14.131193315186266" fill="#35ff6a" stroke="none" /><path d="M 119.94978838288452 93.4421083053983 l 22.492242081881226 -7.393646725009138 a44.67629544004271,44.67629544004271 0 0,0 0.2332427785042053,0.7306296816220451 l -22.61584957616269 7.006448009695706" fill="#f3ff19" stroke="none" /><path d="M 120.16314734710363 94.1308016681162 l 23.29383064281776 -6.7804946121989484 a45.2606193903275,45.2606193903275 0 0,0 0.21074531493450638,0.7478607756040608 l -23.406794449826847 6.379625912691874" fill="#ebff1a" stroke="none" /><path d="M 120.26092885502905 94.47779374421319 l 12.249740738084983 -3.338721310342534 a33.69658253777111,33.69658253777111 0 0,0 0.14731908275709643,0.5593945527941965 l -12.30524930164681 3.127946253175539" fill="#ff760a" stroke="none" /><path d="M 120.43855184770803 95.1765574152323 l 14.029205098599427 -3.310854203724471 a35.41458814038362,35.41458814038362 0 0,0 0.13455711790529973,0.5928834889451918 l -14.083973078062392 3.069536380840253" fill="#ff8e0d" stroke="none" /><path d="M 120.51834098615036 95.52812308129327 l 49.444002203846615 -10.776090151397298 a71.60467836954436,71.60467836954436 0 0,0 0.25144251898357844,1.203243476552955 l -49.62170243365456 9.925730223558938" fill="#3dffa9" stroke="none" /><path d="M 120.77682067341334 96.94652285012252 l 11.562639682597743 -1.69930985197643 a32.686842619057046,32.686842619057046 0 0,0 0.07682261522605921,0.5558501746328098 l -11.590106814379014 1.5005713691435347" fill="#ff6709" stroke="none" /><path d="M 120.82617615685814 97.30363454192243 l 25.59922780222181 -3.314332553392898 a46.81288950010297,46.81288950010297 0 0,0 0.0963407343024451,0.7978394835034487 l -25.65235062278392 2.874399392966036" fill="#d8ff1c" stroke="none" /><path d="M 120.99303781780057 99.45929381324524 l 12.988366888251754 -0.33453425813216586 a33.9926743818853,33.9926743818853 0 0,0 0.010017428121741436,0.5834649674004698 l -12.992195747972161 0.11152237476262959" fill="#ff7a0b" stroke="none" /><line stroke="#e1ed5e" stroke-width="0.3" x1="184.99686870605535" x2="189.99668451229388" y1="99.2704041080226" y2="99.22748670261217" /><path d="M 185.99683186730306 99.26182062694052 a86.0,86.0 0 0,1 -10.086455211305974,41.156179273409016" fill="none" id="id28" stroke="none" /><text fill="#e1ed5e" style="font-size:6.75px; font-family:Arial;" text-anchor="middle"><textPath startOffset="21.40746469413373" xlink:href="#id28">April</textPath></text><path d="M 120.99303781780057 100.54070618675476 l 23.87463116226601 0.6149258095928858 a44.882549003101545,44.882549003101545 0 0,0 -0.02644931391870419,0.7700429160100859 l -23.86055716135046 -1.0246749901670824" fill="#f0ff19" stroke="none" /><path d="M 120.93736805541906 101.62068470465957 l 13.443832018015689 1.040637622930421 a34.48404783404754,34.48404783404754 0 0,0 -0.050751285393725115,0.5898068658705203 l -13.423987109924223 -1.2712655361765988" fill="#ff810b" stroke="none" /><path d="M 120.592083275326 104.11899336999214 l 11.832660026892842 2.3668633983499157 a33.06705787085138,33.06705787085138 0 0,0 -0.116116216366657,0.5556581298579418 l -11.79028609970182 -2.5696379794932667" fill="#ff6c0a" stroke="none" /><path d="M 120.43855184770803 104.8234425847677 l 13.063432434272666 3.082934484605985 a34.42228564742905,34.42228564742905 0 0,0 -0.14066007020802354,0.5739410868154045 l -13.008584837548346 -3.3067313960294893" fill="#ff800b" stroke="none" /><path d="M 120.35273937422433 105.17358676015961 l 23.2617675841239 5.913050355449754 a45.00154152640788,45.00154152640788 0 0,0 -0.19674356629176182,0.7470673671134602 l -23.156834537027404 -6.311498226936018" fill="#efff19" stroke="none" /><path d="M 120.16314734710363 105.8691983318838 l 32.70241128133931 9.519195313949119 a55.05969440613024,55.05969440613024 0 0,0 -0.2719521011085426,0.9052400969629983 l -32.53418286022714 -10.07917301450284" fill="#76ff27" stroke="none" /><path d="M 119.83427380445688 106.89939002012753 l 39.04660850333514 13.582437334670747 a62.341507466019934,62.341507466019934 0 0,0 -0.3602740354895439,1.0077505976776937 l -38.80769429780165 -14.250722888729362" fill="#30ff39" stroke="none" /><path d="M 119.4528033332814 107.91128576633889 l 17.45181748209136 7.097502240543332 a39.83986389236258,39.83986389236258 0 0,0 -0.26308378471689264,0.6313053110315496 l -17.327407852837982 -7.396040061016159" fill="#ffcb13" stroke="none" /><path d="M 119.31412917781788 108.2440532568976 l 6.2936839730657015 2.686399442519345 a27.84304025398012,27.84304025398012 0 0,0 -0.19140912544345087,0.4379815375546492 l -6.246640965605285 -2.7940430498498388" fill="#ff1e03" stroke="none" /><path d="M 119.0197475246899 108.90220220490707 l 21.20192520348904 9.92357154319546 a44.40937642286232,44.40937642286232 0 0,0 -0.32909619583159166,0.6876844763714087 l -21.028449749697536 -10.286068521631972" fill="#f6ff19" stroke="none" /><path d="M 118.5362547648365 109.86951160357373 l 19.55122188481007 10.409924426709265 a43.14987141630566,43.14987141630566 0 0,0 -0.3537357632293895,0.6508339622527234 l -19.36964077196534 -10.744013222436593" fill="#fff717" stroke="none" /><line stroke="#e1ed5e" stroke-width="0.3" x1="174.33088141563837" x2="178.70328620479359" y1="141.23008692659167" y2="143.65538615756765" /><path d="M 175.20536237346943 141.71514677278685 a86.0,86.0 0 0,1 -30.301960400862466,31.631185727798858" fill="none" id="id29" stroke="none" /><text fill="#e1ed5e" style="font-size:6.75px; font-family:Arial;" text-anchor="middle"><textPath startOffset="22.145653131862474" xlink:href="#id29">May</textPath></text><path d="M 118.36410011445183 110.18625677009912 l 41.85757959379145 23.217693808022894 a68.86562728319447,68.86562728319447 0 0,0 -0.5822970334461335,1.02886306347521 l -41.452849195323935 -23.932813641597225" fill="#39ff89" stroke="none" /><path d="M 117.81537515405839 111.11811171558189 l 9.915341842151555 6.1879066450145235 a32.68777962207263,32.68777962207263 0 0,0 -0.3011670027096575,0.4734845507691268 l -9.807657147816007 -6.357204870462322" fill="#ff6709" stroke="none" /><path d="M 117.01052211995028 112.31430620078461 l 40.67982070332496 29.44905305089041 a71.22045935720644,71.22045935720644 0 0,0 -0.7254244009913576,0.984177521734936 l -40.16829428274978 -30.143036881894222" fill="#3cffa5" stroke="none" /><path d="M 116.35404254752997 113.17365903436017 l 9.154058832523626 7.373861813656159 a32.754600425203755,32.754600425203755 0 0,0 -0.35648419579752955,0.434852755353542 l -9.026127817487469 -7.529916850708194" fill="#ff6809" stroke="none" /><path d="M 115.89218393027572 113.72728997021213 l 17.84456720582744 15.413712143154218 a44.57988763322064,44.57988763322064 0 0,0 -0.5052152393655234,0.5748422013156342 l -17.57734090250333 -15.717766622281145" fill="#f4ff19" stroke="none" /><path d="M 115.16444852881244 114.52719865689866 l 16.959041371781584 16.246378005130644 a44.48518431980878,44.48518431980878 0 0,0 -0.5330028346715735,0.5469078633599398 l -16.677651735959206 -16.535108560558324" fill="#f5ff19" stroke="none" /><path d="M 114.91283532996324 114.78537596483092 l 16.61217692773242 16.47019336271441 a44.39298381317542,44.39298381317542 0 0,0 -0.5411886926529805,0.5365631760656843 l -16.326996314949476 -16.75293654900876" fill="#f7ff19" stroke="none" /><path d="M 114.65682725009322 115.03919595460226 l 16.34200091017895 16.768332585546894 a44.41448208796862,44.41448208796862 0 0,0 -0.5505862720733569,0.5274491938809268 l -16.05174215224028 -17.0463939097334" fill="#f6ff19" stroke="none" /><path d="M 113.86319453409587 115.77377054828091 l 15.516717248971686 17.6551758648314 a44.50476013497395,44.50476013497395 0 0,0 -0.5781815149072819,0.49941942185985405 l -15.211356254301547 -17.918939419155972" fill="#f5ff19" stroke="none" /><path d="M 113.59037401385872 116.0094264158162 l 15.557026195390154 18.326137740583647 a45.038893246796945,45.038893246796945 0 0,0 -0.593710552935995,0.4952944593067478 l -15.240141308292264 -18.590494383802262" fill="#eeff19" stroke="none" /><path d="M 113.03279911837588 116.46651593811092 l 20.199570806494904 25.521497846089606 a53.547957125978854,53.547957125978854 0 0,0 -0.7256769563406008,0.5642907904682846 l -19.75848390551907 -25.864489688178683" fill="#87ff25" stroke="none" /><path d="M 112.7482090630111 116.68781488649013 l 7.119151498466723 9.319197839326177 a32.72730857556936,32.72730857556936 0 0,0 -0.44937245756002236,0.3372174697434498 l -6.958126051995934 -9.44003433633364" fill="#ff6709" stroke="none" /><path d="M 112.16784306229584 117.11559508785304 l 14.347230090821338 20.181175875589098 a45.761318038433025,45.761318038433025 0 0,0 -0.6441557260247447,0.449670724420059 l -13.998679273622836 -20.42449141581428" fill="#e5ff1a" stroke="none" /><path d="M 111.5731344415666 117.5232005979908 l 13.4089625297434 20.302878308897377 a45.33119692390734,45.33119692390734 0 0,0 -0.6530161131651818,0.4232771550368199 l -13.058460784321209 -20.53006930563809" fill="#ebff1a" stroke="none" /><path d="M 111.27062007382361 117.71928675628689 l 12.601471076483392 19.81160558094411 a44.47971015550114,44.47971015550114 0 0,0 -0.6477852812661264,0.4042659255023164 l -12.25952166642755 -20.025007303287975" fill="#f5ff19" stroke="none" /><path d="M 110.96478420261333 117.91015095944535 l 12.493150214403688 20.406621978539984 a44.927160777131206,44.927160777131206 0 0,0 -0.6612149398613713,0.397040573138436 l -12.14100251798488 -20.618076552214344" fill="#f0ff19" stroke="none" /><line stroke="#e1ed5e" stroke-width="0.3" x1="143.1302829299769" x2="145.66735839644613" y1="173.24464959558577" y2="177.55315839532614" /><path d="M 143.63769802327073 174.10635135553383 a86.0,86.0 0 0,1 -40.68552437913181,11.842963189579606" fill="none" id="id30" stroke="none" /><text fill="#e1ed5e" style="font-size:6.75px; font-family:Arial;" text-anchor="middle"><textPath startOffset="21.407464694133747" xlink:href="#id30">June</textPath></text><path d="M 110.65571695917076 118.09573695890943 l 12.057916246034791 20.476977898049054 a44.76341659007768,44.76341659007768 0 0,0 -0.6654988487488117,0.384225939470514 l -11.70462492942558 -20.68095073479574" fill="#f2ff19" stroke="none" /><path d="M 109.71004243097381 118.62028667847754 l 11.003679390138345 21.101006120102255 a44.797760806461355,44.797760806461355 0 0,0 -0.6849210249114732,0.34972555557531476 l -10.63983114351329 -21.286789627350405" fill="#f1ff19" stroke="none" /><path d="M 109.3889696526874 118.78422872680471 l 10.483769162647672 20.974561123842687 a44.44870210040409,44.44870210040409 0 0,0 -0.6854407908961615,0.33528343870336563 l -10.122168122489441 -21.151438312643275" fill="#f6ff19" stroke="none" /><path d="M 108.73861861582097 119.09545874513695 l 9.95601404758299 21.755687468432242 a44.92555439148212,44.92555439148212 0 0,0 -0.704018943786538,0.3148987187962701 l -9.581081700940825 -21.92338993813836" fill="#f0ff19" stroke="none" /><path d="M 108.4095320186766 119.2426549942271 l 9.447309670503252 21.617293353468657 a44.59150338448791,44.59150338448791 0 0,0 -0.7040465937007236,0.30051562565254897 l -9.074828001632097 -21.776283628780607" fill="#f4ff19" stroke="none" /><path d="M 108.07796709384702 119.3841803445677 l 9.151569355842895 21.960434942177457 a44.79100511799389,44.79100511799389 0 0,0 -0.7122741113309614,0.28967568026884544 l -8.773240783321492 -22.114297879025596" fill="#f1ff19" stroke="none" /><path d="M 107.74402155503746 119.51999308798841 l 8.70685041745215 21.94695078763797 a44.61096976125482,44.61096976125482 0 0,0 -0.7142593062283945,0.2762908436866329 l -8.328818848730226 -22.093181519462643" fill="#f4ff19" stroke="none" /><path d="M 107.407793817531 119.65005319985036 l 8.230583516977443 21.832600630928884 a44.33248712288463,44.33248712288463 0 0,0 -0.7144092655494227,0.26234097790917343 l -7.854585099773894 -21.970672457846778" fill="#f7ff18" stroke="none" /><path d="M 107.06938296918513 119.77432235084164 l 8.703531559432685 24.34532679827131 a46.854330363029476,46.854330363029476 0 0,0 -0.7596966211098674,0.26426192043553787 l -8.284329166277795 -24.491147151275438" fill="#d7ff1c" stroke="none" /><path d="M 106.72888874123015 119.89276391827305 l 7.691786096871937 22.7393988545805 a45.00507932975289,45.00507932975289 0 0,0 -0.733962683847634,0.24126811253202907 l -7.300300675376568 -22.868087888514548" fill="#efff19" stroke="none" /><path d="M 106.38641147887787 120.00534299687104 l 5.152955419623566 16.14155945918908 a37.944110815595025,37.944110815595025 0 0,0 -0.6222099993670123,0.1927622483071661 l -4.875104787384929 -16.22763829530289" fill="#ffb110" stroke="none" /><path d="M 106.0420521117495 120.11202640906438 l 6.873845228204887 22.880795167694757 a44.89101370238021,44.89101370238021 0 0,0 -0.7399321393866193,0.21538346188889815 l -6.480053076436661 -22.99542232388617" fill="#f0ff19" stroke="none" /><path d="M 105.3480935250658 120.30758222061773 l 6.265063598052002 23.789466945283966 a45.60060485899472,45.60060485899472 0 0,0 -0.75869571254538,0.19285748327252744 l -5.855762592281224 -23.893509660391764" fill="#e7ff1a" stroke="none" /><path d="M 104.9986988182912 120.39639698878246 l 5.694682820854108 23.236249224362346 a44.923893714168074,44.923893714168074 0 0,0 -0.7505880872908921,0.17713674485524866 l -5.294962579823337 -23.33058211286382" fill="#f0ff19" stroke="none" /><path d="M 104.64783097203109 120.47920084513623 l 4.552671277216132 20.059909671639534 a41.570045984215156,41.570045984215156 0 0,0 -0.6972634542148258,0.15196532454868844 l -4.20764540638217 -20.13510645432194" fill="#ffe315" stroke="none" /><path d="M 104.29559338865022 120.5559693870025 l 4.778141919903782 22.86513879358552 a44.35904990055613,44.35904990055613 0 0,0 -0.7467180970644843,0.14936453247288373 l -4.384927337308339 -22.943792722721266" fill="#f7ff18" stroke="none" /><path d="M 103.2317021107853 120.74984581791261 l 3.6535958743070456 23.458706425887318 a44.741517853513926,44.741517853513926 0 0,0 -0.7599131502549492,0.11168106404095668 l -3.250357618444411 -23.517968563227157" fill="#f2ff19" stroke="none" /><path d="M 102.875027216393 120.80226474461374 l 2.1976761746766638 15.901290028798423 a37.052439227379296,37.052439227379296 0 0,0 -0.6308127988967772,0.08167134612939374 l -1.9243855538891113 -15.93667297112821" fill="#ffa50f" stroke="none" /><path d="M 102.51750503828377 120.84855314841334 l 2.8567791546827945 23.658229530411045 a44.83008627034832,44.83008627034832 0 0,0 -0.7648100208954631,0.08569855808238193 l -2.450233232186532 -23.7037838490004" fill="#f1ff19" stroke="none" /><path d="M 101.08105385017728 120.97215588758144 l 1.2112007087262833 23.496970174419303 a44.528166408251394,44.528166408251394 0 0,0 -0.7637094508538875,0.03279696985918298 l -0.8076654972715661 -23.514299712704318" fill="#f5ff19" stroke="none" /><line stroke="#e1ed5e" stroke-width="0.3" x1="101.45913802915013" x2="101.54496967792366" y1="184.9874750549273" y2="189.98673829345242" /><path d="M 101.47630435890484 185.9873277026323 a86.0,86.0 0 0,1 -42.54439059252881,-10.42667462771756" fill="none" id="id31" stroke="none" /><text fill="#e1ed5e" style="font-size:6.75px; font-family:Arial;" text-anchor="middle"><textPath startOffset="22.145653131862474" xlink:href="#id31">July</textPath></text><path d="M 100.36049292484886 120.99690560180557 l 0.40865149303563264 23.80190076380452 a44.805408545386456,44.805408545386456 0 0,0 -0.769144417884482,0.006602179776369637 l -2.9153217377502573e-15 -23.805408545386456" fill="#f1ff19" stroke="none" /><path d="M 99.63950707515114 120.99690560180557 l -0.41270658586353226 24.03808959150423 a45.04163218118103,45.04163218118103 0 0,0 -0.7729716452676363,-0.01990900766290104 l 0.8252915452019124 -24.027462866491284" fill="#eeff19" stroke="none" /><path d="M 98.91894614982273 120.97215588758144 l -0.3823774885771786 7.418021125430071 a28.42786981314949,28.42786981314949 0 0,0 -0.48713950043358956,-0.029305102671992204 l 0.5096613411432145 -7.410364044933388" fill="#ff2703" stroke="none" /><path d="M 98.55909050195518 120.95050786540614 l -2.030649884690375 29.525203657008873 a50.59495210237792,50.59495210237792 0 0,0 -0.8659711663550703,-0.06703164506030755 l 2.5371900458206813 -29.48599424495351" fill="#aaff21" stroke="none" /><path d="M 98.19965949673042 120.92268563240118 l -2.04556661324066 23.772584747853774 a44.860430179757756,44.860430179757756 0 0,0 -0.7666870465833856,-0.07260606043296393 l 2.453353223209061 -23.733966931915628" fill="#f1ff19" stroke="none" /><path d="M 97.84075906011543 120.88869738790638 l -1.6380356623063443 15.846509126649476 a36.93094511734858,36.93094511734858 0 0,0 -0.6300491312141548,-0.07059831930927413 l 1.9098206951212986 -15.816055046833231" fill="#ffa30f" stroke="none" /><path d="M 97.12497278360702 120.80226474461374 l -1.6361114450193635 11.838087388155444 a32.950613945322154,32.950613945322154 0 0,0 -0.5596503213861773,-0.08224932462650786 l 1.8390868720132256 -11.808256990230054" fill="#ff6b09" stroke="none" /><path d="M 96.41257539226777 120.69131181640829 l -4.195973404817693 24.201259562447557 a45.56231172391753,45.56231172391753 0 0,0 -0.7694937822663335,-0.1402274003154821 l 4.610801920635083 -24.125663988200706" fill="#e8ff1a" stroke="none" /><path d="M 96.05791012581884 120.62667999033965 l -3.835777546837015 20.070408970361548 a41.43366109208989,41.43366109208989 0 0,0 -0.6974735625415703,-0.1395142463946761 l 4.179747594909544 -20.00160532730401" fill="#ffe115" stroke="none" /><path d="M 94.30408787586889 120.21278271476187 l -4.462850580813589 15.83708229912246 a37.45388133711454,37.45388133711454 0 0,0 -0.6173469534423617,-0.17970070083617168 l 4.734057546637557 -15.758137903983773" fill="#ffab0f" stroke="none" /><path d="M 93.95794788825049 120.11202640906438 l -7.734188200707642 25.744597111769348 a47.881256435875315,47.881256435875315 0 0,0 -0.7851599601699544,-0.2432445626992393 l 8.17498879374923 -25.60803596126346" fill="#cbff1d" stroke="none" /><path d="M 93.61358852112213 120.00534299687104 l -7.69118344362738 24.092522592774795 a46.290392398041035,46.290392398041035 0 0,0 -0.7549241362710856,-0.2481585582909679 l 8.103630317546209 -23.956943113081806" fill="#deff1b" stroke="none" /><path d="M 92.59220618246901 119.65005319985036 l -4.223763343339912 11.204034081481764 a32.97374446359813,32.97374446359813 0 0,0 -0.5279374999101023,-0.2042175663544399 l 4.415473105743542 -11.129876626989285" fill="#ff6b09" stroke="none" /><path d="M 92.25597844496254 119.51999308798841 l -10.84778678443318 27.34350899557683 a50.4166952989576,50.4166952989576 0 0,0 -0.8017347846003696,-0.3260585572741609 l 11.315576030223992 -27.153263181723375" fill="#acff21" stroke="none" /><path d="M 91.59046798132341 119.24265499422711 l -10.203236316355419 23.34700145313123 a46.47917793375418,46.47917793375418 0 0,0 -0.7283654525850769,-0.3257886025067645 l 10.602515171796131 -23.168409099714612" fill="#dcff1b" stroke="none" /><path d="M 91.26138138417905 119.09545874513695 l -9.794595208249785 21.402958173026875 a44.53764461134137,44.53764461134137 0 0,0 -0.6924782677706466,-0.32411479459418185 l 10.160562189891921 -21.231667146862165" fill="#f5ff19" stroke="none" /><path d="M 89.97174638481275 118.45085714620012 l -11.175477530996503 20.561619936766572 a44.402382623780944,44.402382623780944 0 0,0 -0.6665766277077821,-0.36973881891630506 l 11.526798346860387 -20.36674820241712" fill="#f6ff19" stroke="none" /><line stroke="#e1ed5e" stroke-width="0.3" x1="58.13341422392154" x2="55.67067388415222" y1="173.97424548756322" y2="178.32567169271397" /><path d="M 57.64086615596768 174.84453072859336 a86.0,86.0 0 0,1 -31.369924170532247,-30.572349798747897" fill="none" id="id32" stroke="none" /><text fill="#e1ed5e" style="font-size:6.75px; font-family:Arial;" text-anchor="middle"><textPath startOffset="22.145653131862474" xlink:href="#id32">August</textPath></text><path d="M 89.03521579738668 117.91015095944536 l -12.595489047324659 20.573784771054523 a45.123162399381854,45.123162399381854 0 0,0 -0.6571562706751539,-0.41011411596892644 l 12.946809446789525 -20.354534858244048" fill="#edff1a" stroke="none" /><path d="M 88.72937992617639 117.7192867562869 l -12.565861201171144 19.755620942310188 a44.4133600011477,44.4133600011477 0 0,0 -0.6397942628613816,-0.41470691141176 l 12.903141096289536 -19.537000189194533" fill="#f6ff19" stroke="none" /><path d="M 88.1277618465304 117.32195027204791 l -13.536418302638381 19.750038844311486 a44.943655836480275,44.943655836480275 0 0,0 -0.6326459659933532,-0.44163601802513214 l 13.873459359805501 -19.514758010481223" fill="#f0ff19" stroke="none" /><path d="M 87.83215693770417 117.11559508785305 l -13.614893259169042 19.151052408816135 a44.497406810620376,44.497406810620376 0 0,0 -0.6187660846579288,-0.447938927412574 l 13.941640354200924 -18.914512710030493" fill="#f5ff19" stroke="none" /><path d="M 85.60350026404147 115.28858382429668 l -15.980305894823806 16.97053107990416 a44.31027888349115,44.31027888349115 0 0,0 -0.5492945120168525,-0.5262117169675901 l 16.26927289270597 -16.693707232630985" fill="#f8ff18" stroke="none" /><path d="M 85.34317274990678 115.03919595460226 l -16.59443564679673 17.027352863603266 a44.776165375798854,44.776165375798854 0 0,0 -0.5458600058000724,-0.5411945636992914 l 16.884287572726763 -16.739978289675314" fill="#f2ff19" stroke="none" /><path d="M 85.08716467003676 114.78537596483092 l -10.653235253017055 10.5621825073848 a36.0017039257356,36.0017039257356 0 0,0 -0.4313573280369426,-0.44261061907241855 l 10.832979382204806 -10.377749196244645" fill="#ff960d" stroke="none" /><path d="M 84.58840730492382 114.26474011684316 l -11.356689787687541 10.511582521949629 a36.47474620307304,36.47474620307304 0 0,0 -0.42137415667021105,-0.4631640120680942 l 11.535461645199632 -10.315080934323861" fill="#ff9d0e" stroke="none" /><path d="M 84.3458050057657 113.99807769240083 l -28.573398885436905 25.550509475678652 a59.33102735817332,59.33102735817332 0 0,0 -0.672387051200729,-0.7650530358778661 l 29.007797000596227 -25.056244161989486" fill="#47ff2c" stroke="none" /><path d="M 83.8745106332314 113.45245675266167 l -11.631095179671291 9.70307327311669 a36.147013105627266,36.147013105627266 0 0,0 -0.393405467634002,-0.479890703679213 l 11.795947466543923 -9.50198028773898" fill="#ff980e" stroke="none" /><path d="M 83.64595745247003 113.17365903436017 l -20.396298528552528 16.429814316384743 a47.190605035713,47.190605035713 0 0,0 -0.5027677383249697,-0.6352306132474052 l 20.675332697519057 -16.07726375922266" fill="#d3ff1c" stroke="none" /><path d="M 83.4222238831116 112.89097897827486 l -11.90158335782111 9.254743205125077 a36.07640402138299,36.07640402138299 0 0,0 -0.37596427067843924,-0.49214929893329495 l 12.058699605853844 -9.049072992950913" fill="#ff970e" stroke="none" /><path d="M 82.78059297857968 112.02048342749411 l -25.12376814739731 17.53834137704724 a51.63979673858857,51.63979673858857 0 0,0 -0.5011771697188028,-0.7312324684809098 l 25.42113505393144 -17.10447417349628" fill="#9dff22" stroke="none" /><path d="M 82.37810715431573 111.42229804090323 l -5.704502246752632 3.6975894365041726 a27.798052186042195,27.798052186042195 0 0,0 -0.25611577644092476,-0.4026565402648898 l 5.767135714819447 -3.599119221560611" fill="#ff1e03" stroke="none" /><path d="M 82.18462484594161 111.11811171558189 l -22.33351697047802 13.937766369351698 a47.32579175708227,47.32579175708227 0 0,0 -0.4242014341045346,-0.692901162634342 l 22.56948636903796 -13.552328090592798" fill="#d2ff1c" stroke="none" /><path d="M 81.99639281039703 110.81064883170644 l -21.139668419449155 12.693763493871224 a45.658005039390225,45.658005039390225 0 0,0 -0.39771664117771033,-0.6754098058825418 l 21.354458770756636 -12.329002519695123" fill="#e6ff1a" stroke="none" /><line stroke="#e1ed5e" stroke-width="0.3" x1="26.387840678322732" x2="22.057713659400548" y1="142.50000000000003" y2="145.00000000000006" /><path d="M 25.521815274538298 143.00000000000003 a86.0,86.0 0 0,1 -11.493303480769221,-40.785679425670985" fill="none" id="id33" stroke="none" /><text fill="#e1ed5e" style="font-size:6.75px; font-family:Arial;" text-anchor="middle"><textPath startOffset="21.40746469413373" xlink:href="#id33">September</textPath></text><path d="M 81.63589988554817 110.18625677009913 l -10.192360760401439 5.653530701307167 a32.65532613275123,32.65532613275123 0 0,0 -0.267703154932437,-0.49254365304095044 l 10.287909264949205 -5.477732214791629" fill="#ff6609" stroke="none" /><path d="M 81.4637452351635 109.86951160357371 l -25.227141101389304 13.432031712116434 a49.580205108863495,49.580205108863495 0 0,0 -0.3935533395340258,-0.7546904205094065 l 25.45400250989828 -12.996995048502525" fill="#b6ff1f" stroke="none" /><path d="M 81.29705330413844 109.54985784667822 l -23.92553027016725 12.216546232099972 a47.86400939081368,47.86400939081368 0 0,0 -0.36736786607836114,-0.7349818221341139 l 24.13171804945735 -11.804032553802106" fill="#cbff1d" stroke="none" /><path d="M 80.9802524753101 108.90220220490708 l -12.13792236641698 5.681160547112462 a34.40166946821301,34.40166946821301 0 0,0 -0.24575165976921204,-0.537011727708989 l 12.233658491041247 -5.471959837188784" fill="#ff800b" stroke="none" /><path d="M 80.83023694016515 108.57439118712176 l -20.069076580367827 8.97664268604999 a42.985175657739994,42.985175657739994 0 0,0 -0.29550490192984036,-0.6761730455761606 l 20.220215364314633 -8.63080757069798" fill="#fff517" stroke="none" /><path d="M 79.64726062577567 105.17358676015961 l -12.829550803850063 3.261221644770526 a34.23755794868863,34.23755794868863 0 0,0 -0.1399052158866051,-0.5708610235893327 l 12.883643546252962 -3.0405047965730936" fill="#ff7d0b" stroke="none" /><path d="M 79.48165901384964 104.47187691870673 l -24.477094228330834 5.334668762477707 a46.051683230233095,46.051683230233095 0 0,0 -0.16171221627564317,-0.7738514953602319 l 24.565064155430846 -4.913700815832066" fill="#e1ff1b" stroke="none" /><path d="M 79.407916724674 104.11899336999214 l -21.695489399750542 4.33970549756785 a43.125263932896004,43.125263932896004 0 0,0 -0.1389736431737926,-0.7271688257571328 l 21.766789335206493 -3.966634106777403" fill="#fff717" stroke="none" /><path d="M 79.34024301695615 103.76489593502545 l -24.04633325036522 4.3820429437224275 a45.44234937865522,45.44234937865522 0 0,0 -0.13326549428886353,-0.7686399571311863 l 24.118013562146317 -3.9686099536706485" fill="#e9ff1a" stroke="none" /><path d="M 79.22317932658666 103.0534771498775 l -15.579905441717454 2.289709576422924 a36.74726082584587,36.74726082584587 0 0,0 -0.0863656582538725,-0.6248988801205018 l 15.616915616526539 -2.0219223881023365" fill="#ffa10e" stroke="none" /><path d="M 79.0935383218832 101.97986365728391 l -22.302240362277775 2.1120453498595837 a43.40202358575393,43.40202358575393 0 0,0 -0.06387615793442208,-0.7423377796813291 l 22.33521014290994 -1.7288865228025925" fill="#fffb17" stroke="none" /><path d="M 79.01933749520258 100.90099992219065 l -32.6468867192731 1.401997786633574 a53.6769767612424,53.6769767612424 0 0,0 -0.03163187564206112,-0.9209275459149026 l 32.666143281912014 -0.8413639761545515" fill="#86ff25" stroke="none" /><line stroke="#e1ed5e" stroke-width="0.3" x1="15.003131293944662" x2="10.003315487706104" y1="100.72959589197737" y2="100.7725132973878" /><path d="M 14.003168132696942 100.73817937305945 a86.0,86.0 0 0,1 10.791469493833604,-42.45332614584628" fill="none" id="id34" stroke="none" /><text fill="#e1ed5e" style="font-size:6.75px; font-family:Arial;" text-anchor="middle"><textPath startOffset="22.145653131862435" xlink:href="#id34">October</textPath></text><path d="M 79.00077361379809 100.18025310272382 l -28.445329065836106 0.2441689387893891 a49.44637699487177,49.44637699487177 0 0,0 0.0,-0.8488440830264028 l 28.445329065836106 0.24416893878937865" fill="#b8ff1f" stroke="none" /><path d="M 79.00077361379809 99.81974689727619 l -23.733717222096498 -0.20372541777365322 a44.73459157483623,44.73459157483623 0 0,0 0.013183003803172019,-0.7678438807625984 l 23.72672278669466 0.611116214505304" fill="#f2ff19" stroke="none" /><path d="M 79.00696218219943 99.45929381324524 l -24.078624470349986 -0.6201799535950565 a45.08660996402313,45.08660996402313 0 0,0 0.026569567169319373,-0.7735439581941727 l 24.06443021618382 1.0334301763533678" fill="#eeff19" stroke="none" /><path d="M 79.03789590574601 98.7389718711861 l -49.796296960556454 -2.995621570033382 a70.88632016469819,70.88632016469819 0 0,0 0.08349746516474757,-1.214034818320742 l 49.737535534226645 3.849999812508449" fill="#3cffa1" stroke="none" /><path d="M 79.06263194458094 98.37931529534042 l -24.673274656213582 -1.909867503085741 a45.747082174274496,45.747082174274496 0 0,0 0.06732745629311797,-0.7824470981416468 l 24.636853577222723 2.3331356486030685" fill="#e5ff1a" stroke="none" /><path d="M 79.0935383218832 98.0201363427161 l -11.65632897277652 -1.1038664727614713 a32.70848095660902,32.70848095660902 0 0,0 0.05773453022002663,-0.5585292073350221 l 11.635662050074828 1.303800202379406" fill="#ff6709" stroke="none" /><path d="M 79.48165901384962 95.52812308129327 l -29.12296465029901 -6.347214597510127 a50.806613413291544,50.806613413291544 0 0,0 0.1930388529247371,-0.8505648040451029 l 29.009714935816614 6.846213735494238" fill="#a7ff21" stroke="none" /><path d="M 79.56144815229197 95.17655741523228 l -35.5173204432092 -8.381990915947767 a57.49298320472906,57.49298320472906 0 0,0 0.23493405222641547,-0.958611104525676 l 35.368198864466486 8.990457845081561" fill="#5bff2a" stroke="none" /><path d="M 79.64726062577567 94.8264132398404 l -11.394683735086605 -2.8964840468948756 a32.75705903942664,32.75705903942664 0 0,0 0.14321155227238172,-0.5437975905026587 l 11.343282702009498 3.091662141770319" fill="#ff6809" stroke="none" /><path d="M 79.73907114497095 94.47779374421319 l -11.115434810054472 -3.029561185623406 a32.520899790988835,32.520899790988835 0 0,0 0.1514258390787761,-0.5373568826198706 l 11.061790478901113 3.2199259921462895" fill="#ff6409" stroke="none" /><path d="M 79.83685265289637 94.1308016681162 l -50.44077381184162 -14.682574124912842 a73.53427115389465,73.53427115389465 0 0,0 0.36320215285394736,-1.2089818417525335 l 50.18129533898404 15.546293570256099" fill="#3fffbf" stroke="none" /><path d="M 80.41425534168474 92.42381321644754 l -9.264226332163693 -3.583601763529507 a30.933181319855535,30.933181319855535 0 0,0 0.19582371962735745,-0.4936036949824472 l 9.201343937570204 3.742106475725537" fill="#ff4d07" stroke="none" /><path d="M 80.5471966667186 92.08871423366112 l -27.216822999780053 -11.06884497386234 a50.38153813633238,50.38153813633238 0 0,0 0.33269605961948057,-0.7983494293388853 l 27.022801095624093 11.53442691264249" fill="#acff20" stroke="none" /><path d="M 80.68587082218212 91.75594674310238 l -15.195664734117125 -6.486125684915604 a37.52204748547264,37.52204748547264 0 0,0 0.2579482063929677,-0.5902359763867939 l 15.08208264570718 6.746023731078265" fill="#ffac0f" stroke="none" /><path d="M 80.83023694016515 91.42560881287825 l -5.590518591326287 -2.500567857374515 a27.12427446554279,27.12427446554279 0 0,0 0.1937648833031901,-0.42341123901134203 l 5.54676924316805 2.5961680786005283" fill="#ff1302" stroke="none" /><path d="M 81.29705330413844 90.45014215332179 l -17.71888943996966 -9.047391200134264 a40.8950830738184,40.8950830738184 0 0,0 0.3246133508097637,-0.6224889020523892 l 17.56096802018496 9.350226345291139" fill="#ffda14" stroke="none" /><path d="M 81.46374523516351 90.13048839642627 l -16.542529622583753 -8.807965262339373 a39.741278995219034,39.741278995219034 0 0,0 0.32579266625051156,-0.5994218111082026 l 16.38889160671789 9.090641906922194" fill="#ffca12" stroke="none" /><line stroke="#e1ed5e" stroke-width="0.3" x1="26.387840678322718" x2="22.05771365940052" y1="57.49999999999999" y2="54.99999999999999" /><path d="M 25.521815274538284 56.99999999999999 a86.0,86.0 0 0,1 29.574782752854787,-30.34633250058573" fill="none" id="id35" stroke="none" /><text fill="#e1ed5e" style="font-size:6.75px; font-family:Arial;" text-anchor="middle"><textPath startOffset="21.40746469413373" xlink:href="#id35">November</textPath></text><path d="M 81.99639281039701 89.18935116829357 l -19.310765708050234 -11.595559964319206 a43.524712719973394,43.524712719973394 0 0,0 0.39013072722737335,-0.6372492234635144 l 19.10886701636747 11.925346303907263" fill="#fffc17" stroke="none" /><path d="M 82.18462484594161 88.88188828441811 l -19.75632941955563 -12.329410729608973 a44.287913626458604,44.287913626458604 0 0,0 0.4080441791200198,-0.6415132239133722 l 19.541767548809723 12.666737628201018" fill="#f8ff18" stroke="none" /><path d="M 82.37810715431573 88.57770195909679 l -20.73186401578336 -13.43814377975573 a45.706150930776744,45.706150930776744 0 0,0 0.43241405623551965,-0.6547299944595 l 20.49812552062711 13.79205365255429" fill="#e6ff1a" stroke="none" /><path d="M 82.78059297857968 87.97951657250589 l -23.220767304041146 -16.20989899389118 a49.31898408454266,49.31898408454266 0 0,0 0.4905710062429313,-0.6900495561709217 l 22.939081199268244 16.606125776771623" fill="#b9ff1f" stroke="none" /><path d="M 83.2033758604659 87.39550010848427 l -5.718470429149852 -4.291246818710709 a28.149524691065558,28.149524691065558 0 0,0 0.2933556103359913,-0.38401191077141145 l 5.643962841459553 4.388779642723005" fill="#ff2303" stroke="none" /><path d="M 83.64595745247003 86.82634096563983 l -10.083291579554471 -8.122385937729389 a33.94781535239587,33.94781535239587 0 0,0 0.3694705323185595,-0.4506939743604211 l 9.94237422799728 8.294282193788302" fill="#ff790b" stroke="none" /><path d="M 84.10781606972428 86.27271002978789 l -25.322667812446426 -21.873117339057767 a54.461481845066274,54.461481845066274 0 0,0 0.6172014342640834,-0.7022619340879394 l 24.94345531422375 22.30459155095701" fill="#7dff26" stroke="none" /><path d="M 84.58840730492382 85.73525988315684 l -18.054506738771643 -16.710981899272028 a45.601262764706775,45.601262764706775 0 0,0 0.5366707650741265,-0.5699257547576984 l 17.764980139961246 17.01844911397424" fill="#e7ff1a" stroke="none" /><path d="M 84.83555147118756 85.47280134310135 l -10.011305486547508 -9.590604191220422 a34.8638351944053,34.8638351944053 0 0,0 0.4177238617816929,-0.42862148165170844 l 9.845194823615012 9.76104836493986" fill="#ff860c" stroke="none" /><path d="M 85.60350026404147 84.71141617570332 l -14.029233177690486 -14.898559466645544 a41.4642727145429,41.4642727145429 0 0,0 0.5223910530660583,-0.4835173598723581 l 13.771412353310474 15.137194572650268" fill="#ffe115" stroke="none" /><path d="M 88.12776184653039 82.6780497279521 l -23.99232760294492 -35.00552299209386 a63.4384074130621,63.4384074130621 0 0,0 0.9035553873553497,-0.6079523890084109 l 23.38787592749258 35.412225055159375" fill="#32ff47" stroke="none" /><path d="M 88.72937992617638 82.28071324371311 l -25.103197458966804 -39.46639593576688 a67.7735708581523,67.7735708581523 0 0,0 0.9870280518302906,-0.6159785046211873 l 24.422005278346813 39.8915102372296" fill="#38ff7c" stroke="none" /><line stroke="#e1ed5e" stroke-width="0.3" x1="56.869717070023135" x2="54.33264160355391" y1="26.7553504044142" y2="22.446841604673864" /><path d="M 56.362301976729285 25.89364864446614 a86.0,86.0 0 0,1 42.16139366436587,-11.88097634709845" fill="none" id="id36" stroke="none" /><text fill="#e1ed5e" style="font-size:6.75px; font-family:Arial;" text-anchor="middle"><textPath startOffset="22.145653131862474" xlink:href="#id36">December</textPath></text><path d="M 89.97174638481275 81.54914285379989 l -11.706720225537634 -21.53904665961054 a45.51484916216887,45.51484916216887 0 0,0 0.6896825738661795,-0.36721712405827617 l 11.335248835884892 21.736834251391393" fill="#e8ff1a" stroke="none" /><path d="M 90.28995756902619 81.37971332152246 l -11.483911541003836 -22.021914590369384 a45.836363391348684,45.836363391348684 0 0,0 0.7008004066955318,-0.35783368105933483 l 11.10418391259472 22.215806223101552" fill="#e4ff1a" stroke="none" /><path d="M 90.93487009805054 81.0573650232925 l -8.718282508106924 -18.217857323739885 a41.19650403805832,41.19650403805832 0 0,0 0.6405296913077828,-0.29980023777216286 l 8.404264102927618 18.364833793082592" fill="#ffde14" stroke="none" /><path d="M 91.5904679813234 80.7573450057729 l -9.865970431309563 -22.57527110561047 a45.63696892970573,45.63696892970573 0 0,0 0.7205532463155833,-0.30756133410759534 l 9.476982109823547 22.741307089377468" fill="#e7ff1a" stroke="none" /><path d="M 92.25597844496254 80.48000691201159 l -2.646584272854234 -6.671121244398901 a28.176926011238358,28.176926011238358 0 0,0 0.45113638488789976,-0.17450924518799119 l 2.531675625472805 6.715570377724934" fill="#ff2403" stroke="none" /><path d="M 92.592206182469 80.34994680014964 l -1.7178173839961226 -4.55671470003226 a25.869758250904184,25.869758250904184 0 0,0 0.4168860398186253,-0.1530863282947369 l 1.6393421925233704 4.585531877335719" fill="#ff0000" stroke="none" /><path d="M 93.61358852112211 79.99465700312896 l -4.34514183126703 -13.611094899231638 a35.28783265193557,35.28783265193557 0 0,0 0.5786521771120405,-0.17926792362936564 l 4.110849021283373 13.683679410667645" fill="#ff8c0c" stroke="none" /><path d="M 95.00130118170881 79.60360301121753 l -6.300810965970321 -25.709458898173278 a47.47029458970476,47.47029458970476 0 0,0 0.7931333344772334,-0.18717730734652172 l 5.858545477753182 25.81383234916603" fill="#d0ff1d" stroke="none" /><path d="M 95.35216902796891 79.52079915486377 l -5.435221198264469 -23.94858746516728 a45.557615337219346,45.557615337219346 0 0,0 0.7641478252846634,-0.1665424619211177 l 5.023310956360687 24.03836138522211" fill="#e8ff1a" stroke="none" /><path d="M 97.12497278360702 79.19773525538626 l -4.1997418648755325 -30.38724003516944 a51.67608496347917,51.67608496347917 0 0,0 0.8797784024904505,-0.11390492797963027 l 3.6774856404942877 30.454856559349466" fill="#9dff22" stroke="none" /></svg>