<?xml version="1.0" encoding="utf-8" ?>
<svg baseProfile="full" height="200mm" version="1.1" viewBox="0,0,200,200" width="200mm" xmlns="http://www.w3.org/2000/svg" xmlns:ev="http://www.w3.org/2001/xml-events" xmlns:xlink="http://www.w3.org/1999/xlink"><defs /><rect fill="#1a1a1a" height="200" width="200" x="0" y="0" /><text alignment-baseline="middle" fill="#e1ed5e" style="dominant-baseline: central; font-size:9.0px; font-family:Arial;" text-anchor="middle" x="100.0" y="100.0">2022</text><line stroke="#e1ed5e" stroke-width="0.3" x1="100.0" x2="100.0" y1="15.0" y2="10.0" /><path d="M 100.0 14.0 a86.0,86.0 0 0,1 42.46469731375804,11.215312516191453" fill="none" id="id97" stroke="none" /><text fill="#e1ed5e" style="font-size:6.75px; font-family:Arial;" text-anchor="middle"><textPath startOffset="22.20632615414155" xlink:href="#id97">January</textPath></text><path d="M 100.36148047927253 79.00311137660856 l 0.1641277096586337 -9.53349195134964 a30.53490465036364,30.53490465036364 0 0,0 0.5254524398812279,0.013570886286432049 l -0.3282067847347295 9.529254272920848" fill="#ff780b" stroke="none" /><path d="M 100.72285384407766 79.0124445844662 l 0.16621864238699544 -4.826041940252958 a25.828903544921715,25.828903544921715 0 0,0 0.4442069192657224,0.019128484357657988 l -0.24926639404204937 4.822465729371105" fill="#ff3705" stroke="none" /><path d="M 101.08401301168833 79.027996857942 l 0.5879078151545496 -11.374037408885478 a32.389221333253914,32.389221333253914 0 0,0 0.5565362031224608,0.03357178360679268 l -0.7836060671166223 11.362232355898382" fill="#ff910d" stroke="none" /><path d="M 102.52436894288641 79.15227682838746 l 1.1128427931098435 -9.190510186577782 a30.25763990290001,30.25763990290001 0 0,0 0.5165199169191875,0.06705910943698545 l -1.270877438536877 9.169992753976661" fill="#ff750a" stroke="none" /><path d="M 103.95276090670814 79.375362276772 l 1.7914854649306478 -9.347577445910924 a30.517700577259212,30.517700577259212 0 0,0 0.5150713424002459,0.10331846574587741 l -1.952123216798019 9.315355024087838" fill="#ff780b" stroke="none" /><path d="M 104.66035177308747 79.52364482259891 l 2.1375149218095553 -9.391676179622511 a30.631850886711618,30.631850886711618 0 0,0 0.513121884116246,0.1214393716671476 l -2.2988604928883247 9.353490895814495" fill="#ff7a0b" stroke="none" /><path d="M 106.0581310904928 79.89281104454417 l 1.9287000600405038 -6.401435684759811 a27.685675937982378,27.685675937982378 0 0,0 0.4551190619134487,0.14140770794258264 l -2.038604494664671 6.367287841934708" fill="#ff5107" stroke="none" /><path d="M 106.40334571778207 80.00007090966166 l 3.5110869829240907 -10.966375045702586 a32.514734623284525,32.514734623284525 0 0,0 0.5315650917334664,0.1752486532718496 l -3.6993348968999746 10.904312668171501" fill="#ff930d" stroke="none" /><path d="M 106.74666289553966 80.11325718540242 l 2.7075942467820844 -7.981016876897387 a29.427793127179164,29.427793127179164 0 0,0 0.4782969226194934,0.1668684046956796 l -2.8445731734648514 7.9332276190295" fill="#ff6909" stroke="none" /><path d="M 108.09893153111575 80.62456947434976 l 3.6126786681207257 -8.642770256390673 a30.367439610899332,30.367439610899332 0 0,0 0.48055206747731416,0.20574731630477144 l -3.760914493388355 8.57930341212311" fill="#ff760a" stroke="none" /><path d="M 109.41281617654863 81.2277094730956 l 7.959402694041642 -15.873699962975518 a38.757433422667994,38.757433422667994 0 0,0 0.593799891986689,0.30416736798851435 l -8.231463073617086 15.734340069674504" fill="#ffe315" stroke="none" /><path d="M 109.73455568895987 81.39251694778311 l 8.7346295891754 -16.696136653910262 a39.84289609444748,39.84289609444748 0 0,0 0.6049573704939231,0.32314727631736107 l -9.020732006197635 16.543310651091147" fill="#fff016" stroke="none" /><line stroke="#e1ed5e" stroke-width="0.3" x1="143.23703022742887" x2="145.7803849466894" y1="26.81831364943548" y2="22.513508569990506" /><path d="M 143.74570117128098 25.957352633546492 a86.0,86.0 0 0,1 28.547481713284135,27.462654790039103" fill="none" id="id98" stroke="none" /><text fill="#e1ed5e" style="font-size:6.75px; font-family:Arial;" text-anchor="middle"><textPath startOffset="19.985693538727396" xlink:href="#id98">February</textPath></text><path d="M 111.2981086023043 82.29822771554956 l 10.272102795161834 -16.094235855135594 a40.09294434064856,40.09294434064856 0 0,0 0.5785468651720022,0.37630297443590444 l -10.547616686118117 15.915033956540164" fill="#fff417" stroke="none" /><path d="M 111.90073688211348 82.69761687909136 l 3.7222341457439674 -5.411725500140012 a27.568241768130036,27.568241768130036 0 0,0 0.3886713297129836,0.27228910481231094 l -3.814836615040602 5.346851552563765" fill="#ff5007" stroke="none" /><path d="M 112.48926042617603 83.11751280151076 l 6.099628676828079 -8.245236270056504 a31.256187944077407,31.256187944077407 0 0,0 0.4297783089382482,0.323700112053532 l -6.24065313952471 8.139019568497124" fill="#ff820c" stroke="none" /><path d="M 113.06298171725822 83.55741782278167 l 15.947225691815719 -20.07302579241174 a46.636699704301535,46.636699704301535 0 0,0 0.6242579899546458,0.5047732136434051 l -16.290387080334856 19.795546481504207" fill="#bdff1f" stroke="none" /><path d="M 113.6212207817346 84.01681056812373 l 16.313148083715433 -19.141906605163285 a46.15017671671558,46.15017671671558 0 0,0 0.6001856883277495,0.5204751145898413 l -16.640227570689948 18.858266497153775" fill="#c3ff1e" stroke="none" /><path d="M 114.16331599549186 84.49514656593476 l 14.21298191382445 -15.559223666619554 a42.07363983726103,42.07363983726103 0 0,0 0.5305127680457993,0.49305380052844033 l -14.478702565665097 15.312265280016472" fill="#f2ff19" stroke="none" /><path d="M 114.68862486808459 84.99185889309783 l 7.0379545466282245 -7.191048575913012 a31.062006947997276,31.062006947997276 0 0,0 0.37890353119194237,0.37727639901385845 l -7.160693877987489 7.068836326249035" fill="#ff800b" stroke="none" /><path d="M 115.4437574822437 85.77008943001954 l 16.28481593880096 -15.004863597745633 a43.14364833869021,43.14364833869021 0 0,0 0.4985276493527899,0.5504866818749902 l -16.540687228769784 14.722324128601093" fill="#e6ff1a" stroke="none" /><path d="M 116.38621287248628 86.86637796730983 l 2.5396463158149145 -2.0355377455539094 a24.254722311197526,24.254722311197526 0 0,0 0.258308079582184,0.32802502947319223 l -2.574308475991063 1.991520322127679" fill="#ff2103" stroke="none" /><path d="M 116.60985879189232 87.15038557335679 l 10.150011317743612 -7.8521878778845 a33.83275435048609,33.83275435048609 0 0,0 0.35238273261612396,0.4636943702831948 l -10.28366999058385 7.676308731720272" fill="#ffa40f" stroke="none" /><path d="M 117.2510076193507 88.02491185347247 l 30.9526377163424 -21.486313912757055 a58.67927105394529,58.67927105394529 0 0,0 0.5688411409036257,0.8347041829660076 l -31.317903322914763 20.950331706520643" fill="#3dff2e" stroke="none" /><line stroke="#e1ed5e" stroke-width="0.3" x1="172.23445277983987" x2="176.4835382374775" y1="55.19839476539836" y2="52.563006222186495" /><path d="M 173.08426987136738 54.67131705675599 a86.0,86.0 0 0,1 12.851231095245387,41.99856678651699" fill="none" id="id99" stroke="none" /><text fill="#e1ed5e" style="font-size:6.75px; font-family:Arial;" text-anchor="middle"><textPath startOffset="22.20632615414155" xlink:href="#id99">March</textPath></text><path d="M 117.84615892207809 88.93136811851018 l 35.17176627037316 -21.814404722516525 a62.387454572315875,62.387454572315875 0 0,0 0.5581722428225732,0.9174884056909695 l -35.542054311481955 21.205748543618473" fill="#32ff4b" stroke="none" /><path d="M 118.3937258080291 89.86733742301442 l 7.69425267387031 -4.238579336241112 a29.78447943813238,29.78447943813238 0 0,0 0.2435120899295952,0.4511909195625369 l -7.76607286301837 4.105507433346116" fill="#ff6e0a" stroke="none" /><path d="M 118.56541770881063 90.18545643968196 l 10.88002573194766 -5.751687797086597 a33.306781563146316,33.306781563146316 0 0,0 0.26358442417102246,0.5091612102612475 l -10.977419589278798 5.563553864565005" fill="#ff9d0e" stroke="none" /><path d="M 119.04729006885535 91.15688171328212 l 9.245371817270765 -4.292364755787356 a31.193198479197292,31.193198479197292 0 0,0 0.22191388472831067,0.48895782919871367 l -9.317888018962424 4.13258491774658" fill="#ff810b" stroke="none" /><path d="M 119.196687751892 91.48605970444005 l 9.457973233090728 -4.194714237387233 a31.346443118830734,31.346443118830734 0 0,0 0.21451309950304523,0.4951258093658835 l -9.528777042436454 4.031289283434747" fill="#ff830c" stroke="none" /><path d="M 119.34039704204932 91.81776055985345 l 9.456974286414601 -4.000912071376696 a31.268478955366014,31.268478955366014 0 0,0 0.2054462847569447,0.49750447439207246 l -9.524442258057743 3.8375330265313203" fill="#ff820c" stroke="none" /><path d="M 119.47837535516314 92.15188598940014 l 6.425657803079001 -2.588988768937409 a27.927621601094714,27.927621601094714 0 0,0 0.17581960533942256,0.44744171802772875 l -6.4692709583001236 2.4779980460138957" fill="#ff5507" stroke="none" /><path d="M 119.61058180528143 92.48833698450437 l 9.482328317427905 -3.632123494858645 a31.15415537607138,31.15415537607138 0 0,0 0.18751153755442124,0.5024376957746947 l -9.543444443483951 3.4683626620546173" fill="#ff810b" stroke="none" /><path d="M 119.7369772167798 92.82701384747503 l 23.47732445011132 -8.532336098347088 a45.97970221261558,45.97970221261558 0 0,0 0.26393864033396147,0.7461900785836586 l -23.62071617125509 8.126948393336814" fill="#c5ff1e" stroke="none" /><path d="M 119.97218684219823 93.5106431181261 l 14.032847486189661 -4.559548542495449 a35.75500903022536,35.75500903022536 0 0,0 0.1851505314216798,0.5869777815520035 l -14.109253501379548 4.317320594517026" fill="#ffbd11" stroke="none" /><path d="M 120.08093135843002 93.85539295169968 l 9.514369574465334 -2.9113222541269863 a30.949825408864555,30.949825408864555 0 0,0 0.1514980732120797,0.5107761891446676 l -9.563073544789116 2.747116678235789" fill="#ff7e0b" stroke="none" /><path d="M 120.28053869075195 94.5502522615342 l 60.84161607225586 -16.349243215397394 a84.0,84.0 0 0,0 0.36321467251878925,1.3996142978045985 l -61.11402707664495 15.299532492043943" fill="#4dd2ff" stroke="none" /><path d="M 120.45610955862082 95.25157060432595 l 10.378357655954517 -2.4091041569331453 a31.654299154513275,31.654299154513275 0 0,0 0.11863671518937384,0.5318251318718288 l -10.418288758145927 2.2301008555113526" fill="#ff870c" stroke="none" /><path d="M 120.67395015179393 96.31383870115 l 9.266464185986921 -1.6522087655609698 a30.412606032081378,30.412606032081378 0 0,0 0.08745526974267766,0.5161659525802513 l -9.29353131724982 1.4924570246648805" fill="#ff770a" stroke="none" /><path d="M 120.73433829027371 96.67025291283417 l 35.653696548494544 -5.725661005769041 a57.11051469482422,57.11051469482422 0 0,0 0.1475194688020226,0.971968983032153 l -35.746971910735866 5.111092910344805" fill="#4dff2c" stroke="none" /><path d="M 120.78858239683441 97.02765380044208 l 8.392178467149078 -1.1999115330076924 a29.477526001819488,29.477526001819488 0 0,0 0.06749511371638792,0.5029169946554215 l -8.411589579923302 1.0552761962876065" fill="#ff6a09" stroke="none" /><path d="M 120.83666639777658 97.38593545837742 l 16.95106086126799 -2.1265957948559002 a38.08393613887357,38.08393613887357 0 0,0 0.07600401522924068,0.6511559876142374 l -16.98515522950082 1.8344960689168102" fill="#ffdb14" stroke="none" /><path d="M 120.87857604477298 97.74499172005257 l 11.510445803879652 -1.2431954429254746 a32.57738733537759,32.57738733537759 0 0,0 0.0554170434944309,0.5580420652502268 l -11.530139973056311 1.0448778469708129" fill="#ff940d" stroke="none" /><path d="M 120.94382443527127 98.46500227214037 l 34.723003774169264 -2.544890120834369 a55.81613787926647,55.81613787926647 0 0,0 0.06198092132193098,0.958817419445152 l -34.761665286495614 1.9468136371361815" fill="#5aff2a" stroke="none" /><line stroke="#e1ed5e" stroke-width="0.3" x1="184.98032266829074" x2="189.97916517819016" y1="98.17113171792111" y2="98.06355123074" /><path d="M 185.9800911702706 98.14961562048488 a86.0,86.0 0 0,1 -9.607161424134198,41.387399972396054" fill="none" id="id100" stroke="none" /><text fill="#e1ed5e" style="font-size:6.75px; font-family:Arial;" text-anchor="middle"><textPath startOffset="21.466115282336823" xlink:href="#id100">April</textPath></text><path d="M 120.99513854157772 99.54816195383933 l 42.427400744630674 -0.913083465401557 a63.4372248781689,63.4372248781689 0 0,0 0.014098146522775818,1.0919169848915637 l -42.436831898271166 0.18263022244953073" fill="#33ff57" stroke="none" /><path d="M 120.99980553446 99.90962569577887 l 23.031706167889507 -0.09911874738710759 a44.03191944953966,44.03191944953966 0 0,0 -0.0032619322112397062,0.757958168452734 l -23.029999938388762 -0.29734889926931113" fill="#dbff1b" stroke="none" /><path d="M 120.9904718944345 100.63252640178507 l 10.76519947215048 0.3243982756015752 a31.770086068198445,31.770086068198445 0 0,0 -0.0211768306708801,0.5464799024836481 l -10.758020508628396 -0.5096554250992295" fill="#ff890c" stroke="none" /><path d="M 120.9764740272857 100.99374915477107 l 9.87235713537246 0.46769759999287813 a30.883429387281453,30.883429387281453 0 0,0 -0.029726990715441583,0.5307953886870307 l -9.862843793769489 -0.6375647050153321" fill="#ff7d0b" stroke="none" /><path d="M 120.92983693683757 101.71520430193887 l 33.8965956947144 2.7778327624869417 a55.01022720516987,55.01022720516987 0 0,0 -0.08546337483135621,0.9430812197158526 l -33.84375772360597 -3.360895370751365" fill="#62ff29" stroke="none" /><path d="M 120.89721153311464 102.0752229133903 l 25.83433642256765 2.5655100830744817 a46.96140944518926,46.96140944518926 0 0,0 -0.08680637299661957,0.8037192040035865 l -25.786347748069975 -3.0098256089628594" fill="#b9ff1f" stroke="none" /><path d="M 120.76222939487914 103.15116336523771 l 43.37996044462856 6.583943349180489 a64.87675099870951,64.87675099870951 0 0,0 -0.17707721666597895,1.102659997212454 l -43.26020147360129 -7.329682576086148" fill="#35ff68" stroke="none" /><path d="M 120.70491114924044 103.5080841355445 l 9.692748939183947 1.6422663462921638 a30.830891147307824,30.830891147307824 0 0,0 -0.0931585585309473,0.5224826694053366 l -9.66304393831381 -1.8088677664307187" fill="#ff7c0b" stroke="none" /><path d="M 120.5718875245553 104.21870165774334 l 57.119093324232175 11.713481002076579 a79.30777357581366,79.30777357581366 0 0,0 -0.2857570916303882,1.3349619986629353 l -56.90900219387734 -12.694956820155683" fill="#47feff" stroke="none" /><path d="M 120.49622156327973 104.57218783832717 l 10.846454966620751 2.419569350098846 a32.11305093945266,32.11305093945266 0 0,0 -0.12499536238258045,0.5384767497115902 l -10.803199038307618 -2.605914757159001" fill="#ff8e0d" stroke="none" /><path d="M 120.23288151984713 105.62410040840565 l 53.77458479945157 14.947631855392062 a76.81341835470874,76.81341835470874 0 0,0 -0.36507355894039867,1.270868951822985 l -53.50931860362507 -15.871058282719629" fill="#44ffe8" stroke="none" /><path d="M 120.13307415673323 105.97154293290107 l 26.167292739342393 7.761314085187285 a48.29405073702633,48.29405073702633 0 0,0 -0.24324845786704077,0.7949500345710689 l -26.02981750896922 -8.210591092310413" fill="#aaff21" stroke="none" /><path d="M 119.9155931802556 106.66101706037122 l 26.378863494460692 8.822737951084779 a48.81519628212072,48.81519628212072 0 0,0 -0.273386412956348,0.7945888853944076 l -26.223086250561114 -9.275499539568488" fill="#a5ff21" stroke="none" /><path d="M 119.26925614724726 108.34839909993367 l 9.135306903993628 3.9578688119631025 a30.955830340200855,30.955830340200855 0 0,0 -0.21604061504298042,0.4871145538652144 l -9.065825204219376 -4.114531702321004" fill="#ff7e0b" stroke="none" /><path d="M 119.12269723197855 108.67885076344098 l 9.961886762244971 4.521209925723276 a31.939859553771715,31.939859553771715 0 0,0 -0.23152654088832728,0.4986875715054414 l -9.882585604516812 -4.692017564507547" fill="#ff8b0c" stroke="none" /><path d="M 118.81262510543309 109.33194174019688 l 9.902988287349464 4.912345259285906 a32.05442504003756,32.05442504003756 0 0,0 -0.24944651329901255,0.4921816357358002 l -9.816963104264183 -5.0820811067244005" fill="#ff8d0d" stroke="none" /><line stroke="#e1ed5e" stroke-width="0.3" x1="174.80103733775053" x2="179.2010983576182" y1="140.37084112569926" y2="142.7455964860345" /><path d="M 175.68104954172406 140.8457921977663 a86.0,86.0 0 0,1 -30.038265399797805,32.042727171017184" fill="none" id="id101" stroke="none" /><text fill="#e1ed5e" style="font-size:6.75px; font-family:Arial;" text-anchor="middle"><textPath startOffset="22.206326154141568" xlink:href="#id101">May</textPath></text><path d="M 118.48025628344425 109.97397251340804 l 44.40523413416919 23.965933042953864 a71.45979355020918,71.45979355020918 0 0,0 -0.593536846232445,1.0774417803429814 l -43.98612087848523 -24.726745341694652" fill="#3dffb1" stroke="none" /><path d="M 118.30583269289576 110.29060199501025 l 21.007994748701602 11.809619168870247 a45.09985369821198,45.09985369821198 0 0,0 -0.386243745783007,0.6734485273548928 l -20.801599006766217 -12.169487542083456" fill="#cfff1d" stroke="none" /><path d="M 118.12598468904814 110.60418214915192 l 9.395474026949355 5.496601683636804 a31.885199229212063,31.885199229212063 0 0,0 -0.28122612759153426,0.4713511659400476 l -9.299467023659593 -5.657514943462956" fill="#ff8b0c" stroke="none" /><path d="M 117.75023020441432 111.22182372390056 l 24.846392242818602 15.708068611665656 a50.3953504315358,50.3953504315358 0 0,0 -0.46986497728114185,0.7292408790729912 l -24.57232240216041 -16.1334310906601" fill="#93ff23" stroke="none" /><path d="M 117.35343817320211 111.8261652097733 l 34.18521714070987 23.296825770371807 a62.36872202440563,62.36872202440563 0 0,0 -0.6122205609318034,0.8819493795893395 l -33.77913567261592 -23.881816412148165" fill="#32ff4a" stroke="none" /><path d="M 117.14729908036423 112.12312394758627 l 4.91232106751198 3.473006267207538 a27.016034474833475,27.016034474833475 0 0,0 -0.27173011480772374,0.37740936328046853 l -4.851811160328654 -3.5570492359391377" fill="#ff4806" stroke="none" /><path d="M 116.498646956653 112.99209946851258 l 26.663214173985637 20.99633573642759 a54.93778284515084,54.93778284515084 0 0,0 -0.5914499358432728,0.7379247345494921 l -26.29784632608751 -21.45218830455533" fill="#63ff29" stroke="none" /><path d="M 116.0416608686014 113.55231037782055 l 26.55645929911506 22.435418745324988 a55.76483201143987,55.76483201143987 0 0,0 -0.62578096981062,0.7279246436069515 l -26.16633581973366 -22.889220488093464" fill="#5aff2a" stroke="none" /><path d="M 115.80600337817218 113.82643327865902 l 4.435820660313835 3.8802711177845457 a26.893471716906767,26.893471716906767 0 0,0 -0.3077908537805358,0.3458062870908702 l -4.368370956884961 -3.956051574616282" fill="#ff4606" stroke="none" /><path d="M 114.81725581225074 114.88116024355365 l 25.54093522985438 25.65108915859056 a57.198311389311776,57.198311389311776 0 0,0 -0.7036755462596594,0.6886946260852457 l -25.095609731218925 -26.086933887598377" fill="#4cff2c" stroke="none" /><path d="M 114.29624159901734 115.38237550388516 l 6.492107367847608 6.985334757537646 a30.536370365633076,30.536370365633076 0 0,0 -0.3881033813444844,0.35452323701583116 l -6.37090443703626 -7.09605076114006" fill="#ff780b" stroke="none" /><path d="M 113.20401910651253 116.32954008644616 l 23.459101297884487 29.012100932727652 a58.309937472946565,58.309937472946565 0 0,0 -0.7859138524684419,0.6243774959117776 l -22.956229952698695 -29.411612342644556" fill="#41ff2d" stroke="none" /><path d="M 112.92097659922987 116.55440617244103 l 19.869589777300508 25.456996777845706 a53.29333186379893,53.29333186379893 0 0,0 -0.7280155178374383,0.5582112549035014 l -19.428445530969576 -25.79524737457658" fill="#74ff27" stroke="none" /><path d="M 112.63410532772338 116.77436683061366 l 6.654561689647579 8.835295890256079 a32.06099655319091,32.06099655319091 0 0,0 -0.4436860696055183,0.3282283472583144 l -6.501490649623497 -8.948534186254163" fill="#ff8d0d" stroke="none" /><path d="M 112.34349029814194 116.9893568818739 l 6.253683769280672 8.607457276381936 a31.63940230703327,31.63940230703327 0 0,0 -0.4433624505788022,0.3163273364848039 l -6.104593990852985 -8.71382887471096" fill="#ff870c" stroke="none" /><path d="M 111.45004920935366 117.60387380957326 l 13.779455432071044 21.185218522262588 a46.272255060450185,46.272255060450185 0 0,0 -0.671428484630723,0.4285374264305741 l -13.41274514539339 -21.41927037751697" fill="#c1ff1e" stroke="none" /><line stroke="#e1ed5e" stroke-width="0.3" x1="143.8653032363475" x2="146.44561519142675" y1="172.8068346515853" y2="177.08958963109032" /><path d="M 144.38136562736335 173.6633856474863 a86.0,86.0 0 0,1 -40.68145358897372,12.25698825130547" fill="none" id="id102" stroke="none" /><text fill="#e1ed5e" style="font-size:6.75px; font-family:Arial;" text-anchor="middle"><textPath startOffset="21.466115282336833" xlink:href="#id102">June</textPath></text><path d="M 110.8373102113329 117.98757091392108 l 15.638408984351269 25.956347571628797 a51.30333009457935,51.30333009457935 0 0,0 -0.7603449832699812,0.4492252182798237 l -15.189296130052906 -26.22169136220237" fill="#89ff24" stroke="none" /><path d="M 109.2508944713604 118.85261126421891 l 10.184102878598399 20.754418206739544 a44.11843045152759,44.11843045152759 0 0,0 -0.6846494091364578,0.328673322461575 l -9.825340801461708 -20.926645805700677" fill="#daff1b" stroke="none" /><path d="M 108.92500713936063 119.00905698771935 l 11.408392213871158 24.29833100920816 a47.84325432466345,47.84325432466345 0 0,0 -0.74847810629956,0.34358958806926004 l -10.98844611180418 -24.49110766761149" fill="#afff20" stroke="none" /><path d="M 108.59647513512805 119.15986991738527 l 12.228994721035491 27.25604906573619 a50.87374302896998,50.87374302896998 0 0,0 -0.8020592628412468,0.35159921048060416 l -11.75801478353649 -27.462512829511248" fill="#8eff24" stroke="none" /><path d="M 107.59598834532513 119.57807347666477 l 17.659137096577442 45.515062411077416 a69.82075408348369,69.82075408348369 0 0,0 -1.1242131506952135,0.4250812184975232 l -16.873053725121956 -45.81229187968157" fill="#3bff9f" stroke="none" /><path d="M 106.57524785965236 119.94407469862006 l 13.686701355165253 41.51457101414154 a64.71253138945036,64.71253138945036 0 0,0 -1.0609115839295367,0.3396703866906427 l -12.970068426144776 -41.74401424749188" fill="#35ff66" stroke="none" /><path d="M 106.2309692047433 120.05430185196036 l 2.2546564804193827 7.256585636210278 a28.598783517139466,28.598783517139466 0 0,0 -0.4713692702784654,0.1420196944338166 l -2.1294122357006717 -7.29432069974982" fill="#ff5e08" stroke="none" /><path d="M 105.88484417918355 120.15858648285463 l 3.734311337471588 12.79191695790482 a34.32584783880942,34.32584783880942 0 0,0 -0.5686139329288418,0.16069597717674966 l -3.51356623643814 -12.85430172842009" fill="#ffab0f" stroke="none" /><path d="M 105.18746579009965 120.34920634021253 l 3.502497955377815 13.739474433967581 a35.17888040887131,35.17888040887131 0 0,0 -0.588068114949794,0.14453283502850667 l -3.2654765556848098 -13.797728527310118" fill="#ffb610" stroke="none" /><path d="M 104.48393922423573 120.51570834832081 l 1.9257710106939527 8.811126651205276 a30.019121179428133,30.019121179428133 0 0,0 -0.505762923507994,0.10598753806189597 l -1.7738166257565806 -8.842970169993714" fill="#ff710a" stroke="none" /><path d="M 104.13013068566511 120.58985236759428 l 1.0725826987740863 5.347123638592049 a26.453637763190674,26.453637763190674 0 0,0 -0.4472332437296013,0.08571331558486935 l -0.9803818404727807 -5.364794152525386" fill="#ff4006" stroke="none" /><path d="M 103.7750983002368 120.6578951692458 l 1.9746938182302554 10.805816072603836 a31.984765662985268,31.984765662985268 0 0,0 -0.542447961337984,0.09431153121545524 l -1.7883968854202215 -10.838206182340297" fill="#ff8c0c" stroke="none" /><path d="M 103.06178313531738 120.77559828337769 l 1.5560132880428532 10.558261499021885 a31.672303558009105,31.672303558009105 0 0,0 -0.5400450645416516,0.07484532504363768 l -1.3740396323143713 -10.583481389558125" fill="#ff880c" stroke="none" /><path d="M 101.98527174616119 120.90594882070398 l 1.3793632670854556 14.525415939962814 a35.590762531530366,35.590762531530366 0 0,0 -0.6103912076972425,0.052667121792373164 l -1.1291277416466714 -14.54700731403385" fill="#ffbb11" stroke="none" /><path d="M 100.90346689309514 120.98055641714683 l 0.7361637974428469 17.095397963723947 a38.111241003351054,38.111241003351054 0 0,0 -0.6556578927111067,0.022582183525543663 l -0.4417855530570879 -17.105536945675585" fill="#ffdb14" stroke="none" /><line stroke="#e1ed5e" stroke-width="0.3" x1="102.19456741930631" x2="102.32365962044197" y1="184.97166512339345" y2="189.96999836594603" /><path d="M 102.22038585953345 185.97133177190398 a86.0,86.0 0 0,1 -42.740103519485714,-10.115201625700543" fill="none" id="id103" stroke="none" /><text fill="#e1ed5e" style="font-size:6.75px; font-family:Arial;" text-anchor="middle"><textPath startOffset="22.20632615414155" xlink:href="#id103">July</textPath></text><path d="M 98.73552117531835 120.96189622390904 l -0.6950062726999487 11.521465665484769 a32.54240896867013,32.54240896867013 0 0,0 -0.5588573584792468,-0.038542075451376924 l 0.8932263919581255 -11.507795245517107" fill="#ff930d" stroke="none" /><path d="M 98.37488393609728 120.93702456842531 l -0.8893709047780606 11.45812345184939 a32.49258776969255,32.49258776969255 0 0,0 -0.5572566722160218,-0.048082450492588205 l 1.086471894735624 -11.44111674907814" fill="#ff930d" stroke="none" /><path d="M 98.01472825383883 120.90594882070398 l -1.0780639595818895 11.352576798639786 a32.40364949785654,32.40364949785654 0 0,0 -0.554823624306988,-0.057509737196346895 l 1.2733201804944707 -11.332337692987679" fill="#ff910d" stroke="none" /><path d="M 97.65516085044442 120.86867818915974 l -1.74118610858615 15.496266588011597 a36.59378104346274,36.59378104346274 0 0,0 -0.6253573573028901,-0.07572206700876356 l 2.0076708889404293 -15.463998992277485" fill="#ffc812" stroke="none" /><path d="M 97.2962882734958 120.8252237178851 l -2.1004752820333836 16.1788208533574 a37.31460206733421,37.31460206733421 0 0,0 -0.6362520062644356,-0.08817873052676206 l 2.37865587948465 -16.140267557338035" fill="#ffd113" stroke="none" /><path d="M 96.93821686468263 120.77559828337769 l -1.6669431475214476 11.310971307752375 a32.43314354768041,32.43314354768041 0 0,0 -0.5516169383651556,-0.08615122119732896 l 1.8613959494951202 -11.28060177920794" fill="#ff920d" stroke="none" /><path d="M 96.22490169976321 120.6578951692458 l -2.044480855891674 11.187701044471067 a32.37297483645183,32.37297483645183 0 0,0 -0.5473073561712374,-0.10489275741270115 l 2.2367558266346066 -11.150851088709897" fill="#ff910d" stroke="none" /><path d="M 95.86986931433489 120.58985236759428 l -2.255488161762443 11.24423699926259 a32.46822098424321,32.46822098424321 0 0,0 -0.5470254198296575,-0.1146344953538404 l 2.448705043021487 -11.20374652318221" fill="#ff920d" stroke="none" /><path d="M 95.51606077576429 120.51570834832081 l -2.0493518046022463 9.376555261738858 a30.597897238221982,30.597897238221982 0 0,0 -0.513578202258144,-0.11688872676687834 l 2.2104501562532533 -9.339889801394293" fill="#ff790b" stroke="none" /><path d="M 95.16358092515715 120.4354850818985 l -3.032093827934945 12.811608594876454 a34.1655196543742,34.1655196543742 0 0,0 -0.5711282595099687,-0.14036943070603258 l 3.2521753721881246 -12.75751790585639" fill="#ffa90f" stroke="none" /><path d="M 94.11515582081647 120.15858648285463 l -2.429403378012469 8.321943046620838 a29.66929852088964,29.66929852088964 0 0,0 -0.48901365280394776,-0.14733580214966754 l 2.5722920052566627 -8.278891875365444" fill="#ff6d0a" stroke="none" /><path d="M 93.76903079525671 120.05430185196036 l -2.833324699557414 9.119022563341366 a30.54904714428885,30.54904714428885 0 0,0 -0.5008278504566293,-0.16034926209397046 l 2.9898738951049837 -9.068900454587688" fill="#ff790b" stroke="none" /><path d="M 92.06813273071674 119.44442032107085 l -5.36346186655463 13.148153312296571 a35.20002319426419,35.20002319426419 0 0,0 -0.559057731506591,-0.2336861771106804 l 5.588991057558683 -13.053882092165917" fill="#ffb610" stroke="none" /><path d="M 91.7346041902142 119.30500536409082 l -3.521364947784935 8.224647768885411 a29.94677830382089,29.94677830382089 0 0,0 -0.47213138842872143,-0.20696852602462149 l 3.6624170108714 -8.162814689566337" fill="#ff700a" stroke="none" /><path d="M 91.40352486487194 119.15986991738527 l -4.536145536187689 10.110185515983508 a32.08117626847792,32.08117626847792 0 0,0 -0.5018901494105595,-0.23039315143705347 l 4.7095036813656685 -10.03060529421238" fill="#ff8d0d" stroke="none" /><path d="M 90.42595943632237 118.69057910512821 l -8.23614808582405 16.0787262489426 a39.06542479655707,39.06542479655707 0 0,0 -0.5958576647144882,-0.311724568206216 l 8.511696653065034 -15.934572261791669" fill="#ffe715" stroke="none" /><path d="M 90.10565033884886 118.52300852407294 l -2.599311671473544 4.866117925513575 a26.516840112823928,26.516840112823928 0 0,0 -0.400754293006519,-0.21852319368170506 l 2.6826887763487033 -4.820654080072105" fill="#ff4106" stroke="none" /><line stroke="#e1ed5e" stroke-width="0.3" x1="58.666819895761336" x2="56.23545636021788" y1="174.27360380694188" y2="178.64263932499728" /><path d="M 58.180547188652646 175.14741091055294 a86.0,86.0 0 0,1 -31.652253787137756,-30.449443065178592" fill="none" id="id104" stroke="none" /><text fill="#e1ed5e" style="font-size:6.75px; font-family:Arial;" text-anchor="middle"><textPath startOffset="22.20632615414155" xlink:href="#id104">August</textPath></text><path d="M 89.7882731507175 118.34994917583269 l -5.579281511278575 10.025682598121822 a32.47356499699974,32.47356499699974 0 0,0 -0.48610024758434245,-0.27602040701555564 l 5.751030525784125 -9.928159025311633" fill="#ff920d" stroke="none" /><path d="M 89.4739219176387 118.17145234162733 l -3.97242624886521 6.857706516812249 a28.92516933405227,28.92516933405227 0 0,0 -0.4286877158429354,-0.25327625875193266 l 4.089881835736527 -6.788311685766566" fill="#ff6309" stroke="none" /><path d="M 89.1626897886671 117.98757091392108 l -5.2665221921500445 8.741278006601116 a31.205204416820727,31.205204416820727 0 0,0 -0.4577072395592845,-0.2811611700305008 l 5.416208631641638 -8.649328369742237" fill="#ff810b" stroke="none" /><path d="M 88.54995079064634 117.60387380957326 l -5.71889826354833 8.792517963944654 a31.48876396412397,31.48876396412397 0 0,0 -0.45182672799028045,-0.29944611795352083 l 5.869399690278573 -8.692773824899815" fill="#ff850c" stroke="none" /><path d="M 87.65650970185807 116.9893568818739 l -8.333236321836571 11.469715812389563 a35.17734842671772,35.17734842671772 0 0,0 -0.48681267398224004,-0.3601323781647205 l 8.529433966237375 -11.324573485485075" fill="#ffb610" stroke="none" /><path d="M 87.07902340077011 116.55440617244103 l -12.308045723053866 15.769116716808654 a41.00382542288146,41.00382542288146 0 0,0 -0.5526583598034335,-0.43906522541239396 l 12.577661575574657 -15.554917577391128" fill="#ffff18" stroke="none" /><path d="M 86.79598089348748 116.32954008644616 l -5.96597510611077 7.37817999687119 a30.48843501495181,30.48843501495181 0 0,0 -0.40524918793319564,-0.3334924924447655 l 6.092094422588654 -7.274392385569244" fill="#ff780b" stroke="none" /><path d="M 86.51685102203217 116.09983520530335 l -7.895847597787954 9.42820147862343 a33.29777997888281,33.29777997888281 0 0,0 -0.4362556583586642,-0.3717865364176449 l 8.056968732723675 -9.290890551982834" fill="#ff9d0e" stroke="none" /><path d="M 86.24171649860922 115.8653595955263 l -7.463087326148784 8.606056424858243 a32.39130719564557,32.39130719564557 0 0,0 -0.4180910245110287,-0.36891671852110286 l 7.6101207035664 -8.476316564564852" fill="#ff910d" stroke="none" /><path d="M 85.97065885151581 115.62618273729859 l -7.6759800934304705 8.549672173362927 a32.48988967165121,32.48988967165121 0 0,0 -0.41293172338742357,-0.3772033387977458 l 7.822011366284748 -8.416276067978606" fill="#ff930d" stroke="none" /><path d="M 85.44109423537348 115.13401014063109 l -5.797130616345059 6.026128264906708 a29.361874505640035,29.361874505640035 0 0,0 -0.3612210322318122,-0.3535308069881671 l 5.900001600952665 -5.925447354995971" fill="#ff6909" stroke="none" /><path d="M 85.18274418774928 114.88116024355367 l -7.932721866397267 7.966934414657205 a32.24278080267808,32.24278080267808 0 0,0 -0.38992173614855125,-0.39498866009460337 l 8.068684227601352 -7.829205260581937" fill="#ff8f0d" stroke="none" /><path d="M 84.9287848128048 114.62390073753433 l -8.257361271315544 8.01228235983748 a32.50568050046518,32.50568050046518 0 0,0 -0.3861883013254682,-0.40491688997927083 l 8.39405612401997 -7.868958353275709" fill="#ff930d" stroke="none" /><path d="M 84.19399662182784 113.82643327865904 l -9.30627105111256 8.140738217164913 a33.36439645098721,33.36439645098721 0 0,0 -0.37440809225358385,-0.435521197136636 l 9.445021652936923 -7.979339920866747" fill="#ff9e0e" stroke="none" /><path d="M 83.50135304334701 112.99209946851258 l -8.072408056508058 6.356735112650177 a31.274816452043115,31.274816452043115 0 0,0 -0.3294179139022921,-0.4258170597003816 l 8.180632787628419 -6.216840058836543" fill="#ff820c" stroke="none" /><path d="M 82.44556493220864 111.52570212397912 l -0.8062461030913423 0.5293563926702269 a21.964495188796093,21.964495188796093 0 0,0 -0.204787682683074,-0.31783503126211443 l 0.8152386491514619 -0.5153997614866642" fill="#ff0000" stroke="none" /><path d="M 82.24976979558568 111.22182372390057 l -5.16809562937967 3.2673073798635395 a27.114287362311654,27.114287362311654 0 0,0 -0.24601097679641146,-0.39664802619612355 l 5.223571245844038 -3.1778630223021516" fill="#ff4a06" stroke="none" /><line stroke="#e1ed5e" stroke-width="0.3" x1="26.63291911575756" x2="22.317208475507996" y1="142.92168965132927" y2="145.44649492493687" /><path d="M 25.769776987707644 143.4266507060508 a86.0,86.0 0 0,1 -11.730757126820373,-40.83630448921669" fill="none" id="id105" stroke="none" /><text fill="#e1ed5e" style="font-size:6.75px; font-family:Arial;" text-anchor="middle"><textPath startOffset="21.46611528233685" xlink:href="#id105">September</textPath></text><path d="M 81.87401531095188 110.60418214915194 l -12.375271663487139 7.239862391815115 a35.337466868227686,35.337466868227686 0 0,0 -0.3026368036801074,-0.5276727765483719 l 12.498060463319623 -7.025769769408436" fill="#ffb811" stroke="none" /><path d="M 81.18737489456691 109.33194174019688 l -13.120347039410536 6.5083056456370665 a35.645871391337565,35.645871391337565 0 0,0 -0.2679326054406282,-0.5520205262240037 l 13.230432901465884 -6.281496163447778" fill="#ffbc11" stroke="none" /><path d="M 80.87730276802145 108.67885076344099 l -10.66669742378007 4.841088783487968 a32.71386249450152,32.71386249450152 0 0,0 -0.22830991435448614,-0.5147785848122493 l 10.748448422865835 -4.656761862183023" fill="#ff960d" stroke="none" /><path d="M 80.20201598880116 107.00284435728193 l -13.260674581523347 4.690499806164332 a35.06578397348285,35.06578397348285 0 0,0 -0.19638370073550357,-0.5707829595100142 l 13.339449113202079 -4.46154414356502" fill="#ffb410" stroke="none" /><path d="M 80.0844068197444 106.66101706037122 l -13.454649580337081 4.500074368098314 a35.187257122082485,35.187257122082485 0 0,0 -0.1871756802866802,-0.5760675097778967 l 13.530117511640011 -4.2678079583426145" fill="#ffb610" stroke="none" /><path d="M 79.97269907076064 106.31721596034903 l -7.094746444369765 2.2378974396678446 a28.4393287372161,28.4393287372161 0 0,0 -0.14324378991878586,-0.4681289934848113 l 7.132217006794681 -2.1154414736309857" fill="#ff5c08" stroke="none" /><path d="M 79.86692584326677 105.97154293290107 l -10.926937801483776 3.2409694465302454 a32.3974493932124,32.3974493932124 0 0,0 -0.1539763807405913,-0.5360119811614196 l 10.98110681911047 -3.0523999898642296" fill="#ff910d" stroke="none" /><path d="M 79.50377843672027 104.57218783832718 l -9.434021150378348 2.1044911442389322 a30.665900787922773,30.665900787922773 0 0,0 -0.11049356483329077,-0.5161891496993178 l 9.46884875393608 -1.9417881751234507" fill="#ff7a0b" stroke="none" /><path d="M 79.4281124754447 104.21870165774334 l -14.077072431060188 2.8868021337468637 a35.37002417495253,35.37002417495253 0 0,0 -0.11717595011922598,-0.597477645206619 l 14.124678314155082 -2.6440607614722897" fill="#ffb811" stroke="none" /><path d="M 79.35854240842038 103.8639653848113 l -11.191064763646333 2.0949047165908827 a32.385453715848186,32.385453715848186 0 0,0 -0.09785582165381466,-0.5488274155460828 l 11.225467027639336 -1.901958550311586" fill="#ff910d" stroke="none" /><path d="M 79.29508885075956 103.50808413554451 l -15.95819073486426 2.703835594630138 a37.18562876298281,37.18562876298281 0 0,0 -0.10149595255554764,-0.6320153934488578 l 16.002368441781098 -2.4287409714880663" fill="#ffcf13" stroke="none" /><path d="M 79.1416061653843 102.43462659150553 l -14.196961010713128 1.6570930182499484 a35.293343178236555,35.293343178236555 0 0,0 -0.0652383978339378,-0.6040265405352787 l 14.223381710048118 -1.4124701558298876" fill="#ffb711" stroke="none" /><path d="M 79.07016306316243 101.71520430193888 l -7.406111810166329 0.6069323366337233 a28.430939308454676,28.430939308454676 0 0,0 -0.0357734884254664,-0.4881008273965772 l 7.415461857256131 -0.47935837274038545" fill="#ff5c08" stroke="none" /><path d="M 79.0235259727143 100.99374915477108 l -11.38694921563449 0.5394505837224447 a32.39972014444729,32.39972014444729 0 0,0 -0.02159652277334497,-0.5573102907882532 l 11.394547871259036 -0.3433630459201947" fill="#ff910d" stroke="none" /><line stroke="#e1ed5e" stroke-width="0.3" x1="15.007084014347285" x2="10.007500721073583" y1="101.09737516637583" y2="101.16192664675087" /><path d="M 14.007167355692545 101.11028546245083 a86.0,86.0 0 0,1 10.666146001902534,-42.60595125391555" fill="none" id="id106" stroke="none" /><text fill="#e1ed5e" style="font-size:6.75px; font-family:Arial;" text-anchor="middle"><textPath startOffset="22.20632615414155" xlink:href="#id106">October</textPath></text><path d="M 79.03285615573316 98.82574320788736 l -15.296962657925812 -0.8567004849673157 a36.3209334663042,36.3209334663042 0 0,0 0.04033250964772593,-0.6239260726589846 l 15.279949557273673 1.119885621879312" fill="#ffc412" stroke="none" /><path d="M 79.05617556472873 98.46500227214037 l -9.55438599014245 -0.7002522787224947 a30.580012781958402,30.580012781958402 0 0,0 0.042994793437795185,-0.5246453817594219 l 9.540916712885156 0.864611577689695" fill="#ff790b" stroke="none" /><path d="M 79.16333360222342 97.38593545837743 l -9.48485436893376 -1.1899226591701486 a30.559203854646494,30.559203854646494 0 0,0 0.06997184699707948,-0.5213715343917522 l 9.462966522878848 1.3530125356265603" fill="#ff790b" stroke="none" /><path d="M 79.21141760316559 97.0276538004421 l -17.620910578940528 -2.5194332923845257 a38.800113307105484,38.800113307105484 0 0,0 0.10022273718084657,-0.6603426159641381 l 17.574931948320376 2.822375020740756" fill="#ffe415" stroke="none" /><path d="M 79.26566170972629 96.67025291283419 l -14.290139144228954 -2.2948670232225847 a35.47323361988257,35.47323361988257 0 0,0 0.10200774019823566,-0.6020554569770912 l 14.248519542510495 2.5405082685155036" fill="#ffba11" stroke="none" /><path d="M 79.3925641242962 95.95851677861259 l -13.542197128724672 -2.6558647473938737 a34.80017103624764,34.80017103624764 0 0,0 0.12034347252051984,-0.5868375111244077 l 13.494474360289157 2.888577914681684" fill="#ffb110" stroke="none" /><path d="M 79.54389044137918 95.25157060432595 l -13.564342133729188 -3.1486593643919774 a34.924993117191626,34.924993117191626 0 0,0 0.14097589845022152,-0.5844361126464312 l 13.50813343501815 3.381680708697805" fill="#ffb210" stroke="none" /><path d="M 79.62865764111835 94.90015583598534 l -12.821156064947413 -3.2097000178898716 a34.216815692389,34.216815692389 0 0,0 0.14795297031364524,-0.570123148433459 l 12.76400676276346 3.4299195918721943" fill="#ffa90f" stroke="none" /><path d="M 79.81627453868168 94.20196356495316 l -10.947095455508427 -3.144694889484882 a32.389820229484116,32.389820229484116 0 0,0 0.15854678634299552,-0.5345409457191267 l 10.891342772053724 3.332665221950548" fill="#ff910d" stroke="none" /><path d="M 79.91906864156998 93.8553929516997 l -13.573873794248623 -4.153498615185735 a35.19512594267974,35.19512594267974 0 0,0 0.1822512830644689,-0.577786371968582 l 13.500367027415951 4.386535153580732" fill="#ffb610" stroke="none" /><path d="M 80.02781315780177 93.51064311812611 l -10.923357781788892 -3.549214092302198 a32.48549806939013,32.48549806939013 0 0,0 0.17737500580038743,-0.5303286906262815 l 10.860645482216732 3.7367158858508014" fill="#ff930d" stroke="none" /><path d="M 80.65960295795068 91.81776055985345 l -13.058636080992287 -5.524648069225675 a35.17919999804617,35.17919999804617 0 0,0 0.2407418028581706,-0.5556652729576677 l 12.961603568291435 5.748612486769941" fill="#ffb610" stroke="none" /><path d="M 80.803312248108 91.48605970444005 l -9.812253604419892 -4.351841444349695 a31.734004134255343,31.734004134255343 0 0,0 0.22576127100634136,-0.4974350348719805 l 9.735890016450199 4.520098488063746" fill="#ff890c" stroke="none" /><path d="M 81.6062741919709 89.86733742301443 l -17.48082733312098 -9.62976869296067 a40.95774960586276,40.95774960586276 0 0,0 0.34549297012078795,-0.6145934427033063 l 17.312476721707764 9.929245645598762" fill="#fffe18" stroke="none" /><line stroke="#e1ed5e" stroke-width="0.3" x1="26.266209847984243" x2="21.928928074336255" y1="57.711370442889674" y2="55.22380399835377" /><path d="M 25.398753493254645 57.213857153982495 a86.0,86.0 0 0,1 29.58750427330803,-30.492523968695096" fill="none" id="id107" stroke="none" /><text fill="#e1ed5e" style="font-size:6.75px; font-family:Arial;" text-anchor="middle"><textPath startOffset="21.46611528233685" xlink:href="#id107">November</textPath></text><path d="M 81.78341655067845 89.55222093294921 l -9.319686604056201 -5.34513109355632 a31.743695118772088,31.743695118772088 0 0,0 0.27592878288073397,-0.47165173357229345 l 9.226298146705142 5.504762239482505" fill="#ff890c" stroke="none" /><path d="M 82.15384107792192 88.93136811851018 l -9.668563794623122 -5.996683876494476 a32.377229160270346,32.377229160270346 0 0,0 0.2978279611326064,-0.4710923109722142 l 9.563908237244553 6.162223835180906" fill="#ff910d" stroke="none" /><path d="M 82.34701348167596 88.62581576622439 l -11.939413824043395 -7.692811204324745 a35.203131580293935,35.203131580293935 0 0,0 0.33259141673657955,-0.5065595454753405 l 11.805225771948896 7.897188813777753" fill="#ffb610" stroke="none" /><path d="M 82.95767976084542 87.72973835380427 l -8.807721088781921 -6.341451207903797 a31.85310804332097,31.85310804332097 0 0,0 0.3242000045952569,-0.44220844192464104 l 8.697258471673031 6.492122093499938" fill="#ff8a0c" stroke="none" /><path d="M 83.17141714833178 87.43820079747576 l -10.847367706811191 -8.097084359982235 a34.53617971583708,34.53617971583708 0 0,0 0.35970921126655564,-0.4733351573869901 l 10.706382555320527 8.282604293250252" fill="#ffad10" stroke="none" /><path d="M 83.6137871275137 86.86637796730984 l -10.510603629823576 -8.424295258687115 a34.47002372933317,34.47002372933317 0 0,0 0.3750691619197696,-0.45979044383672724 l 10.364035975827413 8.603969872131925" fill="#ffad10" stroke="none" /><path d="M 83.84228863543731 86.58626213691792 l -8.226289501283794 -6.8292648919361065 a31.6916181152884,31.6916181152884 0 0,0 0.3520627689388558,-0.416731272109937 l 8.107516118857815 6.96985511367516" fill="#ff880c" stroke="none" /><path d="M 84.80347519578584 85.50635884689758 l -8.408244447125469 -8.019338586569988 a32.61931005045767,32.61931005045767 0 0,0 0.39102123966896346,-0.4029817592162106 l 8.268958943753388 8.162884541336323" fill="#ff940d" stroke="none" /><path d="M 86.37877921826538 84.01681056812374 l -9.260173559988722 -10.865920944459097 a35.27652101642235,35.27652101642235 0 0,0 0.4655534248573808,-0.38988760471830863 l 9.07176259817223 11.023709706571218" fill="#ffb711" stroke="none" /><path d="M 86.65592168130627 83.78471172551755 l -8.585923815051693 -10.43333428047776 a34.51194108801782,34.51194108801782 0 0,0 0.46196139756114213,-0.3735406562326595 l 8.40505901892605 10.579581033974554" fill="#ffad10" stroke="none" /><path d="M 86.93701828274178 83.55741782278169 l -8.841717578828359 -11.12921008574716 a35.213911737324764,35.213911737324764 0 0,0 0.4778484976489023,-0.3729683319222415 l 8.648836526020032 11.279756806892623" fill="#ffb610" stroke="none" /><path d="M 87.51073957382395 83.11751280151077 l -6.781747419245197 -9.16729734843473 a32.40313284729496,32.40313284729496 0 0,0 0.4512594269524778,-0.32785916484430466 l 6.622942675938938 9.282675748095702" fill="#ff910d" stroke="none" /><path d="M 88.09926311788651 82.69761687909137 l -8.029094363859187 -11.673434021234165 a35.16811272371386,35.16811272371386 0 0,0 0.5017238799336343,-0.3387662033783357 l 7.826965789519012 11.809912136911166" fill="#ffb610" stroke="none" /><line stroke="#e1ed5e" stroke-width="0.3" x1="56.762969772571076" x2="54.21961505331055" y1="26.818313649435495" y2="22.513508569990535" /><path d="M 56.25429882871897 25.957352633546506 a86.0,86.0 0 0,1 42.265352541879196,-11.944610805530505" fill="none" id="id108" stroke="none" /><text fill="#e1ed5e" style="font-size:6.75px; font-family:Arial;" text-anchor="middle"><textPath startOffset="22.20632615414155" xlink:href="#id108">December</textPath></text><path d="M 89.94658935756843 81.56283822128135 l -6.595032953429051 -12.094770006225742 a34.775990750588974,34.775990750588974 0 0,0 0.528023662510054,-0.2820519538954141 l 6.3858642443906914 12.206500686622906" fill="#ffb110" stroke="none" /><path d="M 90.58718382345135 81.22770947309562 l -5.106041432005341 -10.183147254359843 a32.39158229173329,32.39158229173329 0 0,0 0.5005713886030346,-0.245628206429836 l 4.929998776391881 10.269530620924508" fill="#ff910d" stroke="none" /><path d="M 90.91171255644093 81.06846463323043 l -4.9478123990277325 -10.306637636854106 a32.432743630178635,32.432743630178635 0 0,0 0.5053666849108706,-0.2372764347930799 l 4.769667502817253 10.390279054287193" fill="#ff920d" stroke="none" /><path d="M 91.23893434514133 80.91482961587045 l -3.8714230336521305 -8.43353664235113 a30.279679768363316,30.279679768363316 0 0,0 0.4755609445098124,-0.21337033353274998 l 3.725679970675544 8.49892730640041" fill="#ff750a" stroke="none" /><path d="M 91.56875222667455 80.76684994638697 l -4.57924922327977 -10.44606798567525 a32.405694183619765,32.405694183619765 0 0,0 0.5128065960617612,-0.2195570221494769 l 4.3987588694277004 10.523344535787512" fill="#ff910d" stroke="none" /><path d="M 91.90106846888425 80.62456947434976 l -5.520188414388343 -13.206189816590017 a35.31348768127996,35.31348768127996 0 0,0 0.5628568546674486,-0.22960344351281603 l 5.292047690132515 13.29925414628641" fill="#ffb711" stroke="none" /></svg>