<?xml version="1.0" encoding="utf-8" ?>
<svg baseProfile="full" height="200mm" version="1.1" viewBox="0,0,200,200" width="200mm" xmlns="http://www.w3.org/2000/svg" xmlns:ev="http://www.w3.org/2001/xml-events" xmlns:xlink="http://www.w3.org/1999/xlink"><defs /><rect fill="#1a1a1a" height="200" width="200" x="0" y="0" /><rect fill="#1a1a1a" height="200" width="180" x="10" y="0" /><text alignment-baseline="middle" fill="#e1ed5e" style="dominant-baseline: central; font-size:9.0px; font-family:Arial;" text-anchor="middle" x="100.0" y="100.0">2017</text><line stroke="#e1ed5e" stroke-width="0.3" x1="100.0" x2="100.0" y1="15.0" y2="10.0" /><path d="M 100.0 14.0 a86.0,86.0 0 0,1 42.46469731375804,11.215312516191453" fill="none" id="id37" stroke="none" /><text fill="#e1ed5e" style="font-size:6.75px; font-family:Arial;" text-anchor="middle"><textPath startOffset="22.20632615414155" xlink:href="#id37">January</textPath></text><path d="M 100.36148047927253 79.00311137660856 l 1.0681362727270938 -62.04356705012173 a83.05276083624375,83.05276083624375 0 0,0 1.429193125702348,0.03691184190645502 l -2.1359560336243097 62.015988416072915" fill="#4cdbff" stroke="none" /><path d="M 101.80526077348638 79.07773832637324 l 0.7552802657213898 -8.753400942641449 a29.785924899657655,29.785924899657655 0 0,0 0.5104383779887538,0.048472274502742635 l -0.9058437708003879 8.739103123623527" fill="#ff5507" stroke="none" /><path d="M 102.16513564639614 79.11191278185805 l 0.7536407840887605 -7.270728951970126 a28.309683572115727,28.309683572115727 0 0,0 0.4842752834384623,0.054413970711306985 l -0.878682771036948 7.256679027788218" fill="#ff4006" stroke="none" /><path d="M 105.01212808612495 79.60689891045804 l 3.899312073411287 -15.865329841206583 a37.3374822300173,37.3374822300173 0 0,0 0.6228089592407566,0.1587678711304135 l -4.171829921337069 15.7958589739073" fill="#ffbd11" stroke="none" /><path d="M 107.4271985657038 80.35727306442388 l 2.6105565406076376 -6.904144116171059 a28.381206637709635,28.381206637709635 0 0,0 0.4554735445014925,0.17671665906050368 l -2.7290132501087974 6.858184753220009" fill="#ff4106" stroke="none" /><path d="M 110.05341064243156 81.56283822128135 l 7.006107555599038 -12.848648387691874 a35.634661201106056,35.634661201106056 0 0,0 0.5360062413099421,0.29828689296733857 l -7.226237885981016 12.726146097164357" fill="#ffa70f" stroke="none" /><line stroke="#e1ed5e" stroke-width="0.3" x1="143.23703022742887" x2="145.7803849466894" y1="26.81831364943548" y2="22.513508569990506" /><path d="M 143.74570117128098 25.957352633546492 a86.0,86.0 0 0,1 28.547481713284135,27.462654790039103" fill="none" id="id38" stroke="none" /><text fill="#e1ed5e" style="font-size:6.75px; font-family:Arial;" text-anchor="middle"><textPath startOffset="19.985693538727396" xlink:href="#id38">February</textPath></text><path d="M 110.99172775467656 82.1063720568725 l 7.651538984593912 -12.456075590519195 a35.61847693672253,35.61847693672253 0 0,0 0.5196580550039067,0.3254098263699248 l -7.864816191970082 12.322521422826325" fill="#ffa60f" stroke="none" /><path d="M 111.60114157652 82.49532879139004 l 2.868242299128199 -4.327818780738249 a26.19199665691523,26.19199665691523 0 0,0 0.37366663059673105,0.25230137699080984 l -2.942313624131472 4.277805491448769" fill="#ff2103" stroke="none" /><path d="M 111.90073688211348 82.69761687909136 l 11.646053337194838 -16.932100817180338 a41.55058627912951,41.55058627912951 0 0,0 0.5858016537758601,0.41039149458744323 l -11.93578613055435 16.72912447982896" fill="#fff417" stroke="none" /><path d="M 112.48926042617603 83.11751280151076 l 8.731197335291412 -11.802486473226105 a35.68102495939861,35.68102495939861 0 0,0 0.49062062832711845,0.36952528562366643 l -8.933064117376913 11.650444598096591" fill="#ffa70f" stroke="none" /><path d="M 113.89432698308785 84.25364557470407 l 41.68298094926353 -47.23906327588782 a84.0,84.0 0 0,0 1.0759560496160399,0.9660039649228103 l -42.48994798647556 46.51456030219571" fill="#4dd2ff" stroke="none" /><path d="M 115.68641384162765 86.03803664274999 l 21.83125255474308 -19.431283102025198 a50.22632975760087,50.22632975760087 0 0,0 0.569251197377669,0.6507525236221031 l -22.162495615698596 19.052615022200147" fill="#a1ff22" stroke="none" /><path d="M 117.04232023915458 87.72973835380427 l 7.003362935897318 -5.042335457897282 a29.629729965756084,29.629729965756084 0 0,0 0.2944452724986678,0.416471956581722 l -7.089120828199869 4.921037000983768" fill="#ff5307" stroke="none" /><path d="M 117.65298651832404 88.62581576622439 l 12.366128936283921 -7.967752574552501 a35.71075205277033,35.71075205277033 0 0,0 0.32849199113801514,0.519595442458034 l -12.501448523667893 7.75370948438026" fill="#ffa80f" stroke="none" /><line stroke="#e1ed5e" stroke-width="0.3" x1="172.23445277983987" x2="176.4835382374775" y1="55.19839476539836" y2="52.563006222186495" /><path d="M 173.08426987136738 54.67131705675599 a86.0,86.0 0 0,1 12.851231095245387,41.99856678651699" fill="none" id="id39" stroke="none" /><text fill="#e1ed5e" style="font-size:6.75px; font-family:Arial;" text-anchor="middle"><textPath startOffset="22.20632615414155" xlink:href="#id39">March</textPath></text><path d="M 117.84615892207809 88.93136811851018 l 12.451593040135513 -7.72278787279409 a35.65208591857578,35.65208591857578 0 0,0 0.31897446201155083,0.5243101468593435 l -12.582683300433288 7.507309952727664" fill="#ffa70f" stroke="none" /><path d="M 118.3937258080291 89.86733742301442 l 6.593920178289287 -3.6324325437653764 a28.528236812339024,28.528236812339024 0 0,0 0.23324129544077388,0.43216069723809725 l -6.655469572948526 3.51839086319482" fill="#ff4306" stroke="none" /><path d="M 118.89224826269711 90.83032412892265 l 13.475199936676795 -6.540418800300472 a35.9785877644302,35.9785877644302 0 0,0 0.2656278680961976,0.5594800337627208 l -13.585785998614748 6.307496350897211" fill="#ffab0f" stroke="none" /><path d="M 119.196687751892 91.48605970444005 l 19.66387699374452 -8.72114381750441 a42.51107640055956,42.51107640055956 0 0,0 0.29091602920704673,0.6714743050766614 l -19.81108373279425 8.381370367841145" fill="#feff18" stroke="none" /><path d="M 119.61058180528143 92.48833698450437 l 13.681559441465591 -5.24060250079293 a35.65090383975246,35.65090383975246 0 0,0 0.21457669814830954,0.57495887021506 l -13.769740728115526 5.004320493548537" fill="#ffa70f" stroke="none" /><path d="M 119.85752413597 93.16781622104841 l 8.53321769119822 -2.9359406083491235 a30.02416486003728,30.02416486003728 0 0,0 0.16393580929020948,0.4901472036340703 l -8.582490794260199 2.788620301792739" fill="#ff5908" stroke="none" /><path d="M 120.08093135843002 93.85539295169968 l 14.001289702521623 -4.284284521260136 a35.642103919623274,35.642103919623274 0 0,0 0.17446657606995972,0.5882145625270356 l -14.072962175703285 4.04264057198657" fill="#ffa70f" stroke="none" /><path d="M 120.53481517161879 95.60439243477599 l 10.680030759477809 -2.286128392724418 a31.92197052053396,31.92197052053396 0 0,0 0.1103902845229471,0.5383022316454762 l -10.717800339915753 2.1019505049155303" fill="#ff740a" stroke="none" /><path d="M 120.83666639777658 97.38593545837742 l 14.924901945958869 -1.8724039738087865 a36.04189465252372,36.04189465252372 0 0,0 0.07192871818900504,0.6162413313154594 l -14.954921017151463 1.6152189041684741" fill="#ffac0f" stroke="none" /><path d="M 120.98425023603335 99.18683210126433 l 8.77776063169727 -0.34015002147778406 a29.78434879455989,29.78434879455989 0 0,0 0.015442909053086082,0.5124749694752729 l -8.782315235206001 0.1890049045775121" fill="#ff5507" stroke="none" /><line stroke="#e1ed5e" stroke-width="0.3" x1="184.98032266829074" x2="189.97916517819016" y1="98.17113171792111" y2="98.06355123074" /><path d="M 185.9800911702706 98.14961562048488 a86.0,86.0 0 0,1 -9.607161424134198,41.387399972396054" fill="none" id="id40" stroke="none" /><text fill="#e1ed5e" style="font-size:6.75px; font-family:Arial;" text-anchor="middle"><textPath startOffset="21.466115282336823" xlink:href="#id40">April</textPath></text><path d="M 120.9904718944345 100.63252640178507 l 15.510385435656323 0.467389601303652 a36.517425991511175,36.517425991511175 0 0,0 -0.024341241792628233,0.6281392927912358 l -15.500042061012492 -0.7343061411088939" fill="#ffb210" stroke="none" /><path d="M 120.9764740272857 100.99374915477107 l 6.59412062626891 0.3123929117109629 a27.60151620198514,27.60151620198514 0 0,0 -0.026567969689481077,0.47438894615821436 l -6.5877663056919 -0.42585357420460057" fill="#ff3605" stroke="none" /><path d="M 120.92983693683757 101.71520430193887 l 19.297991991455365 1.5814742839333085 a40.36268462308411,40.36268462308411 0 0,0 -0.06270708957948581,0.6919675082121287 l -19.267910305598804 -1.9134231806940079" fill="#ffe515" stroke="none" /><path d="M 120.70491114924044 103.5080841355445 l 4.5866074769547165 0.777120211233792 a25.65197635101093,25.65197635101093 0 0,0 -0.07750996002393522,0.43471701856950995 l -4.572551074591593 -0.8559559805365203" fill="#ff1902" stroke="none" /><path d="M 120.49622156327973 104.57218783832717 l 11.403083236692007 2.5437390171290084 a32.68336062484552,32.68336062484552 0 0,0 -0.1272152095696441,0.5480397932946619 l -11.35760746119181 -2.7396474677722353" fill="#ff7e0b" stroke="none" /><path d="M 120.41448212921028 104.9243191809786 l 10.357659970547985 2.4984431806890397 a31.65473314506861,31.65473314506861 0 0,0 -0.1323298771021975,0.5285920792990512 l -10.313118779150727 -2.6763630993854868" fill="#ff700a" stroke="none" /><path d="M 120.23288151984713 105.62410040840565 l 7.400560064030983 2.057121366411369 a28.681148193953586,28.681148193953586 0 0,0 -0.13631379868178667,0.4745262159016397 l -7.364053628463096 -2.1842050578175907" fill="#ff4606" stroke="none" /><path d="M 120.02730092923936 106.31721596034902 l 10.112323973687603 3.189732586957517 a31.603465948694122,31.603465948694122 0 0,0 -0.16811200196253853,0.5173955408416824 l -10.055919720708818 -3.363327027776995" fill="#ff6f0a" stroke="none" /><path d="M 119.79798401119884 107.00284435728193 l 15.63357827965208 5.5298314908153845 a37.582756289073984,37.582756289073984 0 0,0 -0.22097898125018442,0.6080392497045032 l -15.536075037396667 -5.798118537526019" fill="#ffc111" stroke="none" /><path d="M 119.12269723197855 108.67885076344098 l 6.6603247075946 3.022793462242748 a28.314178390357498,28.314178390357498 0 0,0 -0.20524460258750177,0.44207861455645736 l -6.607305488167267 -3.136992144078036" fill="#ff4006" stroke="none" /><path d="M 118.81262510543309 109.33194174019688 l 5.061872130300772 2.5109252723401685 a26.6504243368788,26.6504243368788 0 0,0 -0.20739275218538678,0.40920557541726593 l -5.017900708329116 -2.5976850594601286" fill="#ff2803" stroke="none" /><line stroke="#e1ed5e" stroke-width="0.3" x1="174.80103733775053" x2="179.2010983576182" y1="140.37084112569926" y2="142.7455964860345" /><path d="M 175.68104954172406 140.8457921977663 a86.0,86.0 0 0,1 -30.038265399797805,32.042727171017184" fill="none" id="id41" stroke="none" /><text fill="#e1ed5e" style="font-size:6.75px; font-family:Arial;" text-anchor="middle"><textPath startOffset="22.206326154141568" xlink:href="#id41">May</textPath></text><path d="M 118.30583269289576 110.29060199501025 l 4.734360292196602 2.661414986431235 a26.4311414183695,26.4311414183695 0 0,0 -0.226361334452758,0.39468006667204664 l -4.687846961591464 -2.7425148989615966" fill="#ff2503" stroke="none" /><path d="M 117.55443506779139 111.5257021239791 l 7.351697963935037 4.826898758664505 a29.794681039089678,29.794681039089678 0 0,0 -0.28517325543500455,0.4262953240599343 l -7.267521603089311 -4.952730996930246" fill="#ff5607" stroke="none" /><path d="M 116.93607887273984 112.41649034213515 l 14.643509998188252 10.7357199877075 a39.15731446887181,39.15731446887181 0 0,0 -0.40320609906527544,0.5401604606969387 l -14.456542632427883 -10.986193327913753" fill="#ffd513" stroke="none" /><path d="M 116.498646956653 112.99209946851258 l 7.461829781464571 5.875926370968536 a30.49765309982393,30.49765309982393 0 0,0 -0.32833205191595,0.4096447181260155 l -7.359579817493767 -6.003498922672802" fill="#ff6008" stroke="none" /><path d="M 116.0416608686014 113.55231037782055 l 4.905414547838571 4.1441906189593105 a27.421635910919946,27.421635910919946 0 0,0 -0.30771970963005746,0.35794754198275197 l -4.8333523286377345 -4.22801526010359" fill="#ff3304" stroke="none" /><path d="M 115.56566222782051 114.09645910891815 l 3.2651656731914382 2.9569750211925947 a25.40511159329076,25.40511159329076 0 0,0 -0.29633682571648085,0.32161509708135283 l -3.213782439479236 -3.0127413730752823" fill="#ff1502" stroke="none" /><path d="M 113.48314897796784 116.09983520530334 l 9.397255776629336 11.220989223885297 a35.6362227126381,35.6362227126381 0 0,0 -0.4736730602348301,0.3898006810755074 l -9.202712587849815 -11.381085023817983" fill="#ffa70f" stroke="none" /><path d="M 112.04921762599082 117.19931262002967 l 4.424914404883551 6.316218075628499 a28.711969804754304,28.711969804754304 0 0,0 -0.4072220254886537,0.28009102237977235 l -4.315535494772013 -6.391449887373366" fill="#ff4606" stroke="none" /><line stroke="#e1ed5e" stroke-width="0.3" x1="143.8653032363475" x2="146.44561519142675" y1="172.8068346515853" y2="177.08958963109032" /><path d="M 144.38136562736335 173.6633856474863 a86.0,86.0 0 0,1 -40.68145358897372,12.25698825130547" fill="none" id="id42" stroke="none" /><text fill="#e1ed5e" style="font-size:6.75px; font-family:Arial;" text-anchor="middle"><textPath startOffset="21.466115282336833" xlink:href="#id42">June</textPath></text><path d="M 109.2508944713604 118.85261126421891 l 3.431179165943085 6.992479180653685 a28.78895086392751,28.78895086392751 0 0,0 -0.446759732767511,0.21447182127265502 l -3.310306765175341 -7.0505052784259" fill="#ff4706" stroke="none" /><path d="M 108.2653958097858 119.30500536409082 l 2.883442043486574 6.734688259048523 a28.32599917859073,28.32599917859073 0 0,0 -0.4498823411576896,0.18805085509045247 l -2.767088242831423 -6.783324157158949" fill="#ff4006" stroke="none" /><path d="M 107.59598834532513 119.57807347666477 l 5.328999046500018 13.735083592336425 a35.73264240135039,35.73264240135039 0 0,0 -0.5753462136581262,0.21754670758698316 l -5.091782612081617 -13.82477855003004" fill="#ffa80f" stroke="none" /><path d="M 107.2578585660854 119.70592522655815 l 2.7777761490771247 7.541983436493759 a29.037260384653962,29.037260384653962 0 0,0 -0.47051484389518317,0.16870988290450395 l -2.647541744552207 -7.588680860438223" fill="#ff4b06" stroke="none" /><path d="M 106.57524785965236 119.94407469862006 l 4.5848656857206675 13.906837532355379 a35.643125469223676,35.643125469223676 0 0,0 -0.584341299680913,0.1870876312677827 l -4.344803040948814 -13.983698010282868" fill="#ffa70f" stroke="none" /><path d="M 102.70371172650421 120.8252237178851 l 1.129142611478068 8.697172580536638 a29.770163848680014,29.770163848680014 0 0,0 -0.5087474007884969,0.06160222522876486 l -0.9792677876381908 -8.715320334490753" fill="#ff5507" stroke="none" /><path d="M 102.34483914955558 120.86867818915974 l 0.9788033792664715 8.711187177272016 a29.766004682449804,29.766004682449804 0 0,0 -0.5096611910997119,0.05282846633636937 l -0.828709591561157 -8.726745012064145" fill="#ff5507" stroke="none" /><path d="M 101.98527174616119 120.90594882070398 l 2.073294329257992 21.832872613804938 a42.93109381554798,42.93109381554798 0 0,0 -0.7362798753924078,0.06352932575300012 l -1.6971701361240425 -21.8653261918366" fill="#f9ff18" stroke="none" /><line stroke="#e1ed5e" stroke-width="0.3" x1="102.19456741930631" x2="102.32365962044197" y1="184.97166512339345" y2="189.96999836594603" /><path d="M 102.22038585953345 185.97133177190398 a86.0,86.0 0 0,1 -42.740103519485714,-10.115201625700543" fill="none" id="id43" stroke="none" /><text fill="#e1ed5e" style="font-size:6.75px; font-family:Arial;" text-anchor="middle"><textPath startOffset="22.20632615414155" xlink:href="#id43">July</textPath></text><path d="M 100.54218724476979 120.99299961872073 l 0.18858446507114787 7.30181988146213 a28.30425476566787,28.30425476566787 0 0,0 -0.48715707713618694,0.008386850875039133 l -0.06286769804229296 -7.3039842096163285" fill="#ff4006" stroke="none" /><path d="M 98.37488393609728 120.93702456842531 l -0.7971208314256918 10.269628614391921 a31.300518117911842,31.300518117911842 0 0,0 -0.5368123551333226,-0.04631842878949303 l 0.9737775043005561 -10.254385933323764" fill="#ff6b09" stroke="none" /><path d="M 97.2962882734958 120.8252237178851 l -2.109431646348427 16.247806865708956 a37.3841670467557,37.3841670467557 0 0,0 -0.6374381600827933,-0.08834312063772823 l 2.3887983976180514 -16.209089179578623" fill="#ffbe11" stroke="none" /><path d="M 96.93821686468263 120.77559828337769 l -0.8657372315778827 5.874422892580632 a26.937873800866395,26.937873800866395 0 0,0 -0.45815440153853326,-0.071554295099161 l 0.9667274967249331 -5.858650290134365" fill="#ff2c04" stroke="none" /><path d="M 96.58105272829116 120.7198165907248 l -0.4841038520660615 2.933810389143187 a23.97348279615499,23.97348279615499 0 0,0 -0.4065800264403674,-0.07068914916857716 l 0.5345328499784788 -2.9250426614536034" fill="#ff0000" stroke="none" /><path d="M 95.51606077576429 120.51570834832081 l -0.9416678389801028 4.308484522067141 a25.410190154161334,25.410190154161334 0 0,0 -0.42650381092560663,-0.09707087878947265 l 1.0156917992985721 -4.291636909699982" fill="#ff1602" stroke="none" /><path d="M 94.46302465271185 120.25689768951611 l -1.9730657447356135 7.218415907409357 a28.483215662092704,28.483215662092704 0 0,0 -0.4718296648093598,-0.13334377625426003 l 2.0970265776495873 -7.183383337816575" fill="#ff4306" stroke="none" /><path d="M 91.7346041902142 119.30500536409082 l -5.815506078316035 13.582940081813621 a35.77553289100159,35.77553289100159 0 0,0 -0.5640256806339295,-0.247252283203073 l 6.048452433607708 -13.480823245316095" fill="#ffa90f" stroke="none" /><line stroke="#e1ed5e" stroke-width="0.3" x1="58.666819895761336" x2="56.23545636021788" y1="174.27360380694188" y2="178.64263932499728" /><path d="M 58.180547188652646 175.14741091055294 a86.0,86.0 0 0,1 -31.652253787137756,-30.449443065178592" fill="none" id="id44" stroke="none" /><text fill="#e1ed5e" style="font-size:6.75px; font-family:Arial;" text-anchor="middle"><textPath startOffset="22.20632615414155" xlink:href="#id44">August</textPath></text><path d="M 84.19399662182784 113.82643327865904 l -8.47631458277228 7.414726874566719 a32.26170873049645,32.26170873049645 0 0,0 -0.3620339674470138,-0.4211272944385462 l 8.602691059790073 -7.267722480966643" fill="#ff780b" stroke="none" /><path d="M 82.05923443525364 110.91462005526583 l -10.142061449741673 6.1701239504856025 a32.87147168697682,32.87147168697682 0 0,0 -0.28992500954153383,-0.48593099244700316 l 10.246767334981438 -5.994630864152488" fill="#ff810b" stroke="none" /><line stroke="#e1ed5e" stroke-width="0.3" x1="26.63291911575756" x2="22.317208475507996" y1="142.92168965132927" y2="145.44649492493687" /><path d="M 25.769776987707644 143.4266507060508 a86.0,86.0 0 0,1 -11.730757126820373,-40.83630448921669" fill="none" id="id45" stroke="none" /><text fill="#e1ed5e" style="font-size:6.75px; font-family:Arial;" text-anchor="middle"><textPath startOffset="21.46611528233685" xlink:href="#id45">September</textPath></text><path d="M 81.87401531095188 110.60418214915194 l -9.078786032136945 5.311330801030939 a31.518297899151975,31.518297899151975 0 0,0 -0.26992871246843836,-0.47064346254761313 l 9.16886674075776 -5.154267492625019" fill="#ff6e0a" stroke="none" /><path d="M 81.69416730710424 110.29060199501025 l -6.776002282992582 3.809121594267514 a28.773262780778467,28.773262780778467 0 0,0 -0.23898741933421055,-0.433831584680053 l 6.840566111778309 -3.6919194911896382" fill="#ff4706" stroke="none" /><path d="M 81.18737489456691 109.33194174019688 l -6.576984982844036 3.262492094647914 a28.34170185530549,28.34170185530549 0 0,0 -0.2130307304693595,-0.43890640238497736 l 6.632168969928114 -3.1487967362976517" fill="#ff4106" stroke="none" /><path d="M 80.32549172779594 107.34259656027581 l -10.271023672908669 3.833182616195676 a31.962993033772985,31.962993033772985 0 0,0 -0.1879359135871421,-0.5171189189286907 l 10.335483847501036 -3.6558159002608686" fill="#ff740a" stroke="none" /><path d="M 79.07016306316243 101.71520430193888 l -14.897547847018025 1.2208570106235381 a35.947488875880794,35.947488875880794 0 0,0 -0.04523125540363304,-0.6171445435828042 l 14.916355661085994 -0.9642393305439731" fill="#ffab0f" stroke="none" /><path d="M 79.04373962182676 101.35467743843564 l -16.334677318440658 1.0559240259519471 a37.36877083492106,37.36877083492106 0 0,0 -0.035969486734349326,-0.6422593485763054 l 16.35043315606254 -0.7745929610402041" fill="#ffbe11" stroke="none" /><line stroke="#e1ed5e" stroke-width="0.3" x1="15.007084014347285" x2="10.007500721073583" y1="101.09737516637583" y2="101.16192664675087" /><path d="M 14.007167355692545 101.11028546245083 a86.0,86.0 0 0,1 10.666146001902534,-42.60595125391555" fill="none" id="id46" stroke="none" /><text fill="#e1ed5e" style="font-size:6.75px; font-family:Arial;" text-anchor="middle"><textPath startOffset="22.20632615414155" xlink:href="#id46">October</textPath></text><path d="M 79.00486145842228 99.54816195383935 l -7.3201304307067625 -0.15753710912179103 a28.3218254187948,28.3218254187948 0 0,0 0.014684604225415046,-0.4873105239632462 l 7.316334132025703 0.2835177805100317" fill="#ff4006" stroke="none" /><path d="M 79.91906864156998 93.8553929516997 l -13.981362139899703 -4.278186843838872 a35.62126430777506,35.62126430777506 0 0,0 0.18445795974828313,-0.5847821400850549 l 13.905648696383217 4.518219150350341" fill="#ffa60f" stroke="none" /><path d="M 80.38941819471856 92.48833698450439 l -6.952836073828934 -2.6632234630855733 a28.445447514009246,28.445447514009246 0 0,0 0.17907960180256366,-0.45573805344160684 l 6.905962922144679 2.7825105214229433" fill="#ff4206" stroke="none" /><path d="M 80.65960295795068 91.81776055985345 l -8.144324129292565 -3.445576115068921 a29.843190051543083,29.843190051543083 0 0,0 0.20422588849224896,-0.47138150801721573 l 8.083807530957635 3.5852567676727363" fill="#ff5608" stroke="none" /><line stroke="#e1ed5e" stroke-width="0.3" x1="26.266209847984243" x2="21.928928074336255" y1="57.711370442889674" y2="55.22380399835377" /><path d="M 25.398753493254645 57.213857153982495 a86.0,86.0 0 0,1 29.58750427330803,-30.492523968695096" fill="none" id="id47" stroke="none" /><text fill="#e1ed5e" style="font-size:6.75px; font-family:Arial;" text-anchor="middle"><textPath startOffset="21.46611528233685" xlink:href="#id47">November</textPath></text><line stroke="#e1ed5e" stroke-width="0.3" x1="56.762969772571076" x2="54.21961505331055" y1="26.818313649435495" y2="22.513508569990535" /><path d="M 56.25429882871897 25.957352633546506 a86.0,86.0 0 0,1 42.265352541879196,-11.944610805530505" fill="none" id="id48" stroke="none" /><text fill="#e1ed5e" style="font-size:6.75px; font-family:Arial;" text-anchor="middle"><textPath startOffset="22.20632615414155" xlink:href="#id48">December</textPath></text><path d="M 93.94186890950719 79.89281104454417 l -2.5709256009071035 -8.53300895534976 a29.911896558953025,29.911896558953025 0 0,0 0.49427241487627777,-0.14429167174442684 l 2.4236629683074047 8.575998956012885" fill="#ff5708" stroke="none" /></svg>