<?xml version="1.0" encoding="utf-8" ?>
<svg baseProfile="full" height="200mm" version="1.1" viewBox="0,0,200,200" width="200mm" xmlns="http://www.w3.org/2000/svg" xmlns:ev="http://www.w3.org/2001/xml-events" xmlns:xlink="http://www.w3.org/1999/xlink"><defs /><rect fill="#1a1a1a" height="200" width="200" x="0" y="0" /><rect fill="#1a1a1a" height="200" width="180" x="10" y="0" /><text alignment-baseline="middle" fill="#e1ed5e" style="dominant-baseline: central; font-size:9.0px; font-family:Arial;" text-anchor="middle" x="100.0" y="100.0">2022</text><line stroke="#e1ed5e" stroke-width="0.3" x1="100.0" x2="100.0" y1="15.0" y2="10.0" /><path d="M 100.0 14.0 a86.0,86.0 0 0,1 42.46469731375804,11.215312516191453" fill="none" id="id97" stroke="none" /><text fill="#e1ed5e" style="font-size:6.75px; font-family:Arial;" text-anchor="middle"><textPath startOffset="22.20632615414155" xlink:href="#id97">January</textPath></text><path d="M 102.16513564639614 79.11191278185805 l 2.9171233797117444 -28.14286840777071 a49.293650365931214,49.293650365931214 0 0,0 0.8432343103329766,0.09474719985592296 l -3.401124393554446 28.088485254444183" fill="#d6ff1c" stroke="none" /><path d="M 103.59715602781102 79.31037775812273 l 4.684683418361257 -26.944711182756762 a48.34892538021277,48.34892538021277 0 0,0 0.8187197026016878,0.14961579252581847 l -5.147798242065846 26.860079908880206" fill="#e3ff1b" stroke="none" /><path d="M 104.66035177308747 79.52364482259891 l 9.496282375829452 -41.724157372686015 a63.79117534518254,63.79117534518254 0 0,0 1.0685821174883563,0.25289886270595624 l -10.213088180280332 41.55451259783919" fill="#30ff3a" stroke="none" /><path d="M 105.36241919743992 79.69619591428918 l 6.50238916662526 -24.620088595691474 a46.46428532933809,46.46428532933809 0 0,0 0.7715330652405694,0.2108891315606338 l -6.9252201210895405 24.50451292330455" fill="#fdff18" stroke="none" /><path d="M 105.71112130821622 79.79150937346287 l 7.184138712039031 -25.420682207033742 a47.41633837050131,47.41633837050131 0 0,0 0.7835206311571412,0.22873115778514203 l -7.620649560919599 25.293252720329896" fill="#efff19" stroke="none" /><path d="M 106.0581310904928 79.89281104454417 l 5.729879207031293 -19.01770730721244 a40.86214255688371,40.86214255688371 0 0,0 0.6717242530007671,0.20870799519345537 l -6.056388832742778 18.916259177136464" fill="#ffb210" stroke="none" /><path d="M 106.40334571778207 80.00007090966166 l 10.924431354090034 -34.120889619832575 a56.827061125063324,56.827061125063324 0 0,0 0.9290336307483035,0.3062877814304122 l -11.510147807080756 33.92778811414292" fill="#77ff27" stroke="none" /><path d="M 106.74666289553966 80.11325718540242 l 8.187519773992532 -24.133872190719213 a46.48488310680449,46.48488310680449 0 0,0 0.7555298639698806,0.2635895343213307 l -8.601731642025685 23.989361803225673" fill="#fcff18" stroke="none" /><path d="M 107.08798089147638 80.2323363322302 l 8.610078127818435 -24.012639310104575 a46.50961175722431,46.50961175722431 0 0,0 0.7512801109288603,0.27670280516876883 l -9.022140564519871 23.860873237129482" fill="#fcff18" stroke="none" /><path d="M 107.4271985657038 80.35727306442388 l 6.917833015255613 -18.29560684321123 a40.55979660907337,40.55979660907337 0 0,0 0.6509206800689117,0.25254711120722867 l -7.231736860324191 18.173817028113458" fill="#ffad10" stroke="none" /><path d="M 108.09893153111575 80.62456947434976 l 10.92225728044059 -26.129797036486355 a49.320699095681036,49.320699095681036 0 0,0 0.7804794946014914,0.33416058802565013 l -11.370420532832398 25.937916920497916" fill="#d6ff1c" stroke="none" /><path d="M 108.43124777332544 80.76684994638697 l 10.579022651525563 -24.132600007449547 a47.34953706198735,47.34953706198735 0 0,0 0.7436535240649211,0.3336556592680067 l -10.992858294057264 23.946924017665008" fill="#f0ff19" stroke="none" /><path d="M 109.08828744355905 81.06846463323043 l 11.203993191815504 -23.338697711440002 a46.88869008482706,46.88869008482706 0 0,0 0.7246060564175931,0.3555610449545608 l -11.60407051524353 23.14238150635061" fill="#f7ff19" stroke="none" /><path d="M 109.41281617654863 81.2277094730956 l 13.246331839146766 -26.417597564454297 a50.55257633896333,50.55257633896333 0 0,0 0.7745124410681082,0.39673535454150394 l -13.69910476780363 26.185669684600295" fill="#c6ff1e" stroke="none" /><path d="M 109.73455568895987 81.39251694778311 l 13.15238392926836 -25.1406195495565 a49.37315552345948,49.37315552345948 0 0,0 0.7496607241515776,0.40044279644678915 l -13.58318969994825 24.910498026607957" fill="#d5ff1c" stroke="none" /><line stroke="#e1ed5e" stroke-width="0.3" x1="143.23703022742887" x2="145.7803849466894" y1="26.81831364943548" y2="22.513508569990506" /><path d="M 143.74570117128098 25.957352633546492 a86.0,86.0 0 0,1 28.547481713284135,27.462654790039103" fill="none" id="id98" stroke="none" /><text fill="#e1ed5e" style="font-size:6.75px; font-family:Arial;" text-anchor="middle"><textPath startOffset="19.985693538727396" xlink:href="#id98">February</textPath></text><path d="M 111.2981086023043 82.29822771554956 l 30.5002626542091 -47.78753003052395 a77.69139307155868,77.69139307155868 0 0,0 1.1210978054017617,0.7291931979975813 l -31.31832748539514 47.25543790836685" fill="#44ffe8" stroke="none" /><path d="M 111.90073688211348 82.69761687909136 l 9.635989852069656 -14.009686107780569 a38.00363506041368,38.00363506041368 0 0,0 0.5357949011435946,0.37535856864751016 l -9.8757158927969 13.841742696369124" fill="#ff870c" stroke="none" /><path d="M 112.48926042617603 83.11751280151076 l 12.688037646573349 -17.1511863659496 a42.33423289177274,42.33423289177274 0 0,0 0.5821034559613216,0.43842825475983194 l -12.981387256293054 16.93024152168392" fill="#ffc712" stroke="none" /><path d="M 113.06298171725822 83.55741782278167 l 20.34597383205158 -25.609799810640638 a53.708110576974896,53.708110576974896 0 0,0 0.7189127310814357,0.5813107648385858 l -20.783789961697508 25.255782948537924" fill="#9dff22" stroke="none" /><path d="M 113.6212207817346 84.01681056812373 l 21.426918631275957 -25.14242334903776 a54.03413831014152,54.03413831014152 0 0,0 0.7027170598703859,0.6093893096307029 l -21.856529489793108 24.769869045987384" fill="#99ff23" stroke="none" /><path d="M 114.16331599549186 84.49514656593476 l 14.850265902960452 -16.25687066189772 a43.01854311952316,43.01854311952316 0 0,0 0.5424271937467223,0.5041269607364275 l -15.12790098050202 15.998839115086653" fill="#ffd113" stroke="none" /><path d="M 114.68862486808459 84.99185889309783 l 19.81096951149846 -20.241910223953962 a49.32330211151471,49.32330211151471 0 0,0 0.6016602008810275,0.599076480771462 l -20.156465512546813 19.89789789253238" fill="#d6ff1c" stroke="none" /><path d="M 115.19652480421416 85.50635884689758 l 17.283473316195504 -16.48406220181947 a44.88394348814901,44.88394348814901 0 0,0 0.5284179785286419,0.5636794566162844 l -17.56465861669461 16.18411332832513" fill="#ffeb16" stroke="none" /><path d="M 115.4437574822437 85.77008943001954 l 20.822800884713146 -19.1861724548999 a49.31427643704798,49.31427643704798 0 0,0 0.5698296564699276,0.6292201390059982 l -21.14997418179911 18.824899528624353" fill="#d6ff1c" stroke="none" /><path d="M 115.68641384162765 86.03803664274999 l 6.383695987237725 -5.681918783827576 a29.546097093029523,29.546097093029523 0 0,0 0.3348672146504721,0.3828111139966971 l -6.480555065466045 5.571192113627931" fill="#ff0000" stroke="none" /><path d="M 116.38621287248628 86.86637796730983 l 24.75560749139701 -19.841728806511558 a52.72592479817196,52.72592479817196 0 0,0 0.5615208537152704,0.7130744608829022 l -25.093482425706245 19.41266195167562" fill="#aaff21" stroke="none" /><path d="M 116.60985879189232 87.15038557335679 l 18.182927553625408 -14.066561982195811 a43.9888455651724,43.9888455651724 0 0,0 0.45816280413661936,0.6028885450035569 l -18.42236629798614 13.75148866131122" fill="#ffdf14" stroke="none" /><path d="M 117.2510076193507 88.02491185347247 l 27.70900216315849 -19.23468765870466 a54.730727982150746,54.730727982150746 0 0,0 0.5305636758716926,0.77853672622275 l -28.035990304698917 18.754872909211507" fill="#90ff24" stroke="none" /><line stroke="#e1ed5e" stroke-width="0.3" x1="172.23445277983987" x2="176.4835382374775" y1="55.19839476539836" y2="52.563006222186495" /><path d="M 173.08426987136738 54.67131705675599 a86.0,86.0 0 0,1 12.851231095245387,41.99856678651699" fill="none" id="id99" stroke="none" /><text fill="#e1ed5e" style="font-size:6.75px; font-family:Arial;" text-anchor="middle"><textPath startOffset="22.20632615414155" xlink:href="#id99">March</textPath></text><path d="M 117.84615892207809 88.93136811851018 l 39.93466857210278 -24.7684752592372 a67.99207508326418,67.99207508326418 0 0,0 0.6083160357086769,0.9999116167731329 l -40.35510040609768 24.077395869256986" fill="#36ff72" stroke="none" /><path d="M 118.3937258080291 89.86733742301442 l 22.360831385951823 -12.318045932587294 a46.5292192569279,46.5292192569279 0 0,0 0.3804138141001315,0.7048490226820157 l -22.569553299270417 11.93131592657282" fill="#fcff18" stroke="none" /><path d="M 118.56541770881063 90.18545643968196 l 31.830650492245084 -16.827162777013115 a57.00477354301174,57.00477354301174 0 0,0 0.4511264584615392,0.8714327270799321 l -32.11558638386674 16.27675732767284" fill="#75ff27" stroke="none" /><path d="M 119.04729006885535 91.15688171328212 l 25.70220097785719 -11.93280527857504 a49.33716600019401,49.33716600019401 0 0,0 0.3509932518106533,0.7733671044461689 l -25.903796546631188 11.488616165286809" fill="#d6ff1c" stroke="none" /><path d="M 119.196687751892 91.48605970444005 l 25.91478875414835 -11.493491329155027 a49.34919080159953,49.34919080159953 0 0,0 0.3377112942826656,0.77948422870712 l -26.108790758273695 11.045707955861305" fill="#d5ff1c" stroke="none" /><path d="M 119.34039704204932 91.81776055985345 l 26.056779709608712 -11.02370391671026 a49.29271667546914,49.29271667546914 0 0,0 0.32387266169894474,0.7842833396530835 l -26.242674058193856 10.573546006603873" fill="#d6ff1c" stroke="none" /><path d="M 119.47837535516314 92.15188598940014 l 18.3831012092976 -7.406812505064557 a40.819164501977866,40.819164501977866 0 0,0 0.25697889693340004,0.6539832626672918 l -18.5078736561127 7.089280237501481" fill="#ffb110" stroke="none" /><path d="M 119.61058180528143 92.48833698450437 l 26.458945018981918 -10.134869057000254 a49.33357270659754,49.33357270659754 0 0,0 0.29693034394930407,0.7956256973050362 l -26.62947995143285 9.677920222665884" fill="#d6ff1c" stroke="none" /><path d="M 119.7369772167798 92.82701384747503 l 28.454725404484982 -10.34126700651743 a51.27562057406469,51.27562057406469 0 0,0 0.2943389566556497,0.8321358665756935 l -28.628517441950443 9.849933513515122" fill="#bcff1f" stroke="none" /><path d="M 119.97218684219823 93.5106431181261 l 39.77686602747086 -12.924287226742845 a62.82387202647208,62.82387202647208 0 0,0 0.3253215033965158,1.0313580678844854 l -39.99344301463558 12.23767899243194" fill="#32ff2f" stroke="none" /><path d="M 120.08093135843002 93.85539295169968 l 28.158827273844256 -8.616379661399437 a50.44760689610572,50.44760689610572 0 0,0 0.2469388806546042,0.8325551456739688 l -28.302972051610563 8.130395128978938" fill="#c7ff1e" stroke="none" /><path d="M 120.28053869075195 94.5502522615342 l 44.028258841442145 -11.831189876586043 a66.59018129493302,66.59018129493302 0 0,0 0.2879348915714988,1.1095305932593877 l -44.225390064883946 11.071562857777804" fill="#34ff60" stroke="none" /><path d="M 120.45610955862082 95.25157060432595 l 27.57196472559599 -6.4002163961980205 a49.30505270702868,49.30505270702868 0 0,0 0.1847897332001685,0.8283761403109222 l -27.678048845798195 5.924662086337134" fill="#d6ff1c" stroke="none" /><path d="M 120.6074358757038 95.95851677861258 l 27.847564397589146 -5.46140067828884 a49.37805032497279,49.37805032497279 0 0,0 0.15639739390990964,0.8354811320295076 l -27.937447515408913 4.981241468796769" fill="#d5ff1c" stroke="none" /><path d="M 120.67395015179393 96.31383870115 l 27.93209947867951 -4.980287914886074 a49.37261794410252,49.37261794410252 0 0,0 0.14197716616750403,0.8379572715871723 l -28.013688506367238 4.498744854983064" fill="#d5ff1c" stroke="none" /><path d="M 120.73433829027371 96.67025291283417 l 44.76852762372354 -7.189420388772322 a66.3421308621749,66.3421308621749 0 0,0 0.17136521980722508,1.1290826883781881 l -44.88564873697007 6.417738588002051" fill="#34ff5c" stroke="none" /><path d="M 120.78858239683441 97.02765380044208 l 20.254930656091982 -2.8960448100160856 a41.460921079577915,41.460921079577915 0 0,0 0.09493366515492399,0.7073660735198706 l -20.301780320304744 2.5469603944315504" fill="#ffba11" stroke="none" /><path d="M 120.83666639777658 97.38593545837742 l 44.99053606013877 -5.644288907747273 a66.3432060208888,66.3432060208888 0 0,0 0.1324009688069345,1.1343306448287835 l -45.0810273819493 4.869014524593637" fill="#34ff5c" stroke="none" /><path d="M 120.87857604477298 97.74499172005257 l 32.415245597714794 -3.501036041089415 a53.603763594425345,53.603763594425345 0 0,0 0.0911847861830087,0.918218352916647 l -32.47070750958003 2.9425421574683335" fill="#9eff22" stroke="none" /><path d="M 120.94382443527127 98.46500227214037 l 22.736511693930176 -1.6663859027991688 a43.79749560774761,43.79749560774761 0 0,0 0.048634843479018176,0.7523595023291643 l -22.761827128413607 1.2747673362169694" fill="#ffdc14" stroke="none" /><line stroke="#e1ed5e" stroke-width="0.3" x1="184.98032266829074" x2="189.97916517819016" y1="98.17113171792111" y2="98.06355123074" /><path d="M 185.9800911702706 98.14961562048488 a86.0,86.0 0 0,1 -9.607161424134198,41.387399972396054" fill="none" id="id100" stroke="none" /><text fill="#e1ed5e" style="font-size:6.75px; font-family:Arial;" text-anchor="middle"><textPath startOffset="21.466115282336823" xlink:href="#id100">April</textPath></text><path d="M 120.99513854157772 99.54816195383933 l 48.75244987929139 -1.0492053508187777 a69.76373858822768,69.76373858822768 0 0,0 0.015504136734895787,1.2008124762758319 l -48.763287023144 0.20985661648248324" fill="#39ff89" stroke="none" /><path d="M 120.99980553446 99.90962569577887 l 28.300461706354497 -0.12179324859230378 a49.300723778522695,49.300723778522695 0 0,0 -0.0036522509338910002,0.8486544935063894 l -28.2983651581311 -0.36537072311777036" fill="#d6ff1c" stroke="none" /><path d="M 120.9904718944345 100.63252640178507 l 28.31248750088421 0.8531678532328457 a49.32533925434106,49.32533925434106 0 0,0 -0.032878549807218965,0.8484492779724374 l -28.293606818225786 -1.3403943782192893" fill="#d6ff1c" stroke="none" /><path d="M 120.9764740272857 100.99374915477107 l 28.30980091754139 1.3411615649488715 a49.341551516000735,49.341551516000735 0 0,0 -0.047493943286158836,0.8480362620008303 l -28.282520623367706 -1.8282695432851253" fill="#d6ff1c" stroke="none" /><path d="M 120.92983693683757 101.71520430193887 l 56.485344077698464 4.628985187555147 a77.6746998178428,77.6746998178428 0 0,0 -0.12067468764829066,1.3316351225393506 l -56.3972947937731 -5.600601698643068" fill="#44ffe8" stroke="none" /><path d="M 120.89721153311464 102.0752229133903 l 21.413549044439907 2.126498435621921 a42.51887725406081,42.51887725406081 0 0,0 -0.07859452179818646,0.7276876606875493 l -21.37377222114067 -2.4947824181942617" fill="#ffca12" stroke="none" /><path d="M 120.76222939487914 103.15116336523771 l 47.5927622850884 7.223336478510679 a69.13779816118219,69.13779816118219 0 0,0 -0.18870749037725248,1.1750817227145174 l -47.461373040349855 -8.041497430918401" fill="#38ff81" stroke="none" /><path d="M 120.70491114924044 103.5080841355445 l 25.137485442936224 4.2591061248326305 a46.49574786854501,46.49574786854501 0 0,0 -0.14049145801710783,0.7879507065262428 l -25.06044754257993 -4.691175582092091" fill="#fcff18" stroke="none" /><path d="M 120.5718875245553 104.21870165774334 l 46.09389310683971 9.452529964961125 a68.05313278075386,68.05313278075386 0 0,0 -0.24520503379375497,1.1455162849253802 l -45.92435403432151 -10.244560069302674" fill="#36ff73" stroke="none" /><path d="M 120.49622156327973 104.57218783832717 l 27.6745770747033 6.173497117073457 a49.354792944371994,49.354792944371994 0 0,0 -0.19210632589941481,0.8275890240850136 l -27.564210182873335 -6.648954798507035" fill="#d5ff1c" stroke="none" /><path d="M 120.23288151984713 105.62410040840565 l 49.111575987454366 13.651463055202754 a71.97361415005875,71.97361415005875 0 0,0 -0.3420712686711756,1.1907949617788358 l -48.869312081897085 -14.494815492486172" fill="#3cffa4" stroke="none" /><path d="M 120.13307415673323 105.97154293290107 l 21.717699018078225 6.441548423289608 a43.65285846707697,43.65285846707697 0 0,0 -0.21987160616170112,0.7185531306224315 l -21.60360063941039 -6.814428526464097" fill="#ffda14" stroke="none" /><path d="M 119.9155931802556 106.66101706037122 l 46.32094848120087 15.492615524590445 a69.84313057115449,69.84313057115449 0 0,0 -0.3911520262284245,1.1368708824247042 l -46.04740562402922 -16.28765911010445" fill="#39ff8a" stroke="none" /><path d="M 119.41010516605496 108.01547362559984 l 29.13283620264886 12.030510820190102 a52.51912650764737,52.51912650764737 0 0,0 -0.35225083034472054,0.8326169097217746 l -28.921434391111834 -12.53020225557804" fill="#acff20" stroke="none" /><path d="M 119.26925614724726 108.34839909993367 l 25.97061730592891 11.251761691512508 a49.303270207055625,49.303270207055625 0 0,0 -0.3440873238450963,0.7758260788700972 l -25.77308889735254 -11.697136106875293" fill="#d6ff1c" stroke="none" /><path d="M 119.12269723197855 108.67885076344098 l 26.66239624232517 12.100748925517971 a50.279882136736475,50.279882136736475 0 0,0 -0.3644702058815633,0.7850363986772134 l -26.450151419603777 -12.557905391474014" fill="#c9ff1d" stroke="none" /><path d="M 118.81262510543309 109.33194174019688 l 26.062908258731742 12.9284212111546 a50.09328551257316,50.09328551257316 0 0,0 -0.3898243501543297,0.769160425500174 l -25.836505238791144 -13.375135848357468" fill="#ccff1d" stroke="none" /><line stroke="#e1ed5e" stroke-width="0.3" x1="174.80103733775053" x2="179.2010983576182" y1="140.37084112569926" y2="142.7455964860345" /><path d="M 175.68104954172406 140.8457921977663 a86.0,86.0 0 0,1 -30.038265399797805,32.042727171017184" fill="none" id="id101" stroke="none" /><text fill="#e1ed5e" style="font-size:6.75px; font-family:Arial;" text-anchor="middle"><textPath startOffset="22.206326154141568" xlink:href="#id101">May</textPath></text><path d="M 118.48025628344425 109.97397251340804 l 34.88567419590796 18.828134751215995 a60.642261821356584,60.642261821356584 0 0,0 -0.5036876688506026,0.9143394249371769 l -34.55641011760585 -19.425844694550975" fill="#4aff2c" stroke="none" /><path d="M 118.30583269289576 110.29060199501025 l 24.676282990266653 13.871743024704008 a49.30802354031711,49.30802354031711 0 0,0 -0.42228331463797675,0.7362865534378317 l -24.433847679476298 -14.294449424000156" fill="#d6ff1c" stroke="none" /><path d="M 118.12598468904814 110.60418214915192 l 24.433261564878205 14.294106531403418 a49.307344492708324,49.307344492708324 0 0,0 -0.4348887223135845,0.7288985133501384 l -24.18359196686639 -14.71256713863966" fill="#d6ff1c" stroke="none" /><path d="M 117.75023020441432 111.22182372390056 l 29.71741084255624 18.787561747957646 a56.158170936762346,56.158170936762346 0 0,0 -0.5235950833837307,0.8126311969333763 l -29.38961089579546 -19.296314544812475" fill="#7fff26" stroke="none" /><path d="M 117.35343817320211 111.8261652097733 l 39.797272141740585 27.121375634560312 a69.16006526402018,69.16006526402018 0 0,0 -0.6788853863872655,0.977985032755561 l -39.32452584819118 -27.802401929502892" fill="#38ff81" stroke="none" /><path d="M 117.14729908036423 112.12312394758627 l 13.92124130704356 9.842304206544583 a38.049102956551735,38.049102956551735 0 0,0 -0.38270187744785344,0.531539435722966 l -13.749759637220103 -10.080477247718681" fill="#ff870c" stroke="none" /><path d="M 116.498646956653 112.99209946851258 l 24.54026357179821 19.32458741289397 a52.23562413098074,52.23562413098074 0 0,0 -0.562358998507142,0.7016293172865697 l -24.203986661236215 -19.744144563758788" fill="#b0ff20" stroke="none" /><path d="M 116.27256486870786 113.27417163493432 l 21.924298140578827 17.884512911247295 a49.293650365931214,49.293650365931214 0 0,0 -0.542004811873458,0.6528797116692112 l -21.61319732881183 -18.25925388003028" fill="#d6ff1c" stroke="none" /><path d="M 116.0416608686014 113.55231037782055 l 21.626856869523635 18.27079372848246 a49.31153195296248,49.31153195296248 0 0,0 -0.5533634223454997,0.6436866754159561 l -21.30915093760736 -18.640357503059942" fill="#d6ff1c" stroke="none" /><path d="M 115.80600337817218 113.82643327865902 l 12.780226267487121 11.17960951581237 a37.979924981407024,37.979924981407024 0 0,0 -0.43467327906196085,0.4883600369659066 l -12.585894138776823 -11.397943722519143" fill="#ff860c" stroke="none" /><path d="M 114.81725581225074 114.88116024355365 l 30.638358067131666 30.770496357321427 a64.42271791500048,64.42271791500048 0 0,0 -0.7925529638771975,0.7756798854407642 l -30.104155150878675 -31.293326345684765" fill="#31ff42" stroke="none" /><path d="M 114.55890576462653 115.13401014063108 l 10.203274002523468 10.60632266725773 a35.717366642594605,35.717366642594605 0 0,0 -0.4467463003302244,0.4224265114603389 l -10.019191867802435 -10.78038381546399" fill="#ff6409" stroke="none" /><path d="M 114.29624159901734 115.38237550388516 l 19.28968671081182 20.75518955684172 a49.33495909546548,49.33495909546548 0 0,0 -0.6270248956958845,0.5727723756014064 l -18.929562265649075 -21.08415469902971" fill="#d6ff1c" stroke="none" /><path d="M 113.20401910651253 116.32954008644616 l 23.372691435304997 28.905237007170307 a58.17250908091445,58.17250908091445 0 0,0 -0.7840615631040327,0.6229059252155476 l -22.871672379483613 -29.303276846390983" fill="#67ff28" stroke="none" /><path d="M 112.92097659922987 116.55440617244103 l 19.347796574875908 24.788473269222493 a52.44528008019229,52.44528008019229 0 0,0 -0.7164306752914099,0.5493284916422353 l -18.918237171091004 -25.1178411026921" fill="#adff20" stroke="none" /><path d="M 112.63410532772338 116.77436683061366 l 32.51429772516399 43.16940085063932 a75.0442108496718,75.0442108496718 0 0,0 -1.03852264552347,0.7682742255883105 l -31.76639010922196 -43.7226850249674" fill="#40ffc9" stroke="none" /><path d="M 112.34349029814194 116.9893568818739 l 16.637026457105907 22.898902425961147 a49.30460000862283,49.30460000862283 0 0,0 -0.6909045901847308,0.49294208044218657 l -16.240394539072295 -23.181888768247553" fill="#d6ff1c" stroke="none" /><path d="M 111.1453310114006 117.79835938074945 l 13.514661379248817 21.582023888833586 a46.46428532933809,46.46428532933809 0 0,0 -0.6815222067483909,0.4186466030898932 l -13.141159972568119 -21.811458958751857" fill="#fdff18" stroke="none" /><line stroke="#e1ed5e" stroke-width="0.3" x1="143.8653032363475" x2="146.44561519142675" y1="172.8068346515853" y2="177.08958963109032" /><path d="M 144.38136562736335 173.6633856474863 a86.0,86.0 0 0,1 -40.68145358897372,12.25698825130547" fill="none" id="id102" stroke="none" /><text fill="#e1ed5e" style="font-size:6.75px; font-family:Arial;" text-anchor="middle"><textPath startOffset="21.466115282336833" xlink:href="#id102">June</textPath></text><path d="M 110.8373102113329 117.98757091392108 l 14.769174477703007 24.513607904288428 a49.61897075783869,49.61897075783869 0 0,0 -0.7353818050639327,0.4344765325840987 l -14.345024801610693 -24.764203009166277" fill="#d2ff1c" stroke="none" /><path d="M 109.2508944713604 118.85261126421891 l 12.482131590893305 25.43762393576765 a49.33507227006693,49.33507227006693 0 0,0 -0.765603575052753,0.3675362416779578 l -12.04241534784032 -25.648714453945168" fill="#d6ff1c" stroke="none" /><path d="M 108.92500713936063 119.00905698771935 l 13.808511367819728 29.410259891989256 a53.49058899296162,53.49058899296162 0 0,0 -0.836827162354233,0.3841463064564027 l -13.300216209698076 -29.643593268779735" fill="#a0ff22" stroke="none" /><path d="M 108.59647513512805 119.15986991738527 l 13.177155606974967 29.369315136979534 a53.1899689578236,53.1899689578236 0 0,0 -0.8385761446443456,0.3676071383308488 l -12.669658787672867 -29.59178682860484" fill="#a4ff21" stroke="none" /><path d="M 108.2653958097858 119.30500536409082 l 6.2362191780829965 14.56557525557366 a36.84444420492148,36.84444420492148 0 0,0 -0.5851749381568899,0.24460317160867268 l -5.984572780428645 -14.670763470202306" fill="#ff750a" stroke="none" /><path d="M 107.59598834532513 119.57807347666477 l 15.96913127500165 41.159202890681335 a65.14853492783772,65.14853492783772 0 0,0 -1.0489837968067284,0.39663591397682524 l -15.258277257434647 -41.42798705476479" fill="#32ff4c" stroke="none" /><path d="M 107.2578585660854 119.70592522655815 l 10.09764231178903 27.416266457775297 a50.21667412181898,50.21667412181898 0 0,0 -0.81370247304219,0.29176475668562546 l -9.624220278117106 -27.586018755500884" fill="#caff1d" stroke="none" /><path d="M 106.57524785965236 119.94407469862006 l 13.474697529386752 40.87151994930408 a64.03543442879162,64.03543442879162 0 0,0 -1.0498111062696032,0.3361163642854628 l -12.769165078026209 -41.09740916024925" fill="#31ff3d" stroke="none" /><path d="M 106.2309692047433 120.05430185196036 l 6.744328882882895 21.706544000132016 a43.730156719876696,43.730156719876696 0 0,0 -0.7207667434475894,0.2171611072610055 l -6.36968716499506 -21.81942047649875" fill="#ffdb14" stroke="none" /><path d="M 105.88484417918355 120.15858648285463 l 11.128078152351751 38.119331454120235 a60.71042122508812,60.71042122508812 0 0,0 -1.0056792054975596,0.2842149889316761 l -10.470267778749585 -38.30523523639043" fill="#49ff2c" stroke="none" /><path d="M 105.18746579009965 120.34920634021253 l 10.495061248651934 41.16965307213795 a63.48631126248963,63.48631126248963 0 0,0 -1.0612695729746222,0.2608342404767349 l -9.784838390934102 -41.344208570928714" fill="#30ff36" stroke="none" /><path d="M 104.48393922423573 120.51570834832081 l 6.043382453553329 27.65074762483924 a49.30346826260819,49.30346826260819 0 0,0 -0.8306660977360213,0.1740741571957708 l -5.56652489438793 -27.750677762761555" fill="#d6ff1c" stroke="none" /><path d="M 104.13013068566511 120.58985236759428 l 3.3437033122145303 16.669292765598364 a38.00134327473404,38.00134327473404 0 0,0 -0.6424622643956355,0.12312942204450014 l -3.0562734332471906 -16.72437938599133" fill="#ff870c" stroke="none" /><path d="M 103.7750983002368 120.6578951692458 l 6.1052379210425975 33.408763143542686 a54.96202857389223,54.96202857389223 0 0,0 -0.9321325241225856,0.16206318746021345 l -5.529256425447962 -33.5089049095239" fill="#8dff24" stroke="none" /><path d="M 103.41894727170886 120.7198165907248 l 6.845435227913592 41.48533192650362 a63.04631670564903,63.04631670564903 0 0,0 -1.072280155182717,0.16746810768435932 l -6.130319209122358 -41.59701834153509" fill="#2fff30" stroke="none" /><path d="M 103.06178313531738 120.77559828337769 l 4.647708882794703 31.53682949430048 a52.87746558953189,52.87746558953189 0 0,0 -0.9016146951482655,0.12495558121573694 l -4.104165596459606 -31.612159641008823" fill="#a8ff21" stroke="none" /><path d="M 101.98527174616119 120.90594882070398 l 4.12520251022928 43.440537911574495 a64.63596715780851,64.63596715780851 0 0,0 -1.1085243261978965,0.09564814329145974 l -3.376833866289841 -43.50511030714462" fill="#32ff45" stroke="none" /><path d="M 101.62511606390274 120.93702456842531 l 1.9705913878338102 25.387922264654474 a46.46428532933809,46.46428532933809 0 0,0 -0.7979405515977399,0.05503065223849155 l -1.5332880754571399 -25.41808126140925" fill="#fdff18" stroke="none" /><path d="M 100.90346689309514 120.98055641714683 l 2.19141262045464 50.88958595835828 a71.93674752363194,71.93674752363194 0 0,0 -1.2375848974765273,0.042624926190845285 l -1.3151073713034602 -50.91976768297522" fill="#3cffa4" stroke="none" /><line stroke="#e1ed5e" stroke-width="0.3" x1="102.19456741930631" x2="102.32365962044197" y1="184.97166512339345" y2="189.96999836594603" /><path d="M 102.22038585953345 185.97133177190398 a86.0,86.0 0 0,1 -42.740103519485714,-10.115201625700543" fill="none" id="id103" stroke="none" /><text fill="#e1ed5e" style="font-size:6.75px; font-family:Arial;" text-anchor="middle"><textPath startOffset="22.20632615414155" xlink:href="#id103">July</textPath></text><path d="M 98.73552117531835 120.96189622390904 l -2.0747755739184734 34.39458962812598 a55.4571108679953,55.4571108679953 0 0,0 -0.952376159933839,-0.06568143598242653 l 2.6665144946312425 -34.353779847627266" fill="#87ff25" stroke="none" /><path d="M 98.37488393609728 120.93702456842531 l -2.6352718629501313 33.951268444522434 a55.05338877092383,55.05338877092383 0 0,0 -0.9441805139729629,-0.08146786764999493 l 3.219296694664636 -33.900876324593774" fill="#8cff24" stroke="none" /><path d="M 98.01472825383883 120.90594882070398 l -3.220559195424776 33.91417111727323 a55.06674337389655,55.06674337389655 0 0,0 -0.9428669489684824,-0.09773201441093701 l 3.8038587409988516 -33.85370973440653" fill="#8cff24" stroke="none" /><path d="M 97.65516085044442 120.86867818915974 l -5.21658597542147 46.42674700641511 a67.7188998889811,67.7188998889811 0 0,0 -1.15725981482303,-0.14012804714174873 l 6.01497321329589 -46.33007343054801" fill="#36ff6e" stroke="none" /><path d="M 97.2962882734958 120.8252237178851 l -6.239611042497005 48.06033668411682 a69.46368442609699,69.46368442609699 0 0,0 -1.18442663541933,-0.16415073914903033 l 7.065966269103166 -47.94581137947519" fill="#38ff85" stroke="none" /><path d="M 96.93821686468263 120.77559828337769 l -4.988845719184903 33.851598881705506 a55.21723730019294,55.21723730019294 0 0,0 -0.9391246130593803,-0.1466719504867281 l 5.5708061958528 -33.76070862387167" fill="#8aff24" stroke="none" /><path d="M 96.22490169976321 120.6578951692458 l -6.111778842302834 33.44455603023288 a54.99841420826282,54.99841420826282 0 0,0 -0.9298199138635014,-0.17820219948198188 l 6.6865663707380305 -33.33439663240243" fill="#8dff24" stroke="none" /><path d="M 95.86986931433489 120.58985236759428 l -6.726542413892339 33.53368834722507 a55.20167579249168,55.20167579249168 0 0,0 -0.9300392494662038,-0.1948987673278918 l 7.3027731247879295 -33.41293359917064" fill="#8bff24" stroke="none" /><path d="M 95.51606077576429 120.51570834832081 l -6.127271752716542 28.034572719050068 a49.69635389158951,49.69635389158951 0 0,0 -0.8341411140679476,-0.18984780183154998 l 6.608933016177352 -27.924948183640833" fill="#d1ff1c" stroke="none" /><path d="M 95.16358092515715 120.4354850818985 l -13.254141651567508 56.0031729679625 a78.55021853476616,78.55021853476616 0 0,0 -1.3130855333015543,-0.3227244768732184 l 14.216180469612272 -55.76672723277525" fill="#45fff1" stroke="none" /><path d="M 94.11515582081647 120.15858648285463 l -10.608261455822072 36.3386947009346 a58.8554612134473,58.8554612134473 0 0,0 -0.9700641912778841,-0.2922723832741255 l 11.232200621540201 -36.15070694855475" fill="#5fff29" stroke="none" /><path d="M 93.76903079525671 120.05430185196036 l -8.487678201631876 27.317493488533835 a49.60570103581706,49.60570103581706 0 0,0 -0.813246858496764,-0.2603759626013219 l 8.95664640521958 -27.167344679272805" fill="#d2ff1c" stroke="none" /><path d="M 92.06813273071674 119.44442032107085 l -16.050474582790105 39.34662085799583 a63.49440324649428,63.49440324649428 0 0,0 -1.0084378878515634,-0.42152711890868927 l 16.72538393013913 -39.064508696067165" fill="#30ff36" stroke="none" /><path d="M 91.7346041902142 119.30500536409082 l -10.497516831312499 24.51844090735365 a47.67117927934725,47.67117927934725 0 0,0 -0.7515686606702883,-0.32946561427087223 l 10.91800616664053 -24.334110739788326" fill="#ecff1a" stroke="none" /><path d="M 91.40352486487194 119.15986991738527 l -13.510733811118813 30.112796028648017 a54.00485438201279,54.00485438201279 0 0,0 -0.8448725261148249,-0.38783953835871665 l 14.027074333001057 -29.875769419955226" fill="#99ff23" stroke="none" /><path d="M 91.07499286063937 119.00905698771935 l -8.417367717150322 17.927853739886427 a40.80555525615185,40.80555525615185 0 0,0 -0.6332387396760012,-0.3039930768993219 l 8.724719124826565 -17.780306386487542" fill="#ffb110" stroke="none" /><path d="M 90.42595943632237 118.69057910512821 l -24.67251366775999 48.16603453500392 a75.11746311046919,75.11746311046919 0 0,0 -1.1457527054006498,-0.5994036638485774 l 25.497957275687135 -47.73420145221062" fill="#40ffca" stroke="none" /><path d="M 90.10565033884886 118.52300852407294 l -8.020329313078197 15.01469356953527 a38.022535218858124,38.022535218858124 0 0,0 -0.5746421577803227,-0.31334072206747315 l 8.27759428272716 -14.87441219570803" fill="#ff870c" stroke="none" /><line stroke="#e1ed5e" stroke-width="0.3" x1="58.666819895761336" x2="56.23545636021788" y1="174.27360380694188" y2="178.64263932499728" /><path d="M 58.180547188652646 175.14741091055294 a86.0,86.0 0 0,1 -31.652253787137756,-30.449443065178592" fill="none" id="id104" stroke="none" /><text fill="#e1ed5e" style="font-size:6.75px; font-family:Arial;" text-anchor="middle"><textPath startOffset="22.20632615414155" xlink:href="#id104">August</textPath></text><path d="M 89.7882731507175 118.34994917583269 l -16.68019766004751 29.97345932007782 a55.302146544941095,55.302146544941095 0 0,0 -0.8278237123003015,-0.4700599087158692 l 17.19367013926902 -29.681896245567316" fill="#89ff24" stroke="none" /><path d="M 89.4739219176387 118.17145234162733 l -11.834264675686212 20.42981012204264 a44.609891190704595,44.609891190704595 0 0,0 -0.661144352784534,-0.3906157372365356 l 12.184176899499128 -20.223075812512356" fill="#ffe815" stroke="none" /><path d="M 89.1626897886671 117.98757091392108 l -15.79238899703373 26.211920803680044 a51.60170489453205,51.60170489453205 0 0,0 -0.756876115546222,-0.46493512844590446 l 16.241244312512258 -25.936197208405762" fill="#b8ff1f" stroke="none" /><path d="M 88.8546689885994 117.79835938074946 l -15.196485906444222 24.267786861666217 a49.63317417032239,49.63317417032239 0 0,0 -0.7201967329462773,-0.45966362989536946 l 15.611964441437424 -24.002608802947044" fill="#d2ff1c" stroke="none" /><path d="M 88.54995079064634 117.60387380957326 l -17.11518681209211 26.31373746596756 a52.390164049279456,52.390164049279456 0 0,0 -0.7517372364386645,-0.49821044933293207 l 17.565598747270737 -26.015228995543307" fill="#aeff20" stroke="none" /><path d="M 87.65650970185807 116.9893568818739 l -24.97021618170328 34.368554102753144 a63.48186915938217,63.48186915938217 0 0,0 -0.8785135849351753,-0.649903347841476 l 25.558114737057018 -33.9336408061719" fill="#30ff36" stroke="none" /><path d="M 87.07902340077011 116.55440617244103 l -36.767759542555645 47.10699851854765 a80.75732131886136,80.75732131886136 0 0,0 -1.088464509881927,-0.8647420362096369 l 37.57318154515493 -46.467122568332876" fill="#48f4ff" stroke="none" /><path d="M 86.79598089348748 116.32954008644616 l -17.813602562955886 22.030257211028697 a49.3311960399668,49.3311960399668 0 0,0 -0.6557052575891757,-0.5396007868092234 l 18.190177949089748 -21.720361305362292" fill="#d6ff1c" stroke="none" /><path d="M 86.51685102203217 116.09983520530335 l -23.638091983208746 28.225556664791956 a57.81632031645774,57.81632031645774 0 0,0 -0.7574888445874687,-0.6455484267269803 l 24.12044630437327 -27.814483847842023" fill="#6bff28" stroke="none" /><path d="M 86.24171649860922 115.8653595955263 l -22.263006850508283 25.672578219897442 a54.981211668840345,54.981211668840345 0 0,0 -0.7096703747286061,-0.6262015937383812 l 22.701619578143475 -25.28555348438677" fill="#8dff24" stroke="none" /><path d="M 85.97065885151581 115.62618273729859 l -22.727685388424792 25.314586146030727 a55.02022861269496,55.02022861269496 0 0,0 -0.6992820859602352,-0.6387776057064415 l 23.16006702385188 -24.91961577373771" fill="#8dff24" stroke="none" /><path d="M 85.70375840098266 115.38237550388516 l -18.298486584857336 19.688684599484386 a47.878967847634655,47.878967847634655 0 0,0 -0.5988613876156124,-0.5662608210336991 l 18.634683806863766 -19.37078914170476" fill="#e9ff1a" stroke="none" /><path d="M 85.44109423537348 115.13401014063109 l -17.708304636182966 18.40781623770971 a46.54274362180281,46.54274362180281 0 0,0 -0.5725866681549503,-0.560396568308289 l 18.02254125671371 -18.10026956647885" fill="#fbff18" stroke="none" /><path d="M 85.18274418774928 114.88116024355367 l -21.98670059393984 22.081525682707085 a52.16101377496578,52.16101377496578 0 0,0 -0.6307989740361919,-0.6389960303435925 l 22.363540193031564 -21.699789158382828" fill="#b1ff20" stroke="none" /><path d="M 84.9287848128048 114.62390073753433 l -24.46339320743468 23.737318426237326 a55.08691674660745,55.08691674660745 0 0,0 -0.6544678491910167,-0.6862069233488002 l 24.868367608004657 -23.312704386306024" fill="#8cff24" stroke="none" /><path d="M 84.19399662182784 113.82643327865904 l -27.704992612515102 24.235173350126114 a57.80910543561443,57.80910543561443 0 0,0 -0.6487213671864356,-0.7546095084232177 l 28.118056489272316 -23.754686742541367" fill="#6bff28" stroke="none" /><path d="M 83.72743513129214 113.27417163493432 l -21.200796301939725 17.29432398517614 a48.35995990385548,48.35995990385548 0 0,0 -0.5206343194288978,-0.6495713646737626 l 21.49534853342348 -16.926824786924115" fill="#e3ff1b" stroke="none" /><path d="M 83.50135304334701 112.99209946851258 l -23.008336540226928 18.11824919467717 a50.28573892236222,50.28573892236222 0 0,0 -0.5296601257513599,-0.6846571114370995 l 23.316803483196356 -17.719514089126815" fill="#c9ff1d" stroke="none" /><path d="M 82.44556493220864 111.52570212397912 l -26.0733321938672 17.118947951645918 a52.1909767507033,52.1909767507033 0 0,0 -0.48660663920901837,-0.7552243101686004 l 26.364143696453265 -16.66760204155587" fill="#b0ff20" stroke="none" /><path d="M 82.24976979558568 111.22182372390057 l -31.300858911668826 19.788629052601035 a58.03152182114102,58.03152182114102 0 0,0 -0.5265265200384754,-0.8489283999957736 l 31.636850071375257 -19.24690432124" fill="#68ff28" stroke="none" /><path d="M 82.05923443525364 110.91462005526583 l -21.851391064771864 13.293726529689888 a46.577459930801815,46.577459930801815 0 0,0 -0.41081125431351456,-0.6885432920486512 l 22.07698319478361 -12.915621143755125" fill="#fbff18" stroke="none" /><line stroke="#e1ed5e" stroke-width="0.3" x1="26.63291911575756" x2="22.317208475507996" y1="142.92168965132927" y2="145.44649492493687" /><path d="M 25.769776987707644 143.4266507060508 a86.0,86.0 0 0,1 -11.730757126820373,-40.83630448921669" fill="none" id="id105" stroke="none" /><text fill="#e1ed5e" style="font-size:6.75px; font-family:Arial;" text-anchor="middle"><textPath startOffset="21.46611528233685" xlink:href="#id105">September</textPath></text><path d="M 81.87401531095188 110.60418214915194 l -37.03184369374031 21.664611472645337 a63.903529430785646,63.903529430785646 0 0,0 -0.5472820098545054,-0.9542323147192372 l 37.399277699747195 -21.02395931206779" fill="#31ff3b" stroke="none" /><path d="M 81.18737489456691 109.33194174019688 l -39.32902087461111 19.509033398792578 a64.90187088394754,64.90187088394754 0 0,0 -0.48783566469729095,-1.0050859614273746 l 39.65900979592312 -18.829158481399922" fill="#32ff49" stroke="none" /><path d="M 80.87730276802145 108.67885076344099 l -31.836182682590643 14.4488758582547 a55.96158665401986,55.96158665401986 0 0,0 -0.390555687463316,-0.8805999715394769 l 32.08017945478524 -13.898727550222528" fill="#81ff25" stroke="none" /><path d="M 80.20201598880116 107.00284435728193 l -39.72387059164125 14.050929774704255 a63.13566805350464,63.13566805350464 0 0,0 -0.35358730750556366,-1.0276902261609964 l 39.959848730090044 -13.365066845453962" fill="#2fff31" stroke="none" /><path d="M 80.0844068197444 106.66101706037122 l -40.27027520634814 13.46889282922612 a63.4629972945881,63.4629972945881 0 0,0 -0.3375861224542998,-1.038983251456432 l 40.49615357981869 -12.773710677791883" fill="#30ff35" stroke="none" /><path d="M 79.97269907076064 106.31721596034903 l -27.10197730826694 8.548782694868294 a49.41828389579314,49.41828389579314 0 0,0 -0.2489110183269696,-0.813455609787676 l 27.24511509910004 -8.08100011252857" fill="#d5ff1c" stroke="none" /><path d="M 79.86692584326677 105.97154293290107 l -60.399222470199675 17.914628798703227 a84.0,84.0 0 0,0 -0.3992294524555837,-1.389770097981616 l 60.698644559541364 -16.872301225217015" fill="#4dd2ff" stroke="none" /><path d="M 79.50377843672027 104.57218783832718 l -28.163636976249048 6.282593992668679 a49.85587349235263,49.85587349235263 0 0,0 -0.17963774252531117,-0.8392077285944121 l 28.2676087574988 -5.796872444658103" fill="#cfff1d" stroke="none" /><path d="M 79.4281124754447 104.21870165774334 l -42.15898773146911 8.645594198356122 a64.03633982560333,64.03633982560333 0 0,0 -0.21214345017429637,-1.0817148819973532 l 42.30156111461907 -7.918615589290813" fill="#31ff3d" stroke="none" /><path d="M 79.35854240842038 103.8639653848113 l -33.40289852662838 6.25283573539436 a54.98310734341486,54.98310734341486 0 0,0 -0.1661368462945691,-0.9317836633306806 l 33.50558181526213 -5.676933321330465" fill="#8dff24" stroke="none" /><path d="M 79.29508885075956 103.50808413554451 l -47.7307375138415 8.087136517670555 a69.41100164911563,69.41100164911563 0 0,0 -0.18945318297870772,-1.1797251512556175 l 47.862872451181495 -7.264332136721722" fill="#38ff84" stroke="none" /><path d="M 79.1416061653843 102.43462659150553 l -42.399659113376124 4.948959079336383 a63.68750741024176,63.68750741024176 0 0,0 -0.11772392670477565,-1.089977353011004 l 42.47856534158195 -4.218385404440597" fill="#30ff38" stroke="none" /><path d="M 79.07016306316243 101.71520430193888 l -52.68802258132613 4.317793935273639 a73.86464856591613,73.86464856591613 0 0,0 -0.09294086705528434,-1.268104289106609 l 52.75454000704575 -3.4102165096702692" fill="#3fffbb" stroke="none" /><path d="M 79.0235259727143 100.99374915477108 l -33.93763196608714 1.6077770285588373 a54.975694407018985,54.975694407018985 0 0,0 -0.036644879367734834,-0.9456415086200294 l 33.96027897830607 -1.0233582729248112" fill="#8dff24" stroke="none" /><line stroke="#e1ed5e" stroke-width="0.3" x1="15.007084014347285" x2="10.007500721073583" y1="101.09737516637583" y2="101.16192664675087" /><path d="M 14.007167355692545 101.11028546245083 a86.0,86.0 0 0,1 10.666146001902534,-42.60595125391555" fill="none" id="id106" stroke="none" /><text fill="#e1ed5e" style="font-size:6.75px; font-family:Arial;" text-anchor="middle"><textPath startOffset="22.20632615414155" xlink:href="#id106">October</textPath></text><path d="M 79.03285615573316 98.82574320788736 l -45.646058832149244 -2.556389893394125 a66.7175876025308,66.7175876025308 0 0,0 0.07408641488106231,-1.146084046786601 l 45.59529182626377 3.341733004433738" fill="#35ff61" stroke="none" /><path d="M 79.05617556472873 98.46500227214037 l -28.468342085707437 -2.086478548965438 a49.54469992562812,49.54469992562812 0 0,0 0.06965870663391881,-0.8500126599676491 l 28.42820889525402 2.5762051261408656" fill="#d3ff1c" stroke="none" /><path d="M 79.08570108090925 98.10471618934814 l -34.659166159826306 -3.1408634239921818 a55.80118995009539,55.80118995009539 0 0,0 0.09492280454139725,-0.9558596876599686 l 34.59996622960268 3.7369986423565806" fill="#83ff25" stroke="none" /><path d="M 79.12142395522702 97.74499172005258 l -32.51834224505747 -3.5121710817595178 a53.70745982301648,53.70745982301648 0 0,0 0.10718384201221674,-0.9182857022914276 l 32.453068050041665 4.071400522375807" fill="#9dff22" stroke="none" /><path d="M 79.16333360222342 97.38593545837743 l -28.672313695800092 -3.597085883491796 a49.89706904728543,49.89706904728543 0 0,0 0.11425003405147625,-0.8512954583035994 l 28.606147662690784 4.090099683860055" fill="#ceff1d" stroke="none" /><path d="M 79.21141760316559 97.0276538004421 l -52.66458986224574 -7.529969602552532 a74.20018296560569,74.20018296560569 0 0,0 0.19166298245759938,-1.2628195834560307 l 52.527170986348835 8.435388298400655" fill="#3fffbf" stroke="none" /><path d="M 79.26566170972629 96.67025291283419 l -42.69698224936224 -6.856748948784874 a64.24404351293964,64.24404351293964 0 0,0 0.18474181886477223,-1.090356672574668 l 42.572628568977244 7.59069140967537" fill="#31ff40" stroke="none" /><path d="M 79.3925641242962 95.95851677861259 l -40.536995571285765 -7.950022915755498 a62.30921052631579,62.30921052631579 0 0,0 0.21547327330485164,-1.0507242044099045 l 40.39414300206592 8.646622776328805" fill="#37ff2e" stroke="none" /><path d="M 79.54389044137918 95.25157060432595 l -41.392274136659275 -9.608292852610386 a63.49281880207379,63.49281880207379 0 0,0 0.25629087873329925,-1.062491152886793 l 41.22075045766516 10.319369237156577" fill="#30ff36" stroke="none" /><path d="M 79.62865764111835 94.90015583598534 l -38.24863513002978 -9.575317876112548 a60.4289842848982,60.4289842848982 0 0,0 0.26129397306763374,-1.0068722667494008 l 38.07814482509185 10.232286568410812" fill="#4cff2c" stroke="none" /><path d="M 79.81627453868168 94.20196356495316 l -32.66728906385702 -9.384101690713303 a54.98842654968365,54.98842654968365 0 0,0 0.26916599887683457,-0.907493938626988 l 32.50091716786847 9.94502501608683" fill="#8dff24" stroke="none" /><path d="M 79.91906864156998 93.8553929516997 l -40.61412034615868 -12.427601373915286 a63.4729566595169,63.4729566595169 0 0,0 0.3286826650352824,-1.0420138687996123 l 40.39418219735519 13.124865409141313" fill="#30ff35" stroke="none" /><path d="M 80.02781315780177 93.51064311812611 l -32.429105656746586 -10.536855159094918 a55.09797956390054,55.09797956390054 0 0,0 0.30084206878592457,-0.8994794937686346 l 32.24292629418889 11.093507755785875" fill="#8cff24" stroke="none" /><path d="M 80.65960295795068 91.81776055985345 l -39.12562404991026 -16.552670740186624 a63.483000905396814,63.483000905396814 0 0,0 0.4344331903414777,-1.0027317002157055 l 38.8349001497261 17.223701584988927" fill="#30ff36" stroke="none" /><path d="M 80.803312248108 91.48605970444005 l -29.397921880131957 -13.03829884279439 a53.15952499002986,53.15952499002986 0 0,0 0.3781861840399651,-0.8332831260537027 l 29.169133379128642 13.542403977690164" fill="#a4ff21" stroke="none" /><path d="M 81.6062741919709 89.86733742301443 l -52.416403783636085 -28.87494021503649 a80.8434754842256,80.8434754842256 0 0,0 0.681943044447299,-1.213100582822022 l 51.91160309789636 29.772924307793293" fill="#49f3ff" stroke="none" /><line stroke="#e1ed5e" stroke-width="0.3" x1="26.266209847984243" x2="21.928928074336255" y1="57.711370442889674" y2="55.22380399835377" /><path d="M 25.398753493254645 57.213857153982495 a86.0,86.0 0 0,1 29.58750427330803,-30.492523968695096" fill="none" id="id107" stroke="none" /><text fill="#e1ed5e" style="font-size:6.75px; font-family:Arial;" text-anchor="middle"><textPath startOffset="21.46611528233685" xlink:href="#id107">November</textPath></text><path d="M 81.78341655067845 89.55222093294921 l -27.993685734511875 -16.055252327654458 a53.27100197247162,53.27100197247162 0 0,0 0.46305266863556815,-0.7915071114260754 l 27.71317339140598 16.534738851434426" fill="#a3ff22" stroke="none" /><path d="M 82.15384107792192 88.93136811851018 l -28.875746646216193 -17.909456669397066 a54.97877841490887,54.97877841490887 0 0,0 0.5057325134223108,-0.7999473843083008 l 28.563186536547917 18.403851701419583" fill="#8dff24" stroke="none" /><path d="M 82.34701348167596 88.62581576622439 l -35.70904325141851 -23.008074941421075 a63.47949249275144,63.47949249275144 0 0,0 0.5997402331587395,-0.913445520913085 l 35.30770638290185 23.619338526311825" fill="#30ff36" stroke="none" /><path d="M 82.95767976084542 87.72973835380427 l -26.527652606652072 -19.09958466777141 a53.688078672515815,53.688078672515815 0 0,0 0.5464356987917166,-0.7453376790551182 l 26.194954295346726 19.55338479049803" fill="#9dff22" stroke="none" /><path d="M 83.17141714833178 87.43820079747576 l -32.41203159698166 -24.19416039103931 a61.44622589650452,61.44622589650452 0 0,0 0.6399889517138079,-0.8421504417936914 l 31.990766705043747 24.74849560871403" fill="#41ff2d" stroke="none" /><path d="M 83.39014120810768 87.1503855733568 l -23.833357962325422 -18.437812394740902 a51.13273763971674,51.13273763971674 0 0,0 0.544553720056272,-0.6915279241753733 l 23.51245016167518 18.845332712869325" fill="#beff1f" stroke="none" /><path d="M 83.6137871275137 86.86637796730984 l -31.417733299554232 -25.181452083601563 a61.26387331989609,61.26387331989609 0 0,0 0.6666136873731963,-0.8171895594299025 l 30.979621120104646 25.718525812639548" fill="#43ff2d" stroke="none" /><path d="M 83.84228863543731 86.58626213691792 l -24.663772776467457 -20.475262571142515 a53.055234594781034,53.055234594781034 0 0,0 0.5893915776149129,-0.6976537242226906 l 24.30767058536542 20.896775244994323" fill="#a5ff21" stroke="none" /><path d="M 84.80347519578584 85.50635884689758 l -25.16141781734863 -23.99762876357091 a55.77043475214762,55.77043475214762 0 0,0 0.6685434026632894,-0.6889927430687028 l 24.744610150982226 24.427185702189735" fill="#84ff25" stroke="none" /><path d="M 86.37877921826538 84.01681056812374 l -27.656116204868884 -32.451786175079576 a63.63776717289846,63.63776717289846 0 0,0 0.8398441684152261,-0.7033453384224654 l 27.093414499494546 32.92303267089586" fill="#30ff38" stroke="none" /><path d="M 86.65592168130627 83.78471172551755 l -25.7384498227854 -31.276523836801235 a61.50541621307005,61.50541621307005 0 0,0 0.8232839746366601,-0.6657050519267848 l 25.196262449584243 31.714934985992155" fill="#40ff2d" stroke="none" /><path d="M 86.93701828274178 83.55741782278169 l -26.430548570917278 -33.26855049426511 a63.4896499132328,63.4896499132328 0 0,0 0.8615468242665021,-0.6724509619692848 l 25.85396919149135 33.71857984545762" fill="#30ff36" stroke="none" /><path d="M 87.51073957382395 83.11751280151077 l -20.238660952584205 -27.35781966163884 a55.03018797762377,55.03018797762377 0 0,0 0.7663731531422802,-0.5568026880794334 l 19.764742483088146 27.70214158453494" fill="#8dff24" stroke="none" /><path d="M 88.09926311788651 82.69761687909137 l -24.06549061848622 -34.98861816695614 a63.46588324692542,63.46588324692542 0 0,0 0.9054324136248336,-0.6113520074427005 l 23.459653510454846 35.3976820866975" fill="#30ff35" stroke="none" /><path d="M 88.70189139769569 82.29822771554957 l -19.271216856706488 -30.193964711235328 a56.81976136326892,56.81976136326892 0 0,0 0.8289755546897738,-0.5191044162963752 l 18.748622149644472 30.521213468854633" fill="#77ff27" stroke="none" /><line stroke="#e1ed5e" stroke-width="0.3" x1="56.762969772571076" x2="54.21961505331055" y1="26.818313649435495" y2="22.513508569990535" /><path d="M 56.25429882871897 25.957352633546506 a86.0,86.0 0 0,1 42.265352541879196,-11.944610805530505" fill="none" id="id108" stroke="none" /><text fill="#e1ed5e" style="font-size:6.75px; font-family:Arial;" text-anchor="middle"><textPath startOffset="22.20632615414155" xlink:href="#id108">December</textPath></text><path d="M 89.94658935756843 81.56283822128135 l -19.702282495283203 -36.1324313405042 a62.154981838171096,62.154981838171096 0 0,0 0.9437344686687654,-0.504110269568473 l 19.077402980086134 36.466220336574416" fill="#39ff2e" stroke="none" /><path d="M 90.58718382345135 81.22770947309562 l -15.247317467524539 -30.40822936385702 a55.01677678735032,55.01677678735032 0 0,0 0.8502154697128097,-0.41719703854282963 l 14.721630730801303 30.666181562534682" fill="#8dff24" stroke="none" /><path d="M 90.91171255644093 81.06846463323043 l -14.825785010680626 -30.883142177543977 a55.25744257736292,55.25744257736292 0 0,0 0.8610209142463747,-0.40426086426866364 l 14.291985885134643 31.13376802445265" fill="#8aff24" stroke="none" /><path d="M 91.23893434514133 80.91482961587045 l -11.851003999765902 -25.816314985962926 a49.40648544359054,49.40648544359054 0 0,0 0.7759591601431991,-0.3481502564896406 l 11.40486272115593 26.016485572969092" fill="#d5ff1c" stroke="none" /><path d="M 91.56875222667455 80.76684994638697 l -13.682034356345875 -31.211112149595618 a55.078315476896215,55.078315476896215 0 0,0 0.8715913726915265,-0.37316993928892256 l 13.14275922586404 31.442001616847325" fill="#8cff24" stroke="none" /><path d="M 91.90106846888425 80.62456947434976 l -16.519707357571765 -39.52082333095229 a63.83452121754314,63.83452121754314 0 0,0 1.017449710886403,-0.41504328371138066 l 15.83697377709698 39.79932750084725" fill="#30ff3a" stroke="none" /><path d="M 92.57280143429618 80.3572730644239 l -15.176475627473115 -40.137255515348045 a63.91065943067786,63.91065943067786 0 0,0 1.032363107162664,-0.3802280448386637 l 14.483330194537881 40.39254682799303" fill="#31ff3b" stroke="none" /><path d="M 93.94186890950719 79.89281104454417 l -9.346192073229679 -31.020400057920416 a53.39778581976136,53.39778581976136 0 0,0 0.88235971577937,-0.2575849969325349 l 8.810842139726887 31.17668338377165" fill="#a1ff22" stroke="none" /><path d="M 94.28887869178378 79.79150937346287 l -11.579860626388452 -40.97470396720865 a63.57956713409573,63.57956713409573 0 0,0 1.0557299648524392,-0.2885708798246385 l 10.872832772312291 41.167961387859584" fill="#30ff37" stroke="none" /><path d="M 94.63758080256005 79.69619591428918 l -10.937488195259103 -41.412767135462744 a63.832767011220454,63.832767011220454 0 0,0 1.0647643283177106,-0.27143213525490556 l 10.223014978256392 41.594902266886514" fill="#30ff3a" stroke="none" /><path d="M 94.98787191387505 79.60689891045804 l -8.326348284143668 -33.877837786175654 a55.88604260754282,55.88604260754282 0 0,0 0.9361612389874354,-0.22155911911178086 l 7.741963358193699 34.0161428174283" fill="#82ff25" stroke="none" /></svg>