<?xml version="1.0" encoding="utf-8" ?>
<svg baseProfile="full" height="200mm" version="1.1" viewBox="0,0,200,200" width="200mm" xmlns="http://www.w3.org/2000/svg" xmlns:ev="http://www.w3.org/2001/xml-events" xmlns:xlink="http://www.w3.org/1999/xlink"><defs /><rect fill="#1a1a1a" height="200" width="200" x="0" y="0" /><rect fill="#1a1a1a" height="200" width="180" x="10" y="0" /><text alignment-baseline="middle" fill="#e1ed5e" style="dominant-baseline: central; font-size:9.0px; font-family:Arial;" text-anchor="middle" x="100.0" y="100.0">2016</text><line stroke="#e1ed5e" stroke-width="0.3" x1="100.0" x2="100.0" y1="15.0" y2="10.0" /><path d="M 100.0 14.0 a86.0,86.0 0 0,1 42.35913384403234,11.155469271406648" fill="none" id="id25" stroke="none" /><text fill="#e1ed5e" style="font-size:6.75px; font-family:Arial;" text-anchor="middle"><textPath startOffset="22.145653131862478" xlink:href="#id25">January</textPath></text><path d="M 100.0 79.0 l 0.0 -25.71842454199267 a46.71842454199267,46.71842454199267 0 0,0 0.8019838813082598,0.006884067073789797 l -0.441490956459405 25.71463487311331" fill="#cbff1d" stroke="none" /><path d="M 101.08105385017728 79.02784411241856 l 0.6050812311228072 -11.7384142350321 a32.75399898117493,32.75399898117493 0 0,0 0.5612719773153987,0.03376472839402376 l -0.8064975605706682 11.726297528813383" fill="#ff7f0b" stroke="none" /><path d="M 101.44090949804482 79.04949213459386 l 1.6493199555358733 -23.98075017751803 a45.03740076198464,45.03740076198464 0 0,0 0.770849439456705,0.059668621806527856 l -2.060738389767812 23.948903788716446" fill="#dfff1b" stroke="none" /><path d="M 101.80034050326958 79.07731436759882 l 1.428617428336603 -16.6027000380052 a37.66405101734044,37.66405101734044 0 0,0 0.643697350229173,0.06095880831631436 l -1.713414341950789 16.575729474183703" fill="#ffc212" stroke="none" /><path d="M 102.15924093988457 79.11130261209362 l 1.5554566164454644 -15.047631767616924 a36.12781104784952,36.12781104784952 0 0,0 0.6163475072473612,0.06906302376494168 l -1.8135400252936222 15.01871298334501" fill="#ffad10" stroke="none" /><path d="M 102.51750503828377 79.15144685158666 l 2.0718763349350855 -17.158108217841423 a38.282747153228314,38.282747153228314 0 0,0 0.6517586260107753,0.08438320279936826 l -2.366112782836652 17.12001341884166" fill="#ffca12" stroke="none" /><path d="M 102.87502721639298 79.19773525538626 l 4.546572690362622 -32.896735114811605 a54.20943396751637,54.20943396751637 0 0,0 0.9207211493062494,0.13531430217391974 l -5.110618945276554 32.8138397393388" fill="#75ff27" stroke="none" /><path d="M 103.23170211078529 79.25015418208739 l 4.759430515734067 -30.558958096095168 a51.92736811875529,51.92736811875529 0 0,0 0.8796063355755244,0.14473888778948593 l -5.283314354362662 30.472753209810016" fill="#8eff24" stroke="none" /><path d="M 103.58742460773223 79.30868818359171 l 2.5461052377086064 -14.685258409966126 a35.904343878513004,35.904343878513004 0 0,0 0.6063820803974957,0.11050301469830848 l -2.797822051657156 14.639387221336452" fill="#ffaa0f" stroke="none" /><path d="M 103.94208987418118 79.37332000966035 l 4.015062716153283 -21.008504734925662 a42.388735348590345,42.388735348590345 0 0,0 0.7135508056964212,0.1427301452951054 l -4.375110007380661 20.936485192967698" fill="#fffe18" stroke="none" /><path d="M 104.29559338865022 79.4440306129975 l 3.40247804068779 -16.282089135606896 a37.633799428789885,37.633799428789885 0 0,0 0.631239931630341,0.13757580509696607 l -3.6814803889372647 16.22128187237621" fill="#ffc112" stroke="none" /><path d="M 104.9986988182912 79.60360301121754 l 5.021517853906731 -20.489506441108833 a42.09586489711537,42.09586489711537 0 0,0 0.7003843986738588,0.17803497531100929 l -5.372507545805985 20.400286233962557" fill="#fffb17" stroke="none" /><path d="M 105.69591212413111 79.78721728523813 l 3.1995942523954235 -11.354231243329657 a32.79643889090963,32.79643889090963 0 0,0 0.5405789976965202,0.15735466774673074 l -3.3940332624735485 11.29763288128041" fill="#ff800b" stroke="none" /><path d="M 106.04205211174951 79.88797359093562 l 3.508373774879557 -11.678235259843765 a33.19384538726487,33.19384538726487 0 0,0 0.5443148376245471,0.16863012808247704 l -3.7083292453757344 11.61628854395464" fill="#ff850c" stroke="none" /><path d="M 106.38641147887787 79.99465700312896 l 7.3128545339657 -22.90741267174226 a45.04635932419793,45.04635932419793 0 0,0 0.7346358962041619,0.24148941080531705 l -7.705013167817604 22.778502339534924" fill="#dfff1b" stroke="none" /><path d="M 107.06938296918511 80.22567764915836 l 3.5032659771660613 -9.799258438138231 a31.40664876145018,31.40664876145018 0 0,0 0.5061119357649185,0.18585131319365192 l -3.6709670645851045 9.737676275935858" fill="#ff6c0a" stroke="none" /><path d="M 107.74402155503746 80.48000691201159 l 7.066676913923651 -17.812642118113207 a40.163197588966256,40.163197588966256 0 0,0 0.6386819361505794,0.2597463832907337 l -7.37141331126467 17.688708478243182" fill="#ffe215" stroke="none" /><path d="M 108.4095320186766 80.7573450057729 l 4.905563595534182 -11.224889519590597 a33.25000811905221,33.25000811905221 0 0,0 0.5210539060438816,0.2330607846353063 l -5.097530904433695 11.139024984045438" fill="#ff860c" stroke="none" /><path d="M 108.73861861582097 80.90454125486305 l 7.350969891975286 -16.063195852811642 a38.66530552689402,38.66530552689402 0 0,0 0.6011742207684462,0.28137989038555333 l -7.625632826615237 15.934639730855555" fill="#ffcf13" stroke="none" /><path d="M 109.06512990194946 81.05736502329252 l 6.965419541691678 -14.555047888449579 a37.135875818400464,37.135875818400464 0 0,0 0.572670131831697,0.2801216583451479 l -7.214249922785442 14.433332480007211" fill="#ffbb11" stroke="none" /><path d="M 109.3889696526874 81.21577127319529 l 4.2160443077785565 -8.434912831674508 a30.429887808616773,30.429887808616773 0 0,0 0.46524802960269923,0.23755895893859488 l -4.360219559094834 8.361295921063078" fill="#ff5e08" stroke="none" /><path d="M 109.71004243097381 81.37971332152246 l 3.6233385275580003 -6.948229381685245 a28.83622827805573,28.83622827805573 0 0,0 0.4369528737432959,0.23265279379981393 l -3.7420802170878558 6.885006120162858" fill="#ff4806" stroke="none" /><path d="M 110.02825361518725 81.54914285379988 l 8.495179430655218 -15.630173320405227 a38.789614711537034,38.789614711537034 0 0,0 0.5823167369998897,0.32300127790847755 l -8.762240355811208 15.482039127063603" fill="#ffd013" stroke="none" /><path d="M 110.34350942703115 81.72400993836675 l 4.359824178158081 -7.703391572521212 a29.851570967011597,29.851570967011597 0 0,0 0.4438040620048048,0.25623039466592346 l -4.491420708023283 7.627414280579117" fill="#ff5608" stroke="none" /><line stroke="#e1ed5e" stroke-width="0.3" x1="143.13028292997686" x2="145.6673583964461" y1="26.7553504044142" y2="22.446841604673864" /><path d="M 143.63769802327073 25.89364864446614 a86.0,86.0 0 0,1 29.32050498858742,28.57503671076993" fill="none" id="id26" stroke="none" /><text fill="#e1ed5e" style="font-size:6.75px; font-family:Arial;" text-anchor="middle"><textPath startOffset="20.669276256404974" xlink:href="#id26">February</textPath></text><path d="M 110.65571695917076 81.90426304109057 l 7.831723863799976 -13.29997929910923 a36.434550464317,36.434550464317 0 0,0 0.536225051336929,0.3219877363306996 l -8.058881671694339 13.16357756224261" fill="#ffb110" stroke="none" /><path d="M 110.96478420261332 82.08984904055464 l 4.167611907953274 -6.807480843447433 a28.98190356050596,28.98190356050596 0 0,0 0.4220812249885653,0.26340990138529286 l -4.283857261731552 6.734935145220594" fill="#ff4a06" stroke="none" /><path d="M 111.27062007382361 82.28071324371311 l 4.717222785395738 -7.416257728520932 a29.789372531808127,29.789372531808127 0 0,0 0.4291291998533528,0.2781563627530371 l -4.843837617506098 7.334187524064001" fill="#ff5507" stroke="none" /><path d="M 111.5731344415666 82.4767994020092 l 7.04791690572286 -10.671444487275338 a33.78877868113188,33.78877868113188 0 0,0 0.48125472019978405,0.3238096534661745 l -7.230067914019645 10.548885159752043" fill="#ff8d0d" stroke="none" /><path d="M 112.16784306229584 82.88440491214696 l 2.136052524941336 -3.0046253815163753 a24.686528729382246,24.686528729382246 0 0,0 0.3432826274727723,0.24851014908894462 l -2.1873161627880764 2.9675144610543556" fill="#ff0b01" stroke="none" /><path d="M 112.45986205192187 83.09580414077388 l 9.163844978104095 -12.432515680184721 a36.44485354157697,36.44485354157697 0 0,0 0.500417361347552,0.3755225171689017 l -9.375915328362414 12.273374135751805" fill="#ffb110" stroke="none" /><path d="M 112.7482090630111 83.31218511350987 l 5.612550356010443 -7.347008581304512 a30.245499261398223,30.245499261398223 0 0,0 0.4098842052065024,0.31872843713102733 l -5.737844505852172 7.249579092552693" fill="#ff5c08" stroke="none" /><path d="M 113.03279911837588 83.53348406188908 l 5.70805031331474 -7.21193510358113 a30.197491305654943,30.197491305654943 0 0,0 0.4037105914888749,0.3252006753301231 l -5.831011675158875 7.112886134457598" fill="#ff5b08" stroke="none" /><path d="M 113.31354834802062 83.75963576809568 l 5.637027269935698 -6.876256701508409 a29.891511832474723,29.891511832474723 0 0,0 0.39403512694916565,0.32871811724591443 l -5.754236731046755 6.778476400350625" fill="#ff5708" stroke="none" /><path d="M 113.59037401385872 83.9905735841838 l 6.451777577750785 -7.600177763826461 a30.969359856807756,30.969359856807756 0 0,0 0.4023369936926421,0.3475291125746813 l -6.581294051206288 7.48830451878706" fill="#ff6609" stroke="none" /><path d="M 113.86319453409587 84.22622945171908 l 6.095466979256545 -6.935522492953777 a30.233427854565967,30.233427854565967 0 0,0 0.3868942582635331,0.34596323144763447 l -6.213626264343453 6.829863731622756" fill="#ff5c08" stroke="none" /><path d="M 114.13192950727249 84.46653392183569 l 6.061444505305185 -6.6625893201193715 a30.00728626943005,30.00728626943005 0 0,0 0.3780492662166871,0.34991675686233664 l -6.174923542835837 6.557554817124659" fill="#ff5808" stroke="none" /><path d="M 114.39649973595853 84.71141617570332 l 8.972251051212963 -9.528219692630053 a34.08771406461095,34.08771406461095 0 0,0 0.4225699935702003,0.404812494920278 l -9.134493530648475 9.372795067404194" fill="#ff910d" stroke="none" /><path d="M 114.65682725009322 84.96080404539774 l 5.250807355949736 -5.387790918085143 a28.523248558056327,28.523248558056327 0 0,0 0.3477229569049436,0.3447509836786315 l -5.342522232984642 5.296859924177852" fill="#ff4306" stroke="none" /><path d="M 114.91283532996326 85.21462403516908 l 16.255719330566485 -16.116782393371157 a43.89102631315231,43.89102631315231 0 0,0 0.525883882448864,0.5396031912339792 l -16.52999001416616 15.835356510069435" fill="#edff1a" stroke="none" /><path d="M 115.16444852881244 85.47280134310134 l 4.836795944222181 -4.633541101814136 a27.698081676737385,27.698081676737385 0 0,0 0.3259723477667731,0.3461713371054587 l -4.915624125725214 4.5498283047641825" fill="#ff3705" stroke="none" /><path d="M 115.41159269507618 85.73525988315684 l 5.805827820184413 -5.373787554386134 a28.911082691850883,28.911082691850883 0 0,0 0.3339950062949345,0.36711901923150425 l -5.897220527321225 5.273330959596959" fill="#ff4906" stroke="none" /><path d="M 115.6541949942343 86.00192230759917 l 11.577257313945685 -10.352454879041469 a36.53081481880131,36.53081481880131 0 0,0 0.41399665483106146,0.47105219688002353 l -11.753265032735337 10.152190404350147" fill="#ffb310" stroke="none" /><path d="M 115.8921839302757 86.27271002978787 l 11.945161348755445 -10.317945871678027 a36.784387433748535,36.784387433748535 0 0,0 0.4086665507787714,0.48140816923997026 l -12.120522463041329 10.111370919988504" fill="#ffb610" stroke="none" /><path d="M 116.1254893667686 86.54754324733833 l 14.087822978684725 -11.75256297960568 a39.34637546951319,39.34637546951319 0 0,0 0.42822567928516564,0.5223657002064084 l -14.28749547720852 11.508994997700777" fill="#ffd814" stroke="none" /><path d="M 116.35404254752997 86.82634096563983 l 6.957735284861866 -5.604659033246231 a29.93433171385305,29.93433171385305 0 0,0 0.31891975622380536,0.4029446937023146 l -7.05292147172723 5.484394395629239" fill="#ff5708" stroke="none" /><path d="M 116.57777611688842 87.10902102172516 l 6.281548925030576 -4.884570437712782 a28.95719078937601,28.95719078937601 0 0,0 0.3017725688394772,0.3950299796404754 l -6.364473471224359 4.776019544831424" fill="#ff4906" stroke="none" /><path d="M 116.7966241395341 87.39550010848427 l 27.039064840633277 -20.29061834206777 a54.80562409066615,54.80562409066615 0 0,0 0.558229157544834,0.7573450632234794 l -27.383396017761935 19.823466969575414" fill="#6fff28" stroke="none" /><path d="M 117.21940702142032 87.97951657250589 l 18.02681438058973 -12.58411647060991 a42.98467702874237,42.98467702874237 0 0,0 0.4171770637207731,0.6086738034562079 l -18.24018118112583 12.272807932083655" fill="#f8ff18" stroke="none" /><line stroke="#e1ed5e" stroke-width="0.3" x1="172.87174338648825" x2="177.1583165268699" y1="56.24261187166439" y2="53.66864786411523" /><path d="M 173.72905801456457 55.72781907015455 a86.0,86.0 0 0,1 12.242430191666344,42.057860355516425" fill="none" id="id27" stroke="none" /><text fill="#e1ed5e" style="font-size:6.75px; font-family:Arial;" text-anchor="middle"><textPath startOffset="22.145653131862474" xlink:href="#id27">March</textPath></text><path d="M 118.00360718960297 89.18935116829356 l 20.8215112018608 -12.502719226108765 a45.28689598890983,45.28689598890983 0 0,0 0.3944839934757324,0.6699200633602888 l -21.0330689054663 12.14344799445492" fill="#dcff1b" stroke="none" /><path d="M 118.18653347947321 89.5 l 22.882452714606217 -13.211190234496787 a47.422380468993566,47.422380468993566 0 0,0 0.4009825010740576,0.7084976579966925 l -23.10586858070165 12.816435806400975" fill="#c2ff1e" stroke="none" /><path d="M 118.36410011445183 89.81374322990088 l 6.4118017877142846 -3.5565183679890775 a28.33212282131033,28.33212282131033 0 0,0 0.23226222375989955,0.4273363314787587 l -6.4719093610895255 3.4459272030357155" fill="#ff4006" stroke="none" /><path d="M 118.53625476483649 90.13048839642627 l 6.474914997586246 -3.4475275351770702 a28.335527951809016,28.335527951809016 0 0,0 0.22491923194768945,0.4313122839720598 l -6.53314229850888 3.3358690081005125" fill="#ff4006" stroke="none" /><path d="M 118.70294669586156 90.45014215332178 l 13.21276363927248 -6.746531258880783 a35.83552516813397,35.83552516813397 0 0,0 0.27504633603346745,0.5502769183031126 l -13.326629888517685 6.51872248441392" fill="#ffa90f" stroke="none" /><path d="M 119.0197475246899 91.09779779509293 l 18.035181676073304 -8.441375674110434 a40.91292548473061,40.91292548473061 0 0,0 0.2922654481398699,0.6386527497011584 l -18.177431589068224 8.13053394219459" fill="#ffec16" stroke="none" /><path d="M 119.16976305983485 91.42560881287824 l 6.678383283055922 -2.987155896904931 a28.31600325504402,28.31600325504402 0 0,0 0.19466054603454938,0.44542142416626446 l -6.728677711107442 2.8720724029628175" fill="#ff4006" stroke="none" /><path d="M 119.4528033332814 92.08871423366111 l 19.049338598262047 -7.7472001710294816 a41.56444532491055,41.56444532491055 0 0,0 0.26312535408531823,0.6632477784980908 l -19.17952262731349 7.419051375317825" fill="#fff417" stroke="none" /><path d="M 119.71291397450082 92.76114493625339 l 6.888925483873708 -2.529708859239062 a28.338713867897916,28.338713867897916 0 0,0 0.16377054743721137,0.4580953685368897 l -6.931336201354862 2.4110785343212555" fill="#ff4006" stroke="none" /><path d="M 119.83427380445688 93.10060997987247 l 26.180301158576498 -9.106867754181529 a48.71900447429368,48.71900447429368 0 0,0 0.2679883458696238,0.792259926155101 l -26.332774926018487 8.656106153552267" fill="#b3ff20" stroke="none" /><path d="M 119.94978838288452 93.4421083053983 l 14.038509953810483 -4.614737062056274 a35.777535649598406,35.777535649598406 0 0,0 0.1867847757015731,0.5851006495372586 l -14.115659445289314 4.373067378827629" fill="#ffa80f" stroke="none" /><path d="M 120.16314734710363 94.1308016681162 l 20.317409516091 -5.9141018010350805 a42.16066467664831,42.16066467664831 0 0,0 0.19631111272478932,0.6966388840847189 l -20.41593912089037 5.564454993047349" fill="#fffc17" stroke="none" /><path d="M 120.26092885502905 94.47779374421319 l 4.2492063992083144 -1.1581400994857725 a25.404207478435797,25.404207478435797 0 0,0 0.1110654037304545,0.42173342847338413 l -4.268461283743499 1.0850261666395897" fill="#ff1502" stroke="none" /><path d="M 120.43855184770803 95.1765574152323 l 8.55835152888918 -2.0197476576348077 a29.79344991983016,29.79344991983016 0 0,0 0.11319970001562198,0.49877876501520735 l -8.591762090462467 1.872534558680574" fill="#ff5507" stroke="none" /><path d="M 120.51834098615036 95.52812308129327 l 30.434684604742984 -6.633097856397613 a52.14912541569548,52.14912541569548 0 0,0 0.18312361365050372,0.8763127828120538 l -30.544065929217854 6.109668622300154" fill="#8cff24" stroke="none" /><path d="M 120.592083275326 95.88100663000786 l 5.808347330842123 -1.1618321384226953 a26.923407181139304,26.923407181139304 0 0,0 0.08676222801642376,0.4539766392097651 l -5.827435851140704 1.0619529341796157" fill="#ff2c04" stroke="none" /><path d="M 120.77682067341334 96.94652285012252 l 7.2564845670067255 -1.0664533405800187 a28.334431879760086,28.334431879760086 0 0,0 0.06659331350280748,0.481836043084312 l -7.273722397064746 0.941728989295621" fill="#ff4006" stroke="none" /><path d="M 120.82617615685814 97.30363454192243 l 20.338876695032102 -2.633274786669089 a41.50863333617887,41.50863333617887 0 0,0 0.08542459690486799,0.7074382063469535 l -20.381083378196635 2.2837429033987227" fill="#fff316" stroke="none" /><path d="M 120.9064616781168 98.02013634271609 l 9.080358730191499 -0.8599194125625119 a30.120985476639397,30.120985476639397 0 0,0 0.0443300258027089,0.5151820959767731 l -9.093782378691948 0.7039162692100769" fill="#ff5a08" stroke="none" /><path d="M 120.93736805541906 98.37931529534042 l 20.45314945550064 -1.583203122613435 a41.51433291083332,41.51433291083332 0 0,0 0.04890000719470229,0.7109953725346355 l -20.47731342386041 1.2318643259244655" fill="#fff316" stroke="none" /><path d="M 120.96210409425399 98.7389718711861 l 8.788522491949266 -0.528695689289113 a29.80441064031949,29.80441064031949 0 0,0 0.026339166127044896,0.5109727862998911 l -8.796303247532883 0.37775110961249136" fill="#ff5607" stroke="none" /><path d="M 120.99303781780057 99.45929381324524 l 15.588340384822999 -0.4015003526629178 a36.5935101400003,36.5935101400003 0 0,0 0.010783878121252387,0.6281068374038261 l -15.592935694542916 0.1338465992900252" fill="#ffb310" stroke="none" /><line stroke="#e1ed5e" stroke-width="0.3" x1="184.99686870605535" x2="189.99668451229388" y1="99.2704041080226" y2="99.22748670261217" /><path d="M 185.99683186730306 99.26182062694052 a86.0,86.0 0 0,1 -10.086455211305974,41.156179273409016" fill="none" id="id28" stroke="none" /><text fill="#e1ed5e" style="font-size:6.75px; font-family:Arial;" text-anchor="middle"><textPath startOffset="21.40746469413373" xlink:href="#id28">April</textPath></text><path d="M 120.99303781780057 100.54070618675476 l 14.637250653770105 0.37700365493852867 a35.64210498723221,35.64210498723221 0 0,0 -0.021003914538489613,0.6115060545070491 l -14.628622052234768 -0.6282159740096885" fill="#ffa70f" stroke="none" /><path d="M 120.96210409425399 101.26102812881392 l 7.078686799215439 0.42583621991082715 a28.091483856540524,28.091483856540524 0 0,0 -0.033089144552681214,0.4811088997269954 l -7.070333693497692 -0.547288543792166" fill="#ff3d05" stroke="none" /><path d="M 120.93736805541906 101.62068470465957 l 8.290557571352629 0.6417415891732943 a29.31535790637944,29.31535790637944 0 0,0 -0.04314435772406335,0.5014028356486243 l -8.278319590930824 -0.783965472197576" fill="#ff4f07" stroke="none" /><path d="M 120.9064616781168 101.97986365728391 l 4.747156268827606 0.4495606342577377 a25.768395684561366,25.768395684561366 0 0,0 -0.04548441798154527,0.4400204838337015 l -4.738739458364394 -0.5309856403743706" fill="#ff1b02" stroke="none" /><path d="M 120.592083275326 104.11899336999214 l 7.405543966945826 1.481316197744067 a28.55224331732411,28.55224331732411 0 0,0 -0.1002622753961534,0.47979128312284736 l -7.379023980725308 -1.6082239321523235" fill="#ff4406" stroke="none" /><path d="M 120.51834098615036 104.47187691870673 l 5.731758626314102 1.2492101150825645 a26.86630913453687,26.86630913453687 0 0,0 -0.10207807899857889,0.4497748507373204 l -5.709469685757859 -1.3474192997589018" fill="#ff2b04" stroke="none" /><path d="M 120.43855184770803 104.8234425847677 l 8.077893501004365 1.9063608712733766 a29.299793683284587,29.299793683284587 0 0,0 -0.11972798897737431,0.48853105230411875 l -8.043977985510693 -2.044747748185595" fill="#ff4e07" stroke="none" /><path d="M 120.35273937422433 105.17358676015961 l 14.18015576789814 3.6045401451319217 a35.6311150381549,35.6311150381549 0 0,0 -0.15577672243616117,0.5915095882493423 l -14.11618956465725 -3.8474302377540672" fill="#ffa60f" stroke="none" /><path d="M 120.16314734710363 105.8691983318838 l 19.97519923344974 5.814489375184305 a41.80425127492317,41.80425127492317 0 0,0 -0.20648051341561843,0.6873064750131203 l -19.87244240003049 -6.156533453788149" fill="#fff717" stroke="none" /><path d="M 119.94978838288452 106.5578916946017 l 6.9697050080324034 2.2910804720721973 a28.336609409563966,28.336609409563966 0 0,0 -0.15587102333401606,0.4608049840212306 l -6.929348563126022 -2.4103871305675884" fill="#ff4006" stroke="none" /><path d="M 119.71291397450082 107.23885506374661 l 6.88524890264526 2.5283587676860186 a28.33479723710973,28.33479723710973 0 0,0 -0.1715865137571296,0.4551536134449533 l -6.84083170507369 -2.646180661325131" fill="#ff4006" stroke="none" /><path d="M 119.4528033332814 107.91128576633889 l 10.910199057604078 4.437082976347925 a32.77795180901762,32.77795180901762 0 0,0 -0.21645022785425214,0.5194017509115011 l -10.83242298521334 -4.6237172367007044" fill="#ff7f0b" stroke="none" /><path d="M 119.31412917781788 108.2440532568976 l 4.045424493714743 1.7267511605568726 a25.398537132369317,25.398537132369317 0 0,0 -0.17460420039276703,0.39952858033467775 l -4.01518641130501 -1.795941810667395" fill="#ff1502" stroke="none" /><path d="M 119.0197475246899 108.90220220490707 l 13.25116927746489 6.202216312614702 a35.630822752275186,35.630822752275186 0 0,0 -0.2640426226765674,0.5517475285797214 l -13.14274739682841 -6.428776343259527" fill="#ffa60f" stroke="none" /><path d="M 118.70294669586154 109.54985784667822 l 10.431458007379222 5.326376785648852 a32.712625914901196,32.712625914901196 0 0,0 -0.25966337060261896,0.49793875102929364 l -10.338486567801652 -5.504661779782649" fill="#ff7f0b" stroke="none" /><path d="M 118.5362547648365 109.86951160357373 l 11.949778624321132 6.362584043493262 a34.53808276237065,34.53808276237065 0 0,0 -0.2831376934720194,0.5209414655254774 l -11.838795581233773 -6.566780342493343" fill="#ff980e" stroke="none" /><line stroke="#e1ed5e" stroke-width="0.3" x1="174.33088141563837" x2="178.70328620479359" y1="141.23008692659167" y2="143.65538615756765" /><path d="M 175.20536237346943 141.71514677278685 a86.0,86.0 0 0,1 -30.301960400862466,31.631185727798858" fill="none" id="id29" stroke="none" /><text fill="#e1ed5e" style="font-size:6.75px; font-family:Arial;" text-anchor="middle"><textPath startOffset="22.145653131862474" xlink:href="#id29">May</textPath></text><path d="M 118.36410011445183 110.18625677009912 l 25.76568980589003 14.291793803442538 a50.46398040478346,50.46398040478346 0 0,0 -0.42670091371926205,0.753939628850064 l -25.51655552714939 -14.731990202391724" fill="#9fff22" stroke="none" /><path d="M 118.00360718960297 110.81064883170644 l 12.5515501832462 7.5368452497106295 a35.64054125777573,35.64054125777573 0 0,0 -0.319461506136298,0.5218163618094016 l -12.420320712654496 -7.751198727644588" fill="#ffa70f" stroke="none" /><path d="M 117.81537515405839 111.11811171558189 l 6.227158088098035 3.8862072055940713 a28.340306825942363,28.340306825942363 0 0,0 -0.2611118087958989,0.4105111329458266 l -6.159528587676246 -3.99253201321857" fill="#ff4006" stroke="none" /><path d="M 117.423217284605 111.72311816256416 l 12.151176473015315 8.17585382082076 a35.645670874964736,35.645670874964736 0 0,0 -0.3459501696390968,0.5047516363495193 l -12.009036566560898 -8.383240192240324" fill="#ffa70f" stroke="none" /><path d="M 116.35404254752997 113.17365903436017 l 17.098896625841718 13.773660754394433 a42.95645682705583,42.95645682705583 0 0,0 -0.4675159448601039,0.5702934357000173 l -16.859933861742984 -14.065156471792942" fill="#f8ff18" stroke="none" /><path d="M 115.89218393027572 113.72728997021213 l 16.77552706274089 14.49030072919561 a43.167253403506685,43.167253403506685 0 0,0 -0.48920612901574684,0.5566267724894418 l -16.524309869766554 -14.776139779496345" fill="#f6ff19" stroke="none" /><path d="M 115.16444852881244 114.52719865689866 l 10.582731049829873 10.138016954675749 a35.65515555176151,35.65515555176151 0 0,0 -0.42720513065925103,0.4383500987742789 l -10.407139118019815 -10.318189745517765" fill="#ffa70f" stroke="none" /><path d="M 114.91283532996324 114.78537596483092 l 10.391405885235757 10.302590984000759 a35.63300028207907,35.63300028207907 0 0,0 -0.43439695153445157,0.43068417938663817 l -10.21301701357134 -10.479455173616058" fill="#ffa60f" stroke="none" /><path d="M 114.65682725009322 115.03919595460226 l 10.208376031287491 10.474693116944604 a35.62635077831554,35.62635077831554 0 0,0 -0.4416437778956804,0.4230847488376309 l -10.027059767526499 -10.648389996087815" fill="#ffa60f" stroke="none" /><path d="M 114.39649973595853 115.28858382429668 l 10.04510361599283 10.667551937868799 a35.652671121783925,35.652671121783925 0 0,0 -0.44917311199801374,0.41574792670016525 l -9.860500732680848 -10.838417610701345" fill="#ffa70f" stroke="none" /><path d="M 113.86319453409587 115.77377054828091 l 9.665630752125491 10.9977135005542 a35.641520415472776,35.641520415472776 0 0,0 -0.463035149609147,0.3999587339897483 l -9.475416122753488 -11.162016367008665" fill="#ffa70f" stroke="none" /><path d="M 113.59037401385872 116.0094264158162 l 9.521201314391716 11.215951207633271 a35.712268212657925,35.712268212657925 0 0,0 -0.47076535364562005,0.39272920136117906 l -9.327261626584201 -11.377742592906321" fill="#ffa80f" stroke="none" /><path d="M 113.03279911837588 116.46651593811092 l 12.713322537147276 16.06286771420509 a41.48522123721365,41.48522123721365 0 0,0 -0.5622038766056351,0.43717313490829135 l -12.435708715906411 -16.278741900734175" fill="#fff316" stroke="none" /><path d="M 112.7482090630111 116.68781488649013 l 13.337714014066632 17.459495790784967 a42.9710857353356,42.9710857353356 0 0,0 -0.5900278159544392,0.4427678729015872 l -13.036033209201427 -17.68588269095057" fill="#f8ff18" stroke="none" /><path d="M 112.16784306229584 117.11559508785304 l 8.90093438558011 12.520278907870182 a36.361771280267824,36.361771280267824 0 0,0 -0.5118437182887724,0.3573066671519853 l -8.68469557611758 -12.671230390827288" fill="#ffb010" stroke="none" /><path d="M 111.5731344415666 117.5232005979908 l 8.351547203275116 12.645306911924951 a36.15427753425776,36.15427753425776 0 0,0 -0.5208184956895517,0.33758825655541863 l -8.133243075328556 -12.786809010184266" fill="#ffad10" stroke="none" /><path d="M 111.27062007382361 117.71928675628689 l 7.861875877983058 12.36017470306371 a35.64865219093784,35.64865219093784 0 0,0 -0.5191731714422816,0.3240024568617222 l -7.6485385777510615 -12.49331295676698" fill="#ffa70f" stroke="none" /><path d="M 110.96478420261333 117.91015095944535 l 7.791780182918856 12.727287353784023 a35.92299171763885,35.92299171763885 0 0,0 -0.5286961917324131,0.31746687245989297 l -7.572151234629006 -12.85916822677984" fill="#ffaa0f" stroke="none" /><line stroke="#e1ed5e" stroke-width="0.3" x1="143.1302829299769" x2="145.66735839644613" y1="173.24464959558577" y2="177.55315839532614" /><path d="M 143.63769802327073 174.10635135553383 a86.0,86.0 0 0,1 -40.68552437913181,11.842963189579606" fill="none" id="id30" stroke="none" /><text fill="#e1ed5e" style="font-size:6.75px; font-family:Arial;" text-anchor="middle"><textPath startOffset="21.407464694133747" xlink:href="#id30">June</textPath></text><path d="M 110.65571695917076 118.09573695890943 l 7.553493803049925 12.827483829054415 a35.886222153970635,35.886222153970635 0 0,0 -0.5335213741192697,0.3080287089661806 l -7.332179961070256 -12.955259435296767" fill="#ffaa0f" stroke="none" /><path d="M 109.71004243097381 118.62028667847754 l 6.881912565328398 13.196974758201984 a35.88357696675921,35.88357696675921 0 0,0 -0.5486304643605658,0.2801346242493304 l -6.65435487925425 -13.31316733412415" fill="#ffaa0f" stroke="none" /><path d="M 109.3889696526874 118.78422872680471 l 6.542807111916585 13.089997076561826 a35.634081739834016,35.634081739834016 0 0,0 -0.549511054685852,0.2687933931969578 l -6.317135807968663 -13.200384219856007" fill="#ffa60f" stroke="none" /><path d="M 108.73861861582097 119.09545874513695 l 6.215213484402538 13.58136313086799 a35.93593998211025,35.93593998211025 0 0,0 -0.5631445811379564,0.2518874082331129 l -5.9811555004089545 -13.686054290010953" fill="#ffab0f" stroke="none" /><path d="M 108.4095320186766 119.2426549942271 l 5.859174946328683 13.406938910824762 a35.63133425256469,35.63133425256469 0 0,0 -0.562576222048993,0.24013033634271905 l -5.628163649109259 -13.505543896826884" fill="#ffa60f" stroke="none" /><path d="M 108.07796709384702 119.3841803445677 l 5.707085415799142 13.694927406422245 a35.836504325831015,35.836504325831015 0 0,0 -0.5698781307686064,0.23176447462377167 l -5.471152823840095 -13.790879137625309" fill="#ffa90f" stroke="none" /><path d="M 107.74402155503746 119.51999308798841 l 5.5327946065333276 13.946256697405019 a36.00366262044034,36.00366262044034 0 0,0 -0.5764490488008067,0.2229828756121294 l -5.2925732952389914 -14.039179461155188" fill="#ffab0f" stroke="none" /><path d="M 107.407793817531 119.65005319985036 l 5.168590189377951 13.710299542779687 a35.652188850082396,35.652188850082396 0 0,0 -0.5745279749592218,0.21097463044668816 l -4.932473062764601 -13.797005022235096" fill="#ffa70f" stroke="none" /><path d="M 107.06938296918513 119.77432235084164 l 5.412666885945296 15.140192609022838 a37.078631628858176,37.078631628858176 0 0,0 -0.6011933357188143,0.20912624992065715 l -5.151967778181461 -15.230877291512085" fill="#ffba11" stroke="none" /><path d="M 106.72888874123015 119.89276391827305 l 4.78119153069475 14.13474319843925 a35.92148644535831,35.92148644535831 0 0,0 -0.5858234446395398,0.19257180218515688 l -4.537845348407476 -14.214735922026426" fill="#ffaa0f" stroke="none" /><path d="M 106.38641147887787 120.00534299687104 l 3.226780396523998 10.10784363355559 a31.610401248199892,31.610401248199892 0 0,0 -0.5183494175478158,0.16058597456947965 l -3.052790346104558 -10.161746195931713" fill="#ff6f0a" stroke="none" /><path d="M 106.0420521117495 120.11202640906438 l 4.295604817949093 14.29867136920155 a35.92997735016405,35.92997735016405 0 0,0 -0.5922286626245207,0.17238913245698684 l -4.049516142942966 -14.370304195961056" fill="#ffaa0f" stroke="none" /><path d="M 105.3480935250658 120.30758222061773 l 3.927086855318913 14.911788439772035 a36.420228456210936,36.420228456210936 0 0,0 -0.6059540496248504,0.15403114984975602 l -3.670527512468665 -14.977004821457061" fill="#ffb110" stroke="none" /><path d="M 104.9986988182912 120.39639698878246 l 3.5733399190401194 14.580446274921016 a36.01193431083629,36.01193431083629 0 0,0 -0.6016871348240037,0.1419965255093364 l -3.3225206304762365 -14.639638944076577" fill="#ffac0f" stroke="none" /><path d="M 104.64783097203109 120.47920084513623 l 2.848541597826866 12.55119987122276 a33.870384898748455,33.870384898748455 0 0,0 -0.5681153583292795,0.12381809814888717 l -2.6326638228784502 -12.598249427505365" fill="#ff8e0d" stroke="none" /><path d="M 104.29559338865022 120.5559693870025 l 2.99544052181076 14.334267258539795 a35.643902545392464,35.643902545392464 0 0,0 -0.6000116580565831,0.12001913591785089 l -2.748932378223218 -14.383575791120506" fill="#ffa70f" stroke="none" /><path d="M 103.94208987418118 120.62667999033965 l 1.3761012401955337 7.200343173738172 a28.330661391911754,28.330661391911754 0 0,0 -0.4784715033922457,0.08719344664245106 l -1.2522950032522309 -7.222904794311986" fill="#ff4006" stroke="none" /><path d="M 103.58742460773223 120.69131181640829 l 2.6636331121548458 15.363127957954758 a36.59232638218745,36.59232638218745 0 0,0 -0.6198435099889837,0.1019950136905652 l -2.3995120991127896 -15.406588970140994" fill="#ffb310" stroke="none" /><path d="M 103.2317021107853 120.74984581791261 l 2.31415347228618 14.858525353766867 a36.03765546825126,36.03765546825126 0 0,0 -0.6120822361088158,0.0899550104985901 l -2.0587461305696784 -14.89606143756434" fill="#ffac0f" stroke="none" /><path d="M 102.875027216393 120.80226474461374 l 1.4289649192007974 10.339278317258659 a31.4375579932301,31.4375579932301 0 0,0 -0.535220200389271,0.06929497042210211 l -1.251266896920751 -10.362284883881156" fill="#ff6d0a" stroke="none" /><path d="M 102.51750503828377 120.84855314841334 l 1.7850843825765899 14.783059441232275 a35.89044568493252,35.89044568493252 0 0,0 -0.6122980078313255,0.06860926890892788 l -1.5310504731444652 -14.811524470648175" fill="#ffaa0f" stroke="none" /><path d="M 101.08105385017728 120.97215588758144 l 0.7537249819561795 14.622063290702203 a35.64147657259082,35.64147657259082 0 0,0 -0.6112924626474405,0.02625152857566184 l -0.5026067587079095 -14.632847387703697" fill="#ffa70f" stroke="none" /><line stroke="#e1ed5e" stroke-width="0.3" x1="101.45913802915013" x2="101.54496967792366" y1="184.9874750549273" y2="189.98673829345242" /><path d="M 101.47630435890484 185.9873277026323 a86.0,86.0 0 0,1 -42.54439059252881,-10.42667462771756" fill="none" id="id31" stroke="none" /><text fill="#e1ed5e" style="font-size:6.75px; font-family:Arial;" text-anchor="middle"><textPath startOffset="22.145653131862474" xlink:href="#id31">July</textPath></text><path d="M 100.36049292484886 120.99690560180557 l 0.2548167730446799 14.841799548823667 a35.84398684435173,35.84398684435173 0 0,0 -0.6153096978935303,0.00528169372250051 l -1.817864097552077e-15 -14.843986844351733" fill="#ffa90f" stroke="none" /><path d="M 99.63950707515114 120.99690560180557 l -0.2597436834004392 15.128767376810547 a36.130996963938415,36.130996963938415 0 0,0 -0.6200538216739895,-0.01597038696399307 l 0.5194108191451725 -15.122079272496507" fill="#ffad10" stroke="none" /><path d="M 98.91894614982273 120.97215588758144 l -0.24049218090054386 4.665484061467989 a25.67167828696349,25.67167828696349 0 0,0 -0.4399094486572694,-0.026463860039693577 l 0.3205459816902596 -4.660668223603603" fill="#ff1902" stroke="none" /><path d="M 98.55909050195518 120.95050786540614 l -1.2715607301958014 18.48821394782703 a39.531889317368645,39.531889317368645 0 0,0 -0.6766184150369484,-0.052374544557789525 l 1.588748140007986 -18.46366163627419" fill="#ffda14" stroke="none" /><path d="M 98.19965949673042 120.92268563240118 l -1.2761280972447129 14.830542864994541 a35.88534529633149,35.88534529633149 0 0,0 -0.6132983854729933,-0.05807999474822003 l 1.5305260461027215 -14.806451114741138" fill="#ffaa0f" stroke="none" /><path d="M 97.84075906011543 120.88869738790638 l -1.0208881474646547 9.876166751650013 a30.928790576703236,30.928790576703236 0 0,0 -0.5276512033590609,-0.05912441791147227 l 1.190275252424515 -9.85718657323157" fill="#ff6609" stroke="none" /><path d="M 97.12497278360702 120.80226474461374 l -1.0139720198305393 7.336596425897105 a28.406334206170108,28.406334206170108 0 0,0 -0.482467916812311,-0.07090616907622287 l 1.1397650422505352 -7.318109183522" fill="#ff4106" stroke="none" /><path d="M 96.76829788921471 120.74984581791261 l -2.546421416222116 16.34985217161622 a37.546961293926394,37.546961293926394 0 0,0 -0.6360142297259749,-0.10465589946960806 l 2.8267131490011543 -16.30373027365094" fill="#ffc011" stroke="none" /><path d="M 96.41257539226777 120.69131181640829 l -2.618650164543059 15.103678269883144 a36.329006033151714,36.329006033151714 0 0,0 -0.6135541240272859,-0.11180999996100088 l 2.877539022121402 -15.056500095990776" fill="#ffb010" stroke="none" /><path d="M 96.05791012581884 120.62667999033965 l -2.411733269281003 12.619207566354099 a33.847601214424635,33.847601214424635 0 0,0 -0.5697736183640819,-0.1139706811136585 l 2.628003373176043 -12.57594748857758" fill="#ff8e0d" stroke="none" /><path d="M 94.30408787586889 120.21278271476187 l -2.782374788411482 9.873666553058332 a31.258211377436645,31.258211377436645 0 0,0 -0.5152246142456685,-0.14997437624293242 l 2.9514594150387574 -9.824448482512883" fill="#ff6a09" stroke="none" /><path d="M 93.95794788825049 120.11202640906438 l -4.748030458881012 15.80464918439882 a37.502446154445714,37.502446154445714 0 0,0 -0.6149675535005029,-0.19051852006446107 l 5.018638645253149 -15.72081407652771" fill="#ffbf11" stroke="none" /><path d="M 93.61358852112213 120.00534299687104 l -4.7669953829989025 14.932545141634039 a36.674984828971006,36.674984828971006 0 0,0 -0.598111828620787,-0.19661123807811398 l 5.022629949267433 -14.848512982153904" fill="#ffb410" stroke="none" /><path d="M 92.93061703081489 119.77432235084164 l -3.9719722629297185 11.110313338255589 a32.79896716376917,32.79896716376917 0 0,0 -0.5285488715599916,-0.19409046680154668 l 4.162110286143829 -11.040492022445322" fill="#ff800b" stroke="none" /><path d="M 92.59220618246901 119.65005319985036 l -2.633643463955286 6.986052183807702 a28.46598975422005,28.46598975422005 0 0,0 -0.45576453956875307,-0.17629951484263098 l 2.753180266017567 -6.939812780827031" fill="#ff4206" stroke="none" /><path d="M 92.25597844496254 119.51999308798841 l -6.641651486936023 16.741300394946013 a39.01062667948395,39.01062667948395 0 0,0 -0.6203535593228015,-0.25229239199532416 l 6.928059507449265 -16.624820746371398" fill="#ffd313" stroke="none" /><path d="M 91.59046798132341 119.24265499422711 l -6.310613605861567 14.439918909849105 a36.75865166203958,36.75865166203958 0 0,0 -0.5760371233845551,-0.25765407839349774 l 6.557564132101758 -14.329461080545752" fill="#ffb610" stroke="none" /><path d="M 91.26138138417905 119.09545874513695 l -6.146220357159474 13.430600696564872 a35.770140816841604,35.770140816841604 0 0,0 -0.5561597468145175,-0.2603108436610789 l 6.375868817845482 -13.323113621333267" fill="#ffa80f" stroke="none" /><path d="M 90.6110303473126 118.78422872680471 l -6.559004799078614 13.122403301286349 a35.670310574624764,35.670310574624764 0 0,0 -0.5453697961206742,-0.2784697038128606 l 6.7833018169128705 -13.007875645800652" fill="#ffa70f" stroke="none" /><path d="M 89.97174638481275 118.45085714620012 l -6.992444632631191 12.865310548588754 a35.64276263046157,35.64276263046157 0 0,0 -0.5350756223535947,-0.29679742795700675 l 7.212264443140888 -12.743380205198598" fill="#ffa70f" stroke="none" /><line stroke="#e1ed5e" stroke-width="0.3" x1="58.13341422392154" x2="55.67067388415222" y1="173.97424548756322" y2="178.32567169271397" /><path d="M 57.64086615596768 174.84453072859336 a86.0,86.0 0 0,1 -31.369924170532247,-30.572349798747897" fill="none" id="id32" stroke="none" /><text fill="#e1ed5e" style="font-size:6.75px; font-family:Arial;" text-anchor="middle"><textPath startOffset="22.145653131862474" xlink:href="#id32">August</textPath></text><path d="M 89.65649057296885 118.27599006163327 l -5.065187136163701 8.94970033274391 a31.283640248971892,31.283640248971892 0 0,0 -0.4650946723083136,-0.26852253425586764 l 5.2180742763324135 -8.86143090121187" fill="#ff6b09" stroke="none" /><path d="M 89.03521579738668 117.91015095944536 l -7.796709549898309 12.735339104288657 a35.93243255155366,35.93243255155366 0 0,0 -0.5233060387671098,-0.3265816717379582 l 8.014179717455132 -12.599621635709152" fill="#ffab0f" stroke="none" /><path d="M 88.72937992617639 117.7192867562869 l -7.918466268434751 12.449144196267792 a35.75409432204522,35.75409432204522 0 0,0 -0.5150536780027024,-0.33385157137935423 l 8.131005578694463 -12.311378783184542" fill="#ffa80f" stroke="none" /><path d="M 88.1277618465304 117.32195027204791 l -8.391448389869469 12.243373982292965 a35.84306614383063,35.84306614383063 0 0,0 -0.5045422047380833,-0.35220964362948165 l 8.600385685781317 -12.097519522858354" fill="#ffa90f" stroke="none" /><path d="M 87.83215693770417 117.11559508785305 l -8.511321046993846 11.972238954533484 a35.689352999688225,35.689352999688225 0 0,0 -0.49628422873220257,-0.35927150925373647 l 8.715586286100002 -11.824366673906683" fill="#ffa70f" stroke="none" /><path d="M 87.54013794807813 116.9041958592261 l -8.695512801265792 11.797133136504689 a35.655520909111154,35.655520909111154 0 0,0 -0.48957918490342267,-0.36738934751055846 l 8.896744975079981 -11.646124761730114" fill="#ffa70f" stroke="none" /><path d="M 87.2517909369889 116.68781488649013 l -3.586462918243519 4.694795086987104 a26.90794525810235,26.90794525810235 0 0,0 -0.36465398241693303,-0.2835571423173007 l 3.6665268452956803 -4.63253689304901" fill="#ff2c04" stroke="none" /><path d="M 86.40962598614128 116.0094264158162 l -9.469958974318192 11.155587859873696 a35.63308796784298,35.63308796784298 0 0,0 -0.46292559985917164,-0.39986410752490015 l 9.660064053940227 -10.991379619884075" fill="#ffa60f" stroke="none" /><path d="M 85.60350026404147 115.28858382429668 l -10.023553189534704 10.64466613177724 a35.621235775420516,35.621235775420516 0 0,0 -0.4415803695152739,-0.4230240050435569 l 10.204806044915292 -10.4710299964281" fill="#ffa60f" stroke="none" /><path d="M 85.34317274990678 115.03919595460226 l -10.248543477955199 10.515908455784594 a35.68390186803153,35.68390186803153 0 0,0 -0.4350174856907427,-0.4312994098640612 l 10.427552883775903 -10.338429035691874" fill="#ffa70f" stroke="none" /><path d="M 85.08716467003676 114.78537596483092 l -6.657430276348505 6.600529504787569 a30.374879606054307,30.374879606054307 0 0,0 -0.3639390772542078,-0.37343355454560423 l 6.769756154753522 -6.485273258174227" fill="#ff5e08" stroke="none" /><path d="M 84.58840730492382 114.26474011684316 l -6.92107873239807 6.40604714900173 a30.43073543766795,30.43073543766795 0 0,0 -0.3515507801071775,-0.38641588997007326 l 7.030027213347127 -6.286293683473983" fill="#ff5e08" stroke="none" /><path d="M 84.3458050057657 113.99807769240083 l -17.666115039430878 15.797149002930245 a44.698977556156,44.698977556156 0 0,0 -0.5065648624156343,-0.5763778245997763 l 17.934690965805103 -15.49155890051917" fill="#e3ff1b" stroke="none" /><path d="M 83.8745106332314 113.45245675266167 l -7.318671686168575 6.105496218180298 a30.531004108704366,30.531004108704366 0 0,0 -0.33228371908965915,-0.40533210871241165 l 7.422402224496865 -5.978961827769391" fill="#ff6008" stroke="none" /><path d="M 83.64595745247003 113.17365903436017 l -12.852113033131749 10.352752506144471 a37.50322071202696,37.50322071202696 0 0,0 -0.39955854439710026,-0.5048291682978997 l 13.02793800817041 -10.130603393931892" fill="#ffbf11" stroke="none" /><path d="M 83.4222238831116 112.89097897827486 l -7.44647583273143 5.790424647138379 a30.43286912458987,30.43286912458987 0 0,0 -0.317151106254858,-0.4151609787748867 l 7.544778916340583 -5.6617427551226225" fill="#ff5e08" stroke="none" /><path d="M 82.78059297857968 112.02048342749411 l -15.75579768851583 10.998770443497696 a40.21504910402779,40.21504910402779 0 0,0 -0.39029713056554916,-0.5694551776661967 l 15.942284555896704 -10.726680530761447" fill="#ffe315" stroke="none" /><path d="M 82.37810715431573 111.42229804090323 l -3.6949764428930334 2.3950390888443627 a25.40330139220868,25.40330139220868 0 0,0 -0.23405187588989423,-0.3679684238821969 l 3.7355460104088176 -2.331256990283494" fill="#ff1502" stroke="none" /><path d="M 82.18462484594161 111.11811171558189 l -14.186907001704785 8.853679228168998 a37.72291739351515,37.72291739351515 0 0,0 -0.33812673941247506,-0.5523046176192988 l 14.336801705572665 -8.608837494425142" fill="#ffc212" stroke="none" /><path d="M 81.99639281039703 110.81064883170644 l -13.20788436340798 7.930955066885079 a36.40611104822067,36.40611104822067 0 0,0 -0.31712546774545697,-0.5385483744811769 l 13.342083541283206 -7.7030555241103436" fill="#ffb110" stroke="none" /><line stroke="#e1ed5e" stroke-width="0.3" x1="26.387840678322732" x2="22.057713659400548" y1="142.50000000000003" y2="145.00000000000006" /><path d="M 25.521815274538298 143.00000000000003 a86.0,86.0 0 0,1 -11.493303480769221,-40.785679425670985" fill="none" id="id33" stroke="none" /><text fill="#e1ed5e" style="font-size:6.75px; font-family:Arial;" text-anchor="middle"><textPath startOffset="21.40746469413373" xlink:href="#id33">September</textPath></text><path d="M 81.63589988554817 110.18625677009913 l -6.1122659805024355 3.3903709049997217 a27.989592998871682,27.989592998871682 0 0,0 -0.22945421891095105,-0.42216991882886407 l 6.169565549028716 -3.284946152696271" fill="#ff3b05" stroke="none" /><path d="M 81.4637452351635 109.86951160357371 l -16.794929155674147 8.942353797249757 a40.027226197722584,40.027226197722584 0 0,0 -0.31772455373689895,-0.6092787253432328 l 16.945961778385996 -8.65272882880202" fill="#ffe015" stroke="none" /><path d="M 81.29705330413844 109.54985784667822 l -15.929289975510708 8.1336089621805 a38.88568908019953,38.88568908019953 0 0,0 -0.298457082893713,-0.5971140942612081 l 16.066566971616158 -7.858963011755538" fill="#ffd213" stroke="none" /><path d="M 80.9802524753101 108.90220220490708 l -7.897907662604119 3.6966195748349304 a29.72020307837344,29.72020307837344 0 0,0 -0.21230915092469532,-0.4639338104717969 l 7.96020127838387 -3.5604967821484443" fill="#ff5407" stroke="none" /><path d="M 80.83023694016515 108.57439118712176 l -12.511372885957678 5.596177953650408 a34.70589870020933,34.70589870020933 0 0,0 -0.23858837459340845,-0.5459368925331519 l 12.605595142568054 -5.380578991341407" fill="#ff9a0e" stroke="none" /><path d="M 79.94057633289273 106.21446072829308 l -9.886126711532182 3.0627473263096845 a31.349682243493625,31.349682243493625 0 0,0 -0.15484306709581075,-0.515422210383712 l 9.937246098631622 -2.892587512335249" fill="#ff6b09" stroke="none" /><path d="M 79.64726062577567 105.17358676015961 l -8.499232554193918 2.1604716792857266 a29.769526320575437,29.769526320575437 0 0,0 -0.12164746133366101,-0.4963631545393029 l 8.535067542043873 -2.0142527001383237" fill="#ff5507" stroke="none" /><path d="M 79.48165901384964 104.47187691870673 l -15.813159103491781 3.446404426872209 a37.18436604584527,37.18436604584527 0 0,0 -0.13057429875072943,-0.6248452879504867 l 15.869991113066877 -3.174442687636313" fill="#ffbb11" stroke="none" /><path d="M 79.407916724674 104.11899336999214 l -14.40431904496066 2.8812672254747946 a35.68965989986193,35.68965989986193 0 0,0 -0.1150119815529753,-0.6017912869225944 l 14.451657318795792 -2.6335733735188858" fill="#ffa70f" stroke="none" /><path d="M 79.34024301695615 103.76489593502545 l -15.181848045468026 2.7666384478514563 a36.4318760485176,36.4318760485176 0 0,0 -0.10684113026420256,-0.616231247438421 l 15.227103993224462 -2.5056141674924426" fill="#ffb110" stroke="none" /><path d="M 79.22317932658666 103.0534771498775 l -10.221746501914392 1.502244730608639 a31.331545904657276,31.331545904657276 0 0,0 -0.07363731405699574,-0.5328029221294684 l 10.2460283325266 -1.326553500279085" fill="#ff6b09" stroke="none" /><path d="M 79.0935383218832 101.97986365728391 l -13.817359658178054 1.3085183254841333 a34.879180383998694,34.879180383998694 0 0,0 -0.05133281471149627,-0.596565118034286 l 13.83778609558729 -1.0711321600741852" fill="#ff9c0e" stroke="none" /><path d="M 79.03789590574601 101.26102812881392 l -8.777187676932895 0.5280138149645599 a29.793055333892543,29.793055333892543 0 0,0 -0.026329131058544057,-0.5107781086518647 l 8.784958397448012 -0.37726391293596445" fill="#ff5507" stroke="none" /><path d="M 79.01933749520258 100.90099992219065 l -15.51991552531212 0.6664919507434155 a36.534219949299995,36.534219949299995 0 0,0 -0.02152963843802774,-0.6268119322271117 l 15.529069850746996 -0.3999737539521839" fill="#ffb310" stroke="none" /><path d="M 79.00696218219943 100.54070618675478 l -7.396603260242371 0.1905102624257816 a28.39905628776519,28.39905628776519 0 0,0 -0.008369023922388976,-0.4874536867854018 l 7.398783715763425 -0.0635096596713274" fill="#ff4106" stroke="none" /><line stroke="#e1ed5e" stroke-width="0.3" x1="15.003131293944662" x2="10.003315487706104" y1="100.72959589197737" y2="100.7725132973878" /><path d="M 14.003168132696942 100.73817937305945 a86.0,86.0 0 0,1 10.791469493833604,-42.45332614584628" fill="none" id="id34" stroke="none" /><text fill="#e1ed5e" style="font-size:6.75px; font-family:Arial;" text-anchor="middle"><textPath startOffset="22.145653131862435" xlink:href="#id34">October</textPath></text><path d="M 79.00077361379809 100.18025310272382 l -14.759337846842145 0.12669116433691666 a35.75988158246359,35.75988158246359 0 0,0 0.0,-0.6138885341214629 l 14.759337846842145 0.12669116433691122" fill="#ffa80f" stroke="none" /><path d="M 79.00077361379809 99.81974689727619 l -14.908252016542905 -0.12796941338449233 a35.90880123817866,35.90880123817866 0 0,0 0.010582098698684508,-0.616354197626467 l 14.903858486245555 0.3838705269800118" fill="#ffaa0f" stroke="none" /><path d="M 79.00696218219943 99.45929381324524 l -15.043437160774046 -0.3874655785162211 a36.048426202918776,36.048426202918776 0 0,0 0.021243359882478913,-0.618477244439695 l 15.034569113894717 0.6456490875200546" fill="#ffac0f" stroke="none" /><path d="M 79.03789590574601 98.7389718711861 l -30.492650939293622 -1.8343621605759237 a51.54777644676871,51.54777644676871 0 0,0 0.060718466668661084,-0.8828331794906272 l 30.4566685114599 2.357538764220876" fill="#93ff23" stroke="none" /><path d="M 79.06263194458094 98.37931529534042 l -15.451972755810628 -1.196080416405408 a36.498195714625055,36.498195714625055 0 0,0 0.05371557179084842,-0.6242563671169737 l 15.429163561322035 1.4611578308980622" fill="#ffb210" stroke="none" /><path d="M 79.0935383218832 98.0201363427161 l -7.294750096836579 -0.6908204184935011 a28.32738779005894,28.32738779005894 0 0,0 0.050001356791505504,-0.4837177693834938 l 7.28181634756341 0.8159427101599076" fill="#ff4006" stroke="none" /><path d="M 79.17382384314186 97.30363454192245 l -4.595515047246572 -0.5949814282825435 a25.633871108422287,25.633871108422287 0 0,0 0.060246290529412924,-0.435912146614767 l 4.5846242401619515 0.6737818830973775" fill="#ff1902" stroke="none" /><path d="M 79.48165901384962 95.52812308129327 l -13.78838294448354 -3.005113887002127 a35.112059158662056,35.112059158662056 0 0,0 0.1334076642479075,-0.5878187840422844 l 13.734764418677972 3.2413670049834193" fill="#ff9f0e" stroke="none" /><path d="M 79.56144815229197 95.17655741523228 l -21.91226559217937 -5.171235015748468 a43.51419674272904,43.51419674272904 0 0,0 0.17781242162619137,-0.7255353588725234 l 21.82026564403688 5.5466261992291095" fill="#f2ff19" stroke="none" /><path d="M 79.64726062577567 94.8264132398404 l -7.099291470438041 -1.804612130222003 a28.3250641173152,28.3250641173152 0 0,0 0.12383518299286404,-0.4702223602946173 l 7.067266806640451 1.926214994889405" fill="#ff4006" stroke="none" /><path d="M 79.73907114497095 94.47779374421319 l -7.092139136980284 -1.9329940591258667 a28.35084373190611,28.35084373190611 0 0,0 0.13200896433636491,-0.4684532440778737 l 7.057911680569338 2.0544552271067533" fill="#ff4106" stroke="none" /><path d="M 79.83685265289637 94.1308016681162 l -18.805891898979468 -5.474121051787701 a40.58641292850038,40.58641292850038 0 0,0 0.20046533841887243,-0.6672839137785945 l 18.709150240556966 5.796142569157018" fill="#ffe815" stroke="none" /><path d="M 80.05021161711548 93.44210830539832 l -6.243573746618205 -2.0523867036458503 a27.572252605519843,27.572252605519843 0 0,0 0.15166653028699456,-0.4483751474171648 l 6.2074217947588455 2.1592635255371766" fill="#ff3505" stroke="none" /><path d="M 80.41425534168474 92.42381321644754 l -5.3476011363106 -2.068566999081435 a26.733742873791883,26.733742873791883 0 0,0 0.16923900955983973,-0.42659285919434714 l 5.311303451784629 2.160060875489365" fill="#ff2904" stroke="none" /><path d="M 80.5471966667186 92.08871423366112 l -16.763519769003008 -6.817577552709603 a39.09682178541206,39.09682178541206 0 0,0 0.2581770829714202,-0.6195310130644618 l 16.64401684149511 7.104341075215329" fill="#ffd413" stroke="none" /><path d="M 80.68587082218212 91.75594674310238 l -9.493303135111814 -4.052126601680785 a31.321944313508617,31.321944313508617 0 0,0 0.21532511943912624,-0.4927060121485711 l 9.422344133655711 4.214494683605222" fill="#ff6b09" stroke="none" /><path d="M 80.83023694016515 91.42560881287825 l -3.3779860998187674 -1.5109302162003513 a24.70049999443265,24.70049999443265 0 0,0 0.1764504154767966,-0.3855760020467367 l 3.351551219486924 1.5686952004617594" fill="#ff0b01" stroke="none" /><path d="M 81.29705330413844 90.45014215332179 l -11.07164977673596 -5.65326326462935 a33.43144457888564,33.43144457888564 0 0,0 0.2653691454196059,-0.5088803265754734 l 10.972972562341413 5.84248983430931" fill="#ff880c" stroke="none" /><path d="M 81.46374523516351 90.13048839642627 l -10.348703151945017 -5.510101535387604 a32.724200435737934,32.724200435737934 0 0,0 0.2682677754824598,-0.49358249125846365 l 10.252590026847207 5.686938860120688" fill="#ff7f0b" stroke="none" /><line stroke="#e1ed5e" stroke-width="0.3" x1="26.387840678322718" x2="22.05771365940052" y1="57.49999999999999" y2="54.99999999999999" /><path d="M 25.521815274538284 56.99999999999999 a86.0,86.0 0 0,1 29.574782752854787,-30.34633250058573" fill="none" id="id35" stroke="none" /><text fill="#e1ed5e" style="font-size:6.75px; font-family:Arial;" text-anchor="middle"><textPath startOffset="21.40746469413373" xlink:href="#id35">November</textPath></text><path d="M 81.99639281039701 89.18935116829357 l -11.91922165907736 -7.157150139221411 a34.902972454607536,34.902972454607536 0 0,0 0.3128503596041964,-0.5110175507961556 l 11.79460333501777 7.36070480614211" fill="#ff9d0e" stroke="none" /><path d="M 82.18462484594161 88.88188828441811 l -11.792780821107991 -7.359567422669861 a34.900824153391625,34.900824153391625 0 0,0 0.321556762921767,-0.5055406404717167 l 11.664706366560335 7.56092173782025" fill="#ff9d0e" stroke="none" /><path d="M 82.37810715431573 88.57770195909679 l -7.664739020435153 -4.968191230296366 a30.134065269756668,30.134065269756668 0 0,0 0.2850905869080133,-0.4316634847898513 l 7.578323994606411 5.099034593425278" fill="#ff5a08" stroke="none" /><path d="M 82.78059297857968 87.97951657250589 l -14.402462753975724 -10.054037553901006 a38.56458381274403,38.56458381274403 0 0,0 0.38359806142655534,-0.5395787126977901 l 14.227749594019196 10.299793493308316" fill="#ffcd13" stroke="none" /><path d="M 83.2033758604659 87.39550010848427 l -5.752783607961851 -4.316996067787221 a28.192424785100286,28.192424785100286 0 0,0 0.2938026865622205,-0.3845971479028852 l 5.677828944045324 4.41511412893099" fill="#ff3e05" stroke="none" /><path d="M 83.64595745247003 86.82634096563983 l -6.282700369518693 -5.06089868866022 a29.06752870896863,29.06752870896863 0 0,0 0.31635600682415344,-0.38590288955828606 l 6.19489754345591 5.1680038599169995" fill="#ff4b07" stroke="none" /><path d="M 84.10781606972428 86.27271002978789 l -15.498433909620625 -13.387178080428843 a41.479697034087025,41.479697034087025 0 0,0 0.47008137926010934,-0.5348663179494187 l 15.266341466401922 13.651256676189561" fill="#fff316" stroke="none" /><path d="M 84.58840730492382 85.73525988315684 l -7.521529977977013 -6.961815857693014 a31.248916686461687,31.248916686461687 0 0,0 0.36776130767239446,-0.39054976437353994 l 7.400912836568347 7.089907082011066" fill="#ff6a09" stroke="none" /><path d="M 84.83555147118756 85.47280134310135 l -6.349917235017726 -6.083077070207911 a29.79347914841813,29.79347914841813 0 0,0 0.35697298063715954,-0.3662857257368954 l 6.244557453229763 6.191185488012536" fill="#ff5507" stroke="none" /><path d="M 85.60350026404147 84.71141617570332 l -6.8236905652884925 -7.246522912642522 a30.953634876479057,30.953634876479057 0 0,0 0.3899719170444979,-0.36095218447371463 l 6.698288876930041 7.362592843248603" fill="#ff6609" stroke="none" /><path d="M 86.13680546590413 84.22622945171909 l -41.58958360228762 -47.32131164484273 a84.0,84.0 0 0,0 1.0912820809486057,-0.9426234701411573 l 40.77112204157617 48.0282792474486" fill="#4dd2ff" stroke="none" /><path d="M 88.12776184653039 82.6780497279521 l -14.069280035634053 -20.527500037517957 a45.88619895667859,45.88619895667859 0 0,0 0.6535586872886963,-0.439743452205328 l 13.714825060248367 20.765993163780394" fill="#d5ff1c" stroke="none" /><path d="M 88.72937992617638 82.28071324371311 l -15.317485303543883 -24.081631063855493 a49.54032779629436,49.54032779629436 0 0,0 0.7214861576963618,-0.4502607232880394 l 14.901835017057824 24.341027583985067" fill="#a9ff21" stroke="none" /><line stroke="#e1ed5e" stroke-width="0.3" x1="56.869717070023135" x2="54.33264160355391" y1="26.7553504044142" y2="22.446841604673864" /><path d="M 56.362301976729285 25.89364864446614 a86.0,86.0 0 0,1 42.16139366436587,-11.88097634709845" fill="none" id="id36" stroke="none" /><text fill="#e1ed5e" style="font-size:6.75px; font-family:Arial;" text-anchor="middle"><textPath startOffset="22.145653131862474" xlink:href="#id36">December</textPath></text><path d="M 89.97174638481275 81.54914285379989 l -7.209842783783844 -13.265298660645552 a36.098012502412516,36.098012502412516 0 0,0 0.546990062197342,-0.2912413987823036 l 6.98106390579994 13.387110527150432" fill="#ffad10" stroke="none" /><path d="M 90.28995756902619 81.37971332152246 l -6.179365886748423 -11.849748867773041 a34.364172663939904,34.364172663939904 0 0,0 0.5254000186059691,-0.26827299312355785 l 5.975038646428872 11.954079812569432" fill="#ff950d" stroke="none" /><path d="M 90.93487009805054 81.0573650232925 l -5.447521363341437 -11.383224490958666 a33.61955977107056,33.61955977107056 0 0,0 0.5227221761869272,-0.24466037224544665 l 5.251310473282987 11.475061094774656" fill="#ff8b0c" stroke="none" /><path d="M 91.5904679813234 80.7573450057729 l -6.155046408790048 -14.083950718632515 a36.37017449930965,36.37017449930965 0 0,0 0.5742416273286621,-0.24510960418873393 l 5.912369706290955 14.187534972480654" fill="#ffb010" stroke="none" /><path d="M 92.25597844496254 80.48000691201159 l -1.641671894350223 -4.138085593216836 a25.451835462535445,25.451835462535445 0 0,0 0.4075053834740594,-0.15763183654045457 l 1.5703942483826343 4.165657317895331" fill="#ff1602" stroke="none" /><path d="M 92.592206182469 80.34994680014964 l -1.0534388267804071 -2.794371644096631 a23.986343290229673,23.986343290229673 0 0,0 0.38653518007437915,-0.14194107219343724 l 1.0053144950519008 2.81204356529879" fill="#ff0000" stroke="none" /><path d="M 93.61358852112211 79.99465700312896 l -2.669369681840089 -8.361762508926576 a29.777505725091675,29.777505725091675 0 0,0 0.4882934774359236,-0.15127456749333487 l 2.525435571532549 8.406353664226552" fill="#ff5507" stroke="none" /><path d="M 94.6519064749342 79.69241777938228 l -3.73550521230847 -14.184321736139962 a35.667957673293046,35.667957673293046 0 0,0 0.5934378863099928,-0.15084959007919874 l 3.491462032773099 14.246356558054423" fill="#ffa70f" stroke="none" /><path d="M 95.00130118170881 79.60360301121753 l -2.10123208743089 -8.573743963926082 a29.82747199622905,29.82747199622905 0 0,0 0.49835718374762644,-0.11761093840818018 l 1.9537427499433577 8.608551045980494" fill="#ff5607" stroke="none" /><path d="M 95.35216902796891 79.52079915486377 l -3.4003721183963593 -14.982666964416138 a36.363685752779965,36.363685752779965 0 0,0 0.6099360377324291,-0.13293272057736918 l 3.142673664044812 15.038831143127222" fill="#ffb010" stroke="none" /><path d="M 97.12497278360702 79.19773525538626 l -2.5622537751036787 -18.53919193135983 a39.71541562124204,39.71541562124204 0 0,0 0.6761496141628017,-0.0875411045402478 l 2.243626339050083 18.580444632100473" fill="#ffdc14" stroke="none" /><path d="M 99.27912038922189 79.0123766808444 l -0.5052626189883892 -14.71016986197206 a35.718844644951524,35.718844644951524 0 0,0 0.612980764134097,-0.015788210091631807 l 0.2526685407835484 14.716675789413738" fill="#ffa80f" stroke="none" /></svg>