<?xml version="1.0" encoding="utf-8" ?>
<svg baseProfile="full" height="200mm" version="1.1" viewBox="0,0,200,200" width="200mm" xmlns="http://www.w3.org/2000/svg" xmlns:ev="http://www.w3.org/2001/xml-events" xmlns:xlink="http://www.w3.org/1999/xlink"><defs /><rect fill="#1a1a1a" height="200" width="200" x="0" y="0" /><rect fill="#1a1a1a" height="200" width="180" x="10" y="0" /><text alignment-baseline="middle" fill="#e1ed5e" style="dominant-baseline: central; font-size:9.0px; font-family:Arial;" text-anchor="middle" x="100.0" y="100.0">2015</text><line stroke="#e1ed5e" stroke-width="0.3" x1="100.0" x2="100.0" y1="15.0" y2="10.0" /><path d="M 100.0 14.0 a86.0,86.0 0 0,1 42.46469731375804,11.215312516191453" fill="none" id="id13" stroke="none" /><text fill="#e1ed5e" style="font-size:6.75px; font-family:Arial;" text-anchor="middle"><textPath startOffset="22.20632615414155" xlink:href="#id13">January</textPath></text><line stroke="#e1ed5e" stroke-width="0.3" x1="143.23703022742887" x2="145.7803849466894" y1="26.81831364943548" y2="22.513508569990506" /><path d="M 143.74570117128098 25.957352633546492 a86.0,86.0 0 0,1 28.547481713284135,27.462654790039103" fill="none" id="id14" stroke="none" /><text fill="#e1ed5e" style="font-size:6.75px; font-family:Arial;" text-anchor="middle"><textPath startOffset="19.985693538727396" xlink:href="#id14">February</textPath></text><line stroke="#e1ed5e" stroke-width="0.3" x1="172.23445277983987" x2="176.4835382374775" y1="55.19839476539836" y2="52.563006222186495" /><path d="M 173.08426987136738 54.67131705675599 a86.0,86.0 0 0,1 12.851231095245387,41.99856678651699" fill="none" id="id15" stroke="none" /><text fill="#e1ed5e" style="font-size:6.75px; font-family:Arial;" text-anchor="middle"><textPath startOffset="22.20632615414155" xlink:href="#id15">March</textPath></text><line stroke="#e1ed5e" stroke-width="0.3" x1="184.98032266829074" x2="189.97916517819016" y1="98.17113171792111" y2="98.06355123074" /><path d="M 185.9800911702706 98.14961562048488 a86.0,86.0 0 0,1 -9.607161424134198,41.387399972396054" fill="none" id="id16" stroke="none" /><text fill="#e1ed5e" style="font-size:6.75px; font-family:Arial;" text-anchor="middle"><textPath startOffset="21.466115282336823" xlink:href="#id16">April</textPath></text><line stroke="#e1ed5e" stroke-width="0.3" x1="174.80103733775053" x2="179.2010983576182" y1="140.37084112569926" y2="142.7455964860345" /><path d="M 175.68104954172406 140.8457921977663 a86.0,86.0 0 0,1 -30.038265399797805,32.042727171017184" fill="none" id="id17" stroke="none" /><text fill="#e1ed5e" style="font-size:6.75px; font-family:Arial;" text-anchor="middle"><textPath startOffset="22.206326154141568" xlink:href="#id17">May</textPath></text><path d="M 117.75023020441432 111.22182372390056 l 26.8447308708454 16.971432723912553 a52.75955138584942,52.75955138584942 0 0,0 -0.49190778913132954,0.7634518125711339 l -26.54861821833702 -17.43100613640514" fill="#95ff23" stroke="none" /><path d="M 117.55443506779139 111.5257021239791 l 28.131563766056637 18.4703194945986 a54.65319571981626,54.65319571981626 0 0,0 -0.5231010770982447,0.7819651349757134 l -27.80945958354767 -18.95182154378012" fill="#7fff26" stroke="none" /><path d="M 116.93607887273984 112.41649034213515 l 24.02683563454758 17.61499665005789 a50.79222948339241,50.79222948339241 0 0,0 -0.5230117792962369,0.7006597477307629 l -23.72006258855625 -18.025969277297968" fill="#adff20" stroke="none" /><path d="M 116.71984013943494 112.70617746262583 l 26.05681317530996 19.801773794182008 a53.72717155895022,53.72717155895022 0 0,0 -0.5659087656664319,0.7315133648931642 l -25.712097592425458 -20.247365153188426" fill="#8aff24" stroke="none" /><path d="M 116.27256486870786 113.27417163493432 l 40.30750230989196 32.880416096292 a73.01746346302599,73.01746346302599 0 0,0 -0.8028583043447498,0.9670945474451069 l -39.73554800565367 -33.56937190085088" fill="#3effb8" stroke="none" /><path d="M 115.07121518719521 114.62390073753431 l 23.20049058941049 22.511898823520106 a53.32720761571792,53.32720761571792 0 0,0 -0.6449021101724478,0.6532824327909585 l -22.809547854182505 -22.907921750291727" fill="#8eff24" stroke="none" /><path d="M 114.55890576462653 115.13401014063108 l 16.054846917696093 16.689043804998153 a44.1577695963105,44.1577695963105 0 0,0 -0.552317319341803,0.5222504993465507 l -15.765193763963484 -16.962928941090624" fill="#fffe18" stroke="none" /><path d="M 114.0293411484842 115.62618273729858 l 9.966522992028848 11.100928253195786 a35.918518312260105,35.918518312260105 0 0,0 -0.4636185267048984,0.4090894458152801 l -9.773962112417362 -11.270840840783356" fill="#ff8c0c" stroke="none" /><path d="M 113.20401910651253 116.32954008644616 l 22.42611428013249 27.7345957444142 a56.667049258547316,56.667049258547316 0 0,0 -0.7637706524975525,0.6067855986499172 l -21.945386134917587 -28.116515257069242" fill="#68ff28" stroke="none" /><path d="M 112.34349029814194 116.9893568818739 l 3.5050024615362845 4.8242220192655 a26.96306635436346,26.96306635436346 0 0,0 -0.37783302788030326,0.26957383330350837 l -3.4214421058070967 -4.8838401144132275" fill="#ff0500" stroke="none" /><path d="M 111.45004920935366 117.60387380957326 l 16.249602278480875 24.982944853411567 a50.80263591961983,50.80263591961983 0 0,0 -0.7371660794615446,0.47049426971825464 l -15.817154396972398 -25.25895355195363" fill="#adff20" stroke="none" /><line stroke="#e1ed5e" stroke-width="0.3" x1="143.8653032363475" x2="146.44561519142675" y1="172.8068346515853" y2="177.08958963109032" /><path d="M 144.38136562736335 173.6633856474863 a86.0,86.0 0 0,1 -40.68145358897372,12.25698825130547" fill="none" id="id18" stroke="none" /><text fill="#e1ed5e" style="font-size:6.75px; font-family:Arial;" text-anchor="middle"><textPath startOffset="21.466115282336833" xlink:href="#id18">June</textPath></text><line stroke="#e1ed5e" stroke-width="0.3" x1="102.19456741930631" x2="102.32365962044197" y1="184.97166512339345" y2="189.96999836594603" /><path d="M 102.22038585953345 185.97133177190398 a86.0,86.0 0 0,1 -42.740103519485714,-10.115201625700543" fill="none" id="id19" stroke="none" /><text fill="#e1ed5e" style="font-size:6.75px; font-family:Arial;" text-anchor="middle"><textPath startOffset="22.20632615414155" xlink:href="#id19">July</textPath></text><line stroke="#e1ed5e" stroke-width="0.3" x1="58.666819895761336" x2="56.23545636021788" y1="174.27360380694188" y2="178.64263932499728" /><path d="M 58.180547188652646 175.14741091055294 a86.0,86.0 0 0,1 -31.652253787137756,-30.449443065178592" fill="none" id="id20" stroke="none" /><text fill="#e1ed5e" style="font-size:6.75px; font-family:Arial;" text-anchor="middle"><textPath startOffset="22.20632615414155" xlink:href="#id20">August</textPath></text><path d="M 83.06392112726016 112.41649034213515 l -26.146658007770554 19.169119905029905 a53.42071687839005,53.42071687839005 0 0,0 -0.5373111862141637,-0.7462782430870866 l 26.472748986360326 -18.71620805649168" fill="#8dff24" stroke="none" /><path d="M 82.85270091963577 112.12312394758628 l -24.427946189444867 17.27053444695138 a50.916482331947854,50.916482331947854 0 0,0 -0.49980368944776044,-0.7200044917701195 l 24.72161078605476 -16.847488692994247" fill="#abff21" stroke="none" /><path d="M 82.44556493220864 111.52570212397912 l -27.26509314028762 17.90142153273174 a53.61665520621498,53.61665520621498 0 0,0 -0.49989906339841417,-0.7758544476965694 l 27.569197067063083 -17.42944548511372" fill="#8bff24" stroke="none" /><line stroke="#e1ed5e" stroke-width="0.3" x1="26.63291911575756" x2="22.317208475507996" y1="142.92168965132927" y2="145.44649492493687" /><path d="M 25.769776987707644 143.4266507060508 a86.0,86.0 0 0,1 -11.730757126820373,-40.83630448921669" fill="none" id="id21" stroke="none" /><text fill="#e1ed5e" style="font-size:6.75px; font-family:Arial;" text-anchor="middle"><textPath startOffset="21.46611528233685" xlink:href="#id21">September</textPath></text><path d="M 80.32549172779594 107.34259656027581 l -19.519944677222025 7.284912876131984 a41.83502329767457,41.83502329767457 0 0,0 -0.2459814484544772,-0.6768353013183499 l 19.642450386681727 -6.947829777807517" fill="#ffdf14" stroke="none" /><path d="M 80.20201598880116 107.00284435728193 l -33.35593583463486 11.798495589717692 a56.38111012369264,56.38111012369264 0 0,0 -0.3157588339117058,-0.9177429747812635 l 33.554085499489794 -11.22257991184713" fill="#6bff28" stroke="none" /><path d="M 80.0844068197444 106.66101706037122 l -43.27767979460008 14.474756580733409 a66.63415548112424,66.63415548112424 0 0,0 -0.3544548340109353,-1.0908998073076475 l 43.52042687962727 -13.727657873447958" fill="#36ff6c" stroke="none" /><path d="M 79.97269907076064 106.31721596034903 l -29.169885008966574 9.201063278135315 a51.586627092319006,51.586627092319006 0 0,0 -0.2598325734798703,-0.8491478839443077 l 29.323944354952573 -8.69758842163896" fill="#a3ff21" stroke="none" /><path d="M 79.86692584326677 105.97154293290107 l -20.596806987514828 6.109087775126871 a42.4837010667423,42.4837010667423 0 0,0 -0.20191362756145506,-0.7028878261208111 l 20.698913251962388 -5.753642473501464" fill="#ffe715" stroke="none" /><path d="M 79.76711848015287 105.62410040840567 l -14.417067141599087 4.007488163242706 a35.96368224548712,35.96368224548712 0 0,0 -0.16065820063249064,-0.5978689308711166 l 14.483913418573353 -3.7587282991960502" fill="#ff8d0d" stroke="none" /><path d="M 79.67330655649465 105.27499134158121 l -14.54909871305125 3.7756445706459547 a36.03102675421602,36.03102675421602 0 0,0 -0.15062459444534324,-0.6016703809824434 l 14.61193462179165 -3.5246463502661194" fill="#ff8e0d" stroke="none" /><path d="M 79.58551787078972 104.9243191809786 l -14.871316195312112 3.587213583154756 a36.29784777908717,36.29784777908717 0 0,0 -0.1412840731143543,-0.6086480892289066 l 14.93086083435702 -3.330696836577275" fill="#ff920d" stroke="none" /><path d="M 79.50377843672027 104.57218783832718 l -38.11100972880388 8.501600875577324 a60.047743596738094,60.047743596738094 0 0,0 -0.21636048769883312,-1.010764168413736 l 38.25170425522715 -7.844322887747425" fill="#43ff2d" stroke="none" /><path d="M 79.4281124754447 104.21870165774334 l -35.70753050967601 7.322586125132314 a57.4506241737974,57.4506241737974 0 0,0 -0.1903258940171849,-0.970467633192026 l 35.82828633666887 -6.706854764872333" fill="#5fff29" stroke="none" /><path d="M 79.35854240842038 103.8639653848113 l -15.908735834172582 2.9780263485087413 a37.18507079916239,37.18507079916239 0 0,0 -0.11235833495600003,-0.6301652119085622 l 15.95764061146777 -2.703742385866965" fill="#ff9e0e" stroke="none" /><path d="M 79.29508885075956 103.50808413554451 l -27.464022529831798 4.653297038595328 a48.855443038094165,48.855443038094165 0 0,0 -0.13334801356406897,-0.83035820775409 l 27.540052297757157 -4.179859601148024" fill="#c4ff1e" stroke="none" /><path d="M 79.23777060512086 103.15116336523772 l -31.484293939388706 4.778492316757069 a52.84485443023935,52.84485443023935 0 0,0 -0.12875510122918468,-0.9005128781141781 l 31.561883091634492 -4.23583396666249" fill="#94ff23" stroke="none" /><path d="M 79.18660465613746 102.79330883721812 l -5.577586155502213 0.7485525759305772 a26.62759258306625,26.62759258306625 0 0,0 -0.05705721326799058,-0.4548021288387688 l 5.589644878017052 -0.6524326928043999" fill="#ff0000" stroke="none" /><path d="M 79.1416061653843 102.43462659150553 l -14.869926668883751 1.735642694679644 a35.97087755282151,35.97087755282151 0 0,0 -0.06649079426609553,-0.615622176072199 l 14.897599764650899 -1.479424196722663" fill="#ff8d0d" stroke="none" /><path d="M 79.10278846688536 102.07522291339032 l -23.769245341417164 2.3604337108967846 a44.8861606668803,44.8861606668803 0 0,0 -0.06973471968233481,-0.7695168207941052 l 23.806354657376573 -1.950935501554113" fill="#f7ff19" stroke="none" /><path d="M 79.07016306316243 101.71520430193888 l -25.797714779283584 2.114127859818158 a46.88419642254567,46.88419642254567 0 0,0 -0.05899246732099592,-0.8049053468614374 l 25.830283805268916 -1.6697493764599598" fill="#ddff1b" stroke="none" /><path d="M 79.04373962182676 101.35467743843564 l -30.095334939788827 1.9454554633974093 a51.158149513823574,51.158149513823574 0 0,0 -0.04924251826264876,-0.8792582428323529 l 30.12436380893901 -1.427125504229619" fill="#a8ff21" stroke="none" /><path d="M 79.0235259727143 100.99374915477108 l -29.69960347807818 1.4070027124189377 a50.7329127968961,50.7329127968961 0 0,0 -0.03381678920964587,-0.8726610679758877 l 29.719422400139027 -0.8955643974290532" fill="#adff20" stroke="none" /><path d="M 79.0095281055655 100.63252640178507 l -23.81864856935966 0.7177506132653904 a44.8294604557783,44.8294604557783 0 0,0 -0.016603844442380035,-0.7715154076834272 l 23.827474476487048 -0.3076453897918342" fill="#f8ff18" stroke="none" /><line stroke="#e1ed5e" stroke-width="0.3" x1="15.007084014347285" x2="10.007500721073583" y1="101.09737516637583" y2="101.16192664675087" /><path d="M 14.007167355692545 101.11028546245083 a86.0,86.0 0 0,1 10.666146001902534,-42.60595125391555" fill="none" id="id22" stroke="none" /><text fill="#e1ed5e" style="font-size:6.75px; font-family:Arial;" text-anchor="middle"><textPath startOffset="22.20632615414155" xlink:href="#id22">October</textPath></text><path d="M 79.00175016825051 100.2711162175752 l -30.041650517872736 0.38787892911945804 a51.04415443812087,51.04415443812087 0 0,0 -0.0037814061625910207,-0.8786656201184996 l 30.04387622132483 0.12929616920271692" fill="#aaff21" stroke="none" /><path d="M 79.00019446554 99.90962569577889 l -14.922840022785342 -0.0642216082358113 a35.92297821350043,35.92297821350043 0 0,0 0.007983442077755516,-0.6183263869840003 l 14.91952357358987 0.32108425328028356" fill="#ff8c0c" stroke="none" /><path d="M 79.00486145842228 99.54816195383935 l -29.823530283818315 -0.6418345669102101 a50.83043597068452,50.83043597068452 0 0,0 0.026355110371503947,-0.8745978064576523 l 29.808063478991166 1.155102520792857" fill="#acff20" stroke="none" /><path d="M 79.01574976396665 99.18683210126434 l -14.89193961655985 -0.5770826743812837 a35.903116786643515,35.903116786643515 0 0,0 0.029246322923369972,-0.6173436528225701 l 14.879799685402979 0.8333374338268629" fill="#ff8c0c" stroke="none" /><path d="M 79.03285615573316 98.82574320788736 l -19.16502596436404 -1.0733298763447567 a40.19505814625739,40.19505814625739 0 0,0 0.04463452383399857,-0.690476328004071 l 19.14371084952563 1.4030652686018394" fill="#ffc812" stroke="none" /><path d="M 79.05617556472873 98.46500227214037 l -17.944359980209725 -1.3151634212102055 a38.99249037581629,38.99249037581629 0 0,0 0.05482254311948896,-0.6689738864674406 l 17.91906295327074 1.6238512248854244" fill="#ffb811" stroke="none" /><path d="M 79.08570108090925 98.10471618934814 l -19.081070991734855 -1.7291540625118889 a40.15926000563505,40.15926000563505 0 0,0 0.06831448561314292,-0.6879175472776126 l 19.048479380439485 2.0573471404939316" fill="#ffc812" stroke="none" /><path d="M 79.12142395522702 97.74499172005258 l -34.389448512494894 -3.7142614981118935 a55.58944792086011,55.58944792086011 0 0,0 0.11093972090898216,-0.9504637790023246 l 34.32041843858232 4.30566901543908" fill="#74ff27" stroke="none" /><path d="M 79.16333360222342 97.38593545837743 l -15.372954167624602 -1.928614377291388 a36.493459047487804,36.493459047487804 0 0,0 0.08355959615344309,-0.6226160481585422 l 15.337478572413325 2.1929487675145896" fill="#ff940d" stroke="none" /><path d="M 79.21141760316559 97.0276538004421 l -19.77055180651682 -2.826788445863983 a40.97161615022269,40.97161615022269 0 0,0 0.10583184344841359,-0.6972996180390516 l 19.718964069629106 3.1666871762951265" fill="#ffd313" stroke="none" /><path d="M 79.26566170972629 96.67025291283419 l -17.63168471777771 -2.831489001912645 a38.85759322963395,38.85759322963395 0 0,0 0.11173989147342758,-0.6594951647087717 l 17.580332964784056 3.1345699549372448" fill="#ffb610" stroke="none" /><path d="M 79.32604984820605 96.31383870115002 l -29.327972148750938 -5.229171740993826 a50.790504988246155,50.790504988246155 0 0,0 0.16087112721646454,-0.8593799942414484 l 29.233615297624613 5.733229812697847" fill="#adff20" stroke="none" /><path d="M 79.3925641242962 95.95851677861259 l -29.20861072321177 -5.728325972717125 a50.765024085826425,50.765024085826425 0 0,0 0.17555199009547495,-0.8560538497258263 l 29.105679437201303 6.230255478606354" fill="#adff20" stroke="none" /><path d="M 79.46518482838121 95.60439243477599 l -18.768227626797476 -4.017458285001636 a40.193393116460996,40.193393116460996 0 0,0 0.15064026874757835,-0.6752907872070399 l 18.69629297104786 4.339927241758635" fill="#ffc812" stroke="none" /><path d="M 79.54389044137918 95.25157060432595 l -13.820321358722227 -3.208079229794808 a35.1877783603704,35.1877783603704 0 0,0 0.14203663984055703,-0.5888335705204788 l 13.763051918620857 3.445498031974684" fill="#ff820b" stroke="none" /><path d="M 79.62865764111835 94.90015583598534 l -18.602031809753427 -4.656907811596662 a40.17608869964854,40.17608869964854 0 0,0 0.17372077262057053,-0.6694170020701392 l 18.51911470526255 4.976421239215665" fill="#ffc812" stroke="none" /><path d="M 79.71946130924805 94.55025226153421 l -28.753255005736783 -7.7265199327520495 a50.7732897694585,50.7732897694585 0 0,0 0.2340726738833921,-0.8420839483303352 l 28.615995561287033 8.220315184501327" fill="#adff20" stroke="none" /><path d="M 79.91906864156998 93.8553929516997 l -22.222622785666758 -6.799947779474045 a44.23971284843273,44.23971284843273 0 0,0 0.2290869605683997,-0.7262682686590666 l 22.102280341330154 7.181466214559526" fill="#ffff18" stroke="none" /><path d="M 80.02781315780177 93.51064311812611 l -18.160488052038914 -5.9007002613098045 a40.09506716044931,40.09506716044931 0 0,0 0.21892423366760264,-0.6545555934637113 l 18.056226524599538 6.212428957695837" fill="#ffc712" stroke="none" /><path d="M 80.14247586403 93.16781622104843 l -27.841156375637567 -9.579033905456885 a50.44295975092513,50.44295975092513 0 0,0 0.28955920918137146,-0.8186228768182003 l 27.672144085646387 10.056854408701698" fill="#b1ff20" stroke="none" /><path d="M 80.2630227832202 92.82701384747504 l -22.40651837436919 -8.143174319976685 a44.84037234747964,44.84037234747964 0 0,0 0.26988653879047275,-0.7231617448133651 l 22.263027247077087 8.527659201819391" fill="#f7ff18" stroke="none" /><path d="M 80.38941819471856 92.48833698450439 l -17.958739432140604 -6.8789391429989415 a40.231123880954144,40.231123880954144 0 0,0 0.2532768605986128,-0.644561983995659 l 17.837669021660297 7.187050131890365" fill="#ffc912" stroke="none" /><path d="M 80.52162464483688 92.15188598940014 l -31.100319468300974 -12.530760317677437 a54.52983485150889,54.52983485150889 0 0,0 0.35828260129453865,-0.8676097377557336 l 30.880015180120235 13.06424462588648" fill="#80ff25" stroke="none" /><path d="M 80.803312248108 91.48605970444005 l -17.547528090978112 -7.782520007209264 a40.19592039383052,40.19592039383052 0 0,0 0.28596082735065914,-0.630076777523103 l 17.4109649466641 8.083418793574438" fill="#ffc812" stroke="none" /><path d="M 80.95270993114464 91.15688171328213 l -26.09601920025116 -12.115643945467031 a49.771358089482135,49.771358089482135 0 0,0 0.36745910729248865,-0.7739625937138734 l 25.883601899116922 12.563048954821436" fill="#b9ff1f" stroke="none" /><path d="M 81.10775173730289 90.83032412892265 l -22.03597366796897 -10.695536774087664 a45.494461463385626,45.494461463385626 0 0,0 0.3480109381033204,-0.7015688153009971 l 21.84860271691224 11.073265177887622" fill="#efff19" stroke="none" /><path d="M 81.6062741919709 89.86733742301443 l -34.944928748337006 -19.250323478734177 a60.896403337421965,60.896403337421965 0 0,0 0.5136825011427821,-0.9137838512992419 l 34.608388605901794 19.848990839968206" fill="#3aff2e" stroke="none" /><line stroke="#e1ed5e" stroke-width="0.3" x1="26.266209847984243" x2="21.928928074336255" y1="57.711370442889674" y2="55.22380399835377" /><path d="M 25.398753493254645 57.213857153982495 a86.0,86.0 0 0,1 29.58750427330803,-30.492523968695096" fill="none" id="id23" stroke="none" /><text fill="#e1ed5e" style="font-size:6.75px; font-family:Arial;" text-anchor="middle"><textPath startOffset="21.46611528233685" xlink:href="#id23">November</textPath></text><path d="M 81.78341655067845 89.55222093294921 l -12.95163498303315 -7.428166825917959 a35.93058977828392,35.93058977828392 0 0,0 0.3123229311714838,-0.5338611303376855 l 12.821852377391341 7.650007368609536" fill="#ff8c0c" stroke="none" /><path d="M 81.96595687620814 89.24020034530311 l -16.468091302852724 -9.825492924555828 a40.176504957097634,40.176504957097634 0 0,0 0.35945383626257793,-0.590847594793213 l 16.296521668303928 10.107508292556115" fill="#ffc812" stroke="none" /><path d="M 82.15384107792192 88.93136811851018 l -20.28545063062349 -12.581541303138941 a44.87037261648955,44.87037261648955 0 0,0 0.41274846360317236,-0.6528689476622872 l 20.065874570774355 12.928857898515444" fill="#f7ff18" stroke="none" /><path d="M 82.34701348167596 88.62581576622439 l -52.738438959358916 -33.98046672175372 a83.7376686090441,83.7376686090441 0 0,0 0.7911350094913244,-1.204952896108452 l 52.14570731450967 34.88323768183984" fill="#4dd5ff" stroke="none" /><path d="M 82.7489923806493 88.02491185347247 l -26.949964576276873 -18.707788464756163 a53.806736197077605,53.806736197077605 0 0,0 0.5347041339939029,-0.7563010775721788 l 26.623947822479092 19.168916042660125" fill="#89ff24" stroke="none" /><path d="M 82.95767976084542 87.72973835380427 l -18.83346493455668 -13.559863868801871 a44.207096104028494,44.207096104028494 0 0,0 0.449938534744466,-0.6137156557403615 l 18.59726378729858 13.882041968213734" fill="#fffe18" stroke="none" /><path d="M 83.17141714833178 87.43820079747576 l -25.81341433710164 -19.268581941353837 a53.21196376766793,53.21196376766793 0 0,0 0.5542255592339026,-0.7292958703620018 l 25.47791283764363 19.710062587596866" fill="#90ff24" stroke="none" /><path d="M 83.39014120810768 87.1503855733568 l -11.949281422859864 -9.244127893137065 a36.107588392174925,36.107588392174925 0 0,0 0.38453880016678194,-0.4883252256852535 l 11.78838854209911 9.448445512775367" fill="#ff8f0d" stroke="none" /><path d="M 83.6137871275137 86.86637796730984 l -18.2237758122031 -14.606436849592857 a44.354956696482716,44.354956696482716 0 0,0 0.4826273566206005,-0.5916440727158482 l 17.969649963506107 14.917965091916788" fill="#feff18" stroke="none" /><path d="M 83.84228863543731 86.58626213691792 l -10.2185000688723 -8.48314951202552 a34.28087230948788,34.28087230948788 0 0,0 0.38082684143841233,-0.4507788612939114 l 10.070962613946763 8.657787322948549" fill="#ff740a" stroke="none" /><path d="M 84.31358615837235 86.03803664274999 l -33.777640377625104 -30.064371755592795 a66.21941439844899,66.21941439844899 0 0,0 0.7651696199269088,-0.8449194055574588 l 33.255127117082154 30.64134394841981" fill="#35ff67" stroke="none" /><path d="M 84.5562425177563 85.77008943001954 l -13.16710753723796 -12.132200530579093 a38.904273529282676,38.904273529282676 0 0,0 0.4580194157827837,-0.4885831782768361 l 12.956320799484722 12.35705312573398" fill="#ffb610" stroke="none" /><path d="M 84.80347519578584 85.50635884689758 l -10.878597495388998 -10.375430592097155 a36.03307830878657,36.03307830878657 0 0,0 0.43194349995740866,-0.44515574561168736 l 10.69838973172847 10.561150533258967" fill="#ff8e0d" stroke="none" /><path d="M 85.57189188830299 84.74124197986013 l -7.4788032595257485 -7.909370260735755 a31.885340422609858,31.885340422609858 0 0,0 0.4020469888773467,-0.3736588594977594 l 7.341548386853546 8.036933706308162" fill="#ff5107" stroke="none" /><path d="M 86.65592168130627 83.78471172551755 l -9.48299581678767 -11.523426886629357 a35.92369179769888,35.92369179769888 0 0,0 0.48085846073092786,-0.38882076711330404 l 9.283233957492241 11.684953751006796" fill="#ff8c0c" stroke="none" /><path d="M 86.93701828274178 83.55741782278169 l -11.12310937982761 -14.000834112963176 a38.88146856760714,38.88146856760714 0 0,0 0.5276167975885768,-0.41181327943685014 l 10.880460027079607 14.190225781623248" fill="#ffb610" stroke="none" /><path d="M 87.22198572758235 83.33499621200491 l -18.10745708261825 -23.61562872285767 a50.75866129339023,50.75866129339023 0 0,0 0.6979408894543603,-0.5256746081049376 l 17.698270039405497 23.923819920468464" fill="#adff20" stroke="none" /><path d="M 87.51073957382395 83.11751280151077 l -23.2813890807951 -31.47085893859558 a60.14636687949913,60.14636687949913 0 0,0 0.8376231761053953,-0.6085688598834953 l 22.736220588335925 31.86694703329574" fill="#42ff2d" stroke="none" /><path d="M 87.80319425747018 82.90503203632743 l -10.387185095920689 -14.558614787831374 a38.88426343905108,38.88426343905108 0 0,0 0.5482104554537427,-0.38405645786757425 l 10.135043500883286 14.73525608846289" fill="#ffb610" stroke="none" /><path d="M 88.09926311788651 82.69761687909137 l -16.887723356552076 -24.552921592119826 a50.80001944422551,50.80001944422551 0 0,0 0.7247355880736418,-0.48934470421728526 l 16.462583074071894 24.839978208635777" fill="#adff20" stroke="none" /><path d="M 88.39885842347998 82.49532879139004 l -16.45330273460394 -24.825975337451133 a50.78322048288696,50.78322048288696 0 0,0 0.732809063961026,-0.4766393996105028 l 16.023526644858627 25.105513661221174" fill="#adff20" stroke="none" /><path d="M 88.70189139769569 82.29822771554957 l -9.646236623336135 -15.113634513426055 a38.92963550100265,38.92963550100265 0 0,0 0.5679664153636591,-0.35566051719538583 l 9.384651055600234 15.27743937194437" fill="#ffb711" stroke="none" /><path d="M 89.00827224532344 82.1063720568725 l -32.8587442940349 -53.49133077151305 a83.7775401261326,83.7775401261326 0 0,0 1.235271639143985,-0.7442373410355531 l 31.933110588673266 54.04901472200722" fill="#4dd4ff" stroke="none" /><line stroke="#e1ed5e" stroke-width="0.3" x1="56.762969772571076" x2="54.21961505331055" y1="26.818313649435495" y2="22.513508569990535" /><path d="M 56.25429882871897 25.957352633546506 a86.0,86.0 0 0,1 42.265352541879196,-11.944610805530505" fill="none" id="id24" stroke="none" /><text fill="#e1ed5e" style="font-size:6.75px; font-family:Arial;" text-anchor="middle"><textPath startOffset="22.20632615414155" xlink:href="#id24">December</textPath></text><path d="M 89.3179101791058 81.91981866633112 l -12.14239183114852 -20.55184423765193 a44.87081860661358,44.87081860661358 0 0,0 0.6683685084335542,-0.3871621802868427 l 11.786826590249646 20.757810575328822" fill="#f7ff18" stroke="none" /><path d="M 89.63071344664047 81.73862282372117 l -17.54489327638309 -30.8983566023437 a56.53212237969003,56.53212237969003 0 0,0 0.850339793017866,-0.4732131741710859 l 17.010429394293176 31.19578517407497" fill="#6aff28" stroke="none" /><path d="M 89.94658935756843 81.56283822128135 l -12.35941489043981 -22.666191597066657 a46.81688164649171,46.81688164649171 0 0,0 0.7108473628134262,-0.37971004301177813 l 11.96742248109808 22.875580366580184" fill="#deff1b" stroke="none" /><path d="M 90.26544431104013 81.39251694778311 l -4.174443148946245 -7.979396556799578 a30.005373119113344,30.005373119113344 0 0,0 0.45971019605051155,-0.23548141765795758 l 4.03647246530697 8.05007049977004" fill="#ff3405" stroke="none" /><path d="M 90.58718382345135 81.22770947309562 l -6.73513493621055 -13.432102294258033 a36.02609113017673,36.02609113017673 0 0,0 0.556738176621104,-0.27318900538062035 l 6.5029254925790205 13.546046459773484" fill="#ff8e0d" stroke="none" /><path d="M 90.91171255644093 81.06846463323043 l -27.264862330677197 -56.79460610030868 a84.0,84.0 0 0,0 1.3088871548015661,-0.6145400694399696 l 26.28319696457602 57.25551115238866" fill="#4dd2ff" stroke="none" /><path d="M 91.23893434514133 80.91482961587045 l -15.539637649367807 -33.85166187875157 a58.24802478289247,58.24802478289247 0 0,0 0.914820958923258,-0.4104534978779743 l 14.954634571977774 34.114135707146076" fill="#56ff2a" stroke="none" /><path d="M 91.90106846888425 80.62456947434976 l -16.53900814636561 -39.56699745786381 a63.88456690111431,63.88456690111431 0 0,0 1.018247382198248,-0.4153686738678161 l 15.855476894578983 39.845827017915205" fill="#32ff49" stroke="none" /><path d="M 92.23578459929587 80.48803036053334 l -9.242511231162228 -23.22702156337806 a45.99837083819242,45.99837083819242 0 0,0 0.7382012073837521,-0.28641059982103567 l 8.8413268587788 23.382674867089648" fill="#e8ff1a" stroke="none" /><path d="M 92.57280143429618 80.3572730644239 l -3.871473797654774 -10.238894513568763 a31.94638160425243,31.94638160425243 0 0,0 0.516037012751261,-0.19006078681178643 l 3.694654459130944 10.304018568186871" fill="#ff5207" stroke="none" /><path d="M 92.91201910852362 80.23233633223022 l -10.061841877727073 -28.06146195404888 a50.81084213790203,50.81084213790203 0 0,0 0.8258407052554998,-0.2881196062563288 l 9.577319168408287 28.23050241347742" fill="#acff20" stroke="none" /><path d="M 93.94186890950719 79.89281104454417 l -5.422740690261038 -17.998301800803045 a39.79747281701992,39.79747281701992 0 0,0 0.6576243989234354,-0.19197859529413222 l 5.1121260736141805 18.088978725015878" fill="#ffc312" stroke="none" /><path d="M 94.28887869178378 79.79150937346287 l -7.313721221773998 -25.879202835824206 a47.89281795438252,47.89281795438252 0 0,0 0.7952536529389136,-0.2173728642289847 l 6.867169679611362 26.001262240879488" fill="#d0ff1d" stroke="none" /><path d="M 94.63758080256005 79.69619591428918 l -6.0965930771146155 -23.08361708967685 a44.87512984447923,44.87512984447923 0 0,0 0.7485409096965514,-0.19081974484024875 l 5.698343278733065 23.185139830685962" fill="#f7ff18" stroke="none" /><path d="M 94.98787191387505 79.60689891045804 l -4.486515794957479 -18.254515561898128 a39.797770143769284,39.797770143769284 0 0,0 0.6666625165851287,-0.15777747867365666 l 4.1716295914098165 18.329038952712658" fill="#ffc312" stroke="none" /><path d="M 95.33964822691252 79.52364482259891 l -4.920123240770575 -21.617722416662044 a43.17055559042721,43.17055559042721 0 0,0 0.7259998004330601,-0.1586754367277589 l 4.5472807161839945 21.69921135148567" fill="#fff116" stroke="none" /><path d="M 96.04723909329186 79.375362276772 l -4.625381747501833 -24.134225450358205 a45.573461180689236,45.573461180689236 0 0,0 0.77172119733719,-0.14102711609561902 l 4.209265429061749 24.21026804780456" fill="#eeff19" stroke="none" /><path d="M 96.40284397218896 79.31037775812273 l -6.121097407842744 -35.206477588092376 a56.7346316286757,56.7346316286757 0 0,0 0.9635993382103641,-0.15900214724243816 l 5.514168863493494 35.30662599827444" fill="#67ff28" stroke="none" /><path d="M 96.75951476605007 79.25152402106235 l -3.3147667100206295 -21.224092224858477 a42.481381918097334,42.481381918097334 0 0,0 0.7234599965794816,-0.10661919750229554 l 2.948937733012499 21.27800590652174" fill="#ffe715" stroke="none" /><path d="M 97.11714578562143 79.19881850522333 l -1.5933636894018723 -11.496886358361984 a32.60677404724475,32.60677404724475 0 0,0 0.5566213450861653,-0.07226542573175616 l 1.3952276158078492 11.522610107257877" fill="#ff5c08" stroke="none" /><path d="M 97.47563105711357 79.15227682838746 l -2.550654115100866 -21.064801580610165 a42.21866400236729,42.21866400236729 0 0,0 0.722207135380286,-0.08114838658098676 l 2.187680276210862 21.10558592066175" fill="#ffe415" stroke="none" /><path d="M 98.19473922651362 79.07773832637324 l -1.9209445297165582 -22.26299086620847 a43.345710778472224,43.345710778472224 0 0,0 0.7439152101725812,-0.05774213782297661 l 1.5374391301816428 22.29275826621991" fill="#fff316" stroke="none" /><path d="M 98.55514903715128 79.0497635885617 l -2.280577464485426 -33.06821136857348 a54.14675906763995,54.14675906763995 0 0,0 0.9303907430448459,-0.05612371040736999 l 1.711024672600957 33.10256834836115" fill="#85ff25" stroke="none" /><path d="M 98.91598698831166 79.02799685794201 l -1.5573307233081886 -30.129107741589436 a51.169328999599315,51.169328999599315 0 0,0 0.8800129651758146,-0.03789520943692092 l 1.03847692574305 30.15145067755055" fill="#a8ff21" stroke="none" /><path d="M 99.27714615592234 79.0124445844662 l -0.41332606914829895 -12.000633118308059 a33.007748901424854,33.007748901424854 0 0,0 0.5680057754833541,-0.014669913400466587 l 0.20669365847006585 12.005969823850885" fill="#ff6209" stroke="none" /></svg>