<?xml version="1.0" encoding="utf-8" ?>
<svg baseProfile="full" height="200mm" version="1.1" viewBox="0,0,200,200" width="200mm" xmlns="http://www.w3.org/2000/svg" xmlns:ev="http://www.w3.org/2001/xml-events" xmlns:xlink="http://www.w3.org/1999/xlink"><defs /><rect fill="#1a1a1a" height="200" width="200" x="0" y="0" /><rect fill="#1a1a1a" height="200" width="180" x="10" y="0" /><text alignment-baseline="middle" fill="#e1ed5e" style="dominant-baseline: central; font-size:9.0px; font-family:Arial;" text-anchor="middle" x="100.0" y="100.0">2024</text><line stroke="#e1ed5e" stroke-width="0.3" x1="100.0" x2="100.0" y1="15.0" y2="10.0" /><path d="M 100.0 14.0 a86.0,86.0 0 0,1 42.35913384403234,11.155469271406648" fill="none" id="id121" stroke="none" /><text fill="#e1ed5e" style="font-size:6.75px; font-family:Arial;" text-anchor="middle"><textPath startOffset="22.145653131862478" xlink:href="#id121">January</textPath></text><line stroke="#e1ed5e" stroke-width="0.3" x1="143.13028292997686" x2="145.6673583964461" y1="26.7553504044142" y2="22.446841604673864" /><path d="M 143.63769802327073 25.89364864446614 a86.0,86.0 0 0,1 29.32050498858742,28.57503671076993" fill="none" id="id122" stroke="none" /><text fill="#e1ed5e" style="font-size:6.75px; font-family:Arial;" text-anchor="middle"><textPath startOffset="20.669276256404974" xlink:href="#id122">February</textPath></text><line stroke="#e1ed5e" stroke-width="0.3" x1="172.87174338648825" x2="177.1583165268699" y1="56.24261187166439" y2="53.66864786411523" /><path d="M 173.72905801456457 55.72781907015455 a86.0,86.0 0 0,1 12.242430191666344,42.057860355516425" fill="none" id="id123" stroke="none" /><text fill="#e1ed5e" style="font-size:6.75px; font-family:Arial;" text-anchor="middle"><textPath startOffset="22.145653131862474" xlink:href="#id123">March</textPath></text><path d="M 118.8641267826498 90.77261029715802 l 30.790887679256905 -15.06136611498267 a55.27715731104554,55.27715731104554 0 0,0 0.40963201136245636,0.8559733561396462 l -31.044898948579274 14.53058025677792" fill="red" stroke="none" /><path d="M 119.0197475246899 91.09779779509293 l 28.49409763351452 -13.336676443818682 a52.46077777988596,52.46077777988596 0 0,0 0.3747586501318962,0.8189152837063665 l -28.71884074850147 12.845572177897632" fill="red" stroke="none" /><line stroke="#e1ed5e" stroke-width="0.3" x1="184.99686870605535" x2="189.99668451229388" y1="99.2704041080226" y2="99.22748670261217" /><path d="M 185.99683186730306 99.26182062694052 a86.0,86.0 0 0,1 -10.086455211305974,41.156179273409016" fill="none" id="id124" stroke="none" /><text fill="#e1ed5e" style="font-size:6.75px; font-family:Arial;" text-anchor="middle"><textPath startOffset="21.40746469413373" xlink:href="#id124">April</textPath></text><path d="M 120.9064616781168 101.97986365728391 l 18.731279496978406 1.7738716432017194 a39.81508576117788,39.81508576117788 0 0,0 -0.07027857010972131,0.6798814142321733 l -18.69806853438702 -2.0951575797168243" fill="red" stroke="none" /><path d="M 120.86939407059847 102.33845913500097 l 29.995126078616988 3.361016440954895 a51.18284313958011,51.18284313958011 0 0,0 -0.10533408094245424,0.8723172948901456 l -29.93300991141487 -3.875427412768449" fill="red" stroke="none" /><path d="M 120.82617615685814 102.69636545807757 l 22.583555795894775 2.9238934363169586 a43.77204745325351,43.77204745325351 0 0,0 -0.10287574111540985,0.7443576152179772 l -22.530035538224155 -3.3111393597350207" fill="red" stroke="none" /><path d="M 120.7213421655516 103.40968896794604 l 36.908766538292376 6.073323488443116 a58.40511068789191,58.40511068789191 0 0,0 -0.17128044767143236,0.987900106161116 l -36.79907127312871 -6.7060166275248205" fill="red" stroke="none" /><path d="M 120.65975698304385 103.76489593502545 l 35.64326979352241 6.495391096167528 a57.23027445474295,57.23027445474295 0 0,0 -0.18442785076486107,0.9650044469935191 l -35.52651565047539 -7.106298108194362" fill="red" stroke="none" /><path d="M 120.592083275326 104.11899336999214 l 13.962753152253176 2.7929416801592213 a35.23934685368422,35.23934685368422 0 0,0 -0.12374429076404302,0.5921612272434496 l -13.91275115066477 -3.03221935868808" fill="red" stroke="none" /><path d="M 120.51834098615036 104.47187691870673 l 16.95866898085333 3.696062973056877 a38.356766262842825,38.356766262842825 0 0,0 -0.14573587302601362,0.6421391466257991 l -16.89272224626965 -3.986636453621693" fill="red" stroke="none" /><path d="M 120.43855184770803 104.8234425847677 l 29.867270911032325 7.048594610641278 a51.68772649868607,51.68772649868607 0 0,0 -0.21121198379054523,0.8618169701316435 l -29.741871400725486 -7.56026740538102" fill="red" stroke="none" /><path d="M 120.35273937422433 105.17358676015961 l 20.27376821992006 5.153512601549761 a41.9185173941504,41.9185173941504 0 0,0 -0.1832648021834711,0.6958863043518375 l -20.18231393693186 -5.500779410274402" fill="red" stroke="none" /><path d="M 120.16314734710363 105.8691983318838 l 36.17590308279769 10.530278154141724 a58.677350249978645,58.677350249978645 0 0,0 -0.2898205095411298,0.9647182172501947 l -35.98980625325293 -11.149733974982643" fill="red" stroke="none" /><path d="M 119.58574465831526 107.57618678355244 l 35.15214413622324 13.597604505954665 a58.690424323349994,58.690424323349994 0 0,0 -0.3715420369688832,0.936528642383756 l -34.913543424288235 -14.199034165551986" fill="red" stroke="none" /><path d="M 119.31412917781788 108.2440532568976 l 21.609730762163537 9.22390906834674 a44.49597757307251,44.49597757307251 0 0,0 -0.3058910260992684,0.6999385302280574 l -21.448205854047302 -9.593509668350643" fill="red" stroke="none" /><path d="M 118.8641267826498 109.22738970284198 l 27.950101479633663 13.671795231135105 a52.11472573499417,52.11472573499417 0 0,0 -0.39999314366252986,0.800254232109478 l -27.7112884227594 -14.14958131940833" fill="red" stroke="none" /><path d="M 118.70294669586154 109.54985784667822 l 28.090749278828955 14.34333673628309 a52.54079110891858,52.54079110891858 0 0,0 -0.4170536155966408,0.7997552984870171 l -27.840387594257365 -14.82343827787461" fill="red" stroke="none" /><line stroke="#e1ed5e" stroke-width="0.3" x1="174.33088141563837" x2="178.70328620479359" y1="141.23008692659167" y2="143.65538615756765" /><path d="M 175.20536237346943 141.71514677278685 a86.0,86.0 0 0,1 -30.301960400862466,31.631185727798858" fill="none" id="id125" stroke="none" /><text fill="#e1ed5e" style="font-size:6.75px; font-family:Arial;" text-anchor="middle"><textPath startOffset="22.145653131862474" xlink:href="#id125">May</textPath></text><path d="M 117.01052211995028 112.31430620078461 l 30.314924883691738 21.945667795448944 a58.42468444345359,58.42468444345359 0 0,0 -0.5950915242336601,0.8073559432593812 l -29.93373133987425 -22.462830047977203" fill="red" stroke="none" /><path d="M 116.79662413953412 112.60449989151573 l 30.34574332453195 22.772011522348468 a58.93980293428455,58.93980293428455 0 0,0 -0.6142313965378638,0.8040486151607856 l -29.95035995063978 -23.28958105075013" fill="red" stroke="none" /><path d="M 115.89218393027572 113.72728997021213 l 28.53931850664161 24.65158359679982 a58.71197786716505,58.71197786716505 0 0,0 -0.6653714831187468,0.7570706072306378 l -28.11193595956428 -25.13786648184175" fill="red" stroke="none" /><path d="M 115.16444852881244 114.52719865689866 l 27.088321418374612 25.94999915618217 a58.512392798527635,58.512392798527635 0 0,0 -0.7010709678265721,0.71936057397138 l -26.638863649397234 -26.411182422221287" fill="red" stroke="none" /><path d="M 114.91283532996324 114.78537596483092 l 44.738505989889745 44.356127894492765 a84.0,84.0 0 0,0 -1.0240323194801406,1.015279959085353 l -43.97048175027964 -45.117587863806776" fill="red" stroke="none" /><path d="M 114.13192950727249 115.5334660781643 l 25.252726312436458 27.757169843901 a58.52546687189898,58.52546687189898 0 0,0 -0.7489447509509075,0.6697110145228131 l -24.77251653466217 -28.1865763883072" fill="red" stroke="none" /><line stroke="#e1ed5e" stroke-width="0.3" x1="143.1302829299769" x2="145.66735839644613" y1="173.24464959558577" y2="177.55315839532614" /><path d="M 143.63769802327073 174.10635135553383 a86.0,86.0 0 0,1 -40.68552437913181,11.842963189579606" fill="none" id="id126" stroke="none" /><text fill="#e1ed5e" style="font-size:6.75px; font-family:Arial;" text-anchor="middle"><textPath startOffset="21.407464694133747" xlink:href="#id126">June</textPath></text><line stroke="#e1ed5e" stroke-width="0.3" x1="101.45913802915013" x2="101.54496967792366" y1="184.9874750549273" y2="189.98673829345242" /><path d="M 101.47630435890484 185.9873277026323 a86.0,86.0 0 0,1 -42.54439059252881,-10.42667462771756" fill="none" id="id127" stroke="none" /><text fill="#e1ed5e" style="font-size:6.75px; font-family:Arial;" text-anchor="middle"><textPath startOffset="22.145653131862474" xlink:href="#id127">July</textPath></text><line stroke="#e1ed5e" stroke-width="0.3" x1="58.13341422392154" x2="55.67067388415222" y1="173.97424548756322" y2="178.32567169271397" /><path d="M 57.64086615596768 174.84453072859336 a86.0,86.0 0 0,1 -31.369924170532247,-30.572349798747897" fill="none" id="id128" stroke="none" /><text fill="#e1ed5e" style="font-size:6.75px; font-family:Arial;" text-anchor="middle"><textPath startOffset="22.145653131862474" xlink:href="#id128">August</textPath></text><line stroke="#e1ed5e" stroke-width="0.3" x1="26.387840678322732" x2="22.057713659400548" y1="142.50000000000003" y2="145.00000000000006" /><path d="M 25.521815274538298 143.00000000000003 a86.0,86.0 0 0,1 -11.493303480769221,-40.785679425670985" fill="none" id="id129" stroke="none" /><text fill="#e1ed5e" style="font-size:6.75px; font-family:Arial;" text-anchor="middle"><textPath startOffset="21.40746469413373" xlink:href="#id129">September</textPath></text><line stroke="#e1ed5e" stroke-width="0.3" x1="15.003131293944662" x2="10.003315487706104" y1="100.72959589197737" y2="100.7725132973878" /><path d="M 14.003168132696942 100.73817937305945 a86.0,86.0 0 0,1 10.791469493833604,-42.45332614584628" fill="none" id="id130" stroke="none" /><text fill="#e1ed5e" style="font-size:6.75px; font-family:Arial;" text-anchor="middle"><textPath startOffset="22.145653131862435" xlink:href="#id130">October</textPath></text><line stroke="#e1ed5e" stroke-width="0.3" x1="26.387840678322718" x2="22.05771365940052" y1="57.49999999999999" y2="54.99999999999999" /><path d="M 25.521815274538284 56.99999999999999 a86.0,86.0 0 0,1 29.574782752854787,-30.34633250058573" fill="none" id="id131" stroke="none" /><text fill="#e1ed5e" style="font-size:6.75px; font-family:Arial;" text-anchor="middle"><textPath startOffset="21.40746469413373" xlink:href="#id131">November</textPath></text><line stroke="#e1ed5e" stroke-width="0.3" x1="56.869717070023135" x2="54.33264160355391" y1="26.7553504044142" y2="22.446841604673864" /><path d="M 56.362301976729285 25.89364864446614 a86.0,86.0 0 0,1 42.16139366436587,-11.88097634709845" fill="none" id="id132" stroke="none" /><text fill="#e1ed5e" style="font-size:6.75px; font-family:Arial;" text-anchor="middle"><textPath startOffset="22.145653131862474" xlink:href="#id132">December</textPath></text></svg>