<?xml version="1.0" encoding="utf-8" ?>
<svg baseProfile="full" height="200mm" version="1.1" viewBox="0,0,200,200" width="200mm" xmlns="http://www.w3.org/2000/svg" xmlns:ev="http://www.w3.org/2001/xml-events" xmlns:xlink="http://www.w3.org/1999/xlink"><defs /><rect fill="#1a1a1a" height="200" width="200" x="0" y="0" /><rect fill="#1a1a1a" height="200" width="180" x="10" y="0" /><text alignment-baseline="middle" fill="#e1ed5e" style="dominant-baseline: central; font-size:9.0px; font-family:Arial;" text-anchor="middle" x="100.0" y="100.0">2014</text><line stroke="#e1ed5e" stroke-width="0.3" x1="100.0" x2="100.0" y1="15.0" y2="10.0" /><path d="M 100.0 14.0 a86.0,86.0 0 0,1 42.46469731375804,11.215312516191453" fill="none" id="id1" stroke="none" /><text fill="#e1ed5e" style="font-size:6.75px; font-family:Arial;" text-anchor="middle"><textPath startOffset="22.20632615414155" xlink:href="#id1">January</textPath></text><line stroke="#e1ed5e" stroke-width="0.3" x1="143.23703022742887" x2="145.7803849466894" y1="26.81831364943548" y2="22.513508569990506" /><path d="M 143.74570117128098 25.957352633546492 a86.0,86.0 0 0,1 28.547481713284135,27.462654790039103" fill="none" id="id2" stroke="none" /><text fill="#e1ed5e" style="font-size:6.75px; font-family:Arial;" text-anchor="middle"><textPath startOffset="19.985693538727396" xlink:href="#id2">February</textPath></text><path d="M 114.68862486808459 84.99185889309783 l 9.947845390305703 -10.164237201792128 a35.22221311202028,35.22221311202028 0 0,0 0.42965095419889116,0.4278058964589375 l -10.121332144671918 9.991495454683072" fill="#ff980e" stroke="none" /><path d="M 114.94478906791727 85.2469230424477 l 4.985369327597701 -4.921416891039443 a28.005301674300707,28.005301674300707 0 0,0 0.3357112017712686,0.3459799032730445 l -5.069344793072079 4.8348727922162835" fill="#ff3004" stroke="none" /><path d="M 115.19652480421416 85.50635884689758 l 9.013771179472974 -8.596857939206563 a33.45608434873482,33.45608434873482 0 0,0 0.39387796809141856,0.42016155401280086 l -9.160416469534855 8.440426968315709" fill="#ff7f0b" stroke="none" /><path d="M 115.68641384162765 86.03803664274999 l 9.810875424542148 -8.732338988564443 a34.134192811402144,34.134192811402144 0 0,0 0.3868674104436302,0.4422563269310329 l -9.959734698563626 8.562167105430463" fill="#ff890c" stroke="none" /><path d="M 115.9244219780498 86.31012108654704 l 11.600389399316667 -9.972602236015163 a36.29777204607106,36.29777204607106 0 0,0 0.40323261773392305,0.4773002332821579 l -11.770332630537707 9.771443053103898" fill="#ffa70f" stroke="none" /><path d="M 116.15771136456269 86.58626213691792 l 8.613468666837525 -7.1506915912751605 a32.19483062436074,32.19483062436074 0 0,0 0.35031273071481145,0.4294419864128263 l -8.735279889628744 7.001365435254233" fill="#ff6d0a" stroke="none" /><path d="M 116.38621287248628 86.86637796730983 l 11.685638030144748 -9.366090523359865 a35.975906912883,35.975906912883 0 0,0 0.3831364179998896,0.4865443427474399 l -11.845128528738602 9.163553786659389" fill="#ffa20f" stroke="none" /><path d="M 116.60985879189232 87.15038557335679 l 5.789874024918182 -4.4791259053539205 a28.320191944234445,28.320191944234445 0 0,0 0.2949670169369197,0.388142018643904 l -5.866116982079216 4.378799110828983" fill="#ff3505" stroke="none" /><path d="M 117.2510076193507 88.02491185347247 l 23.274154889569722 -16.156160990033946 a49.33209882376484,49.33209882376484 0 0,0 0.4782289703681322,0.7017420036597471 l -23.54880832560659 15.753140963103794" fill="#b1ff20" stroke="none" /><path d="M 117.45458315368197 88.32363383020206 l 5.055998824279463 -3.3822459755449135 a27.082985447147237,27.082985447147237 0 0,0 0.25587406844125554,0.3897137607468301 l -5.113469528078643 3.294714150820409" fill="#ff2303" stroke="none" /><line stroke="#e1ed5e" stroke-width="0.3" x1="172.23445277983987" x2="176.4835382374775" y1="55.19839476539836" y2="52.563006222186495" /><path d="M 173.08426987136738 54.67131705675599 a86.0,86.0 0 0,1 12.851231095245387,41.99856678651699" fill="none" id="id3" stroke="none" /><text fill="#e1ed5e" style="font-size:6.75px; font-family:Arial;" text-anchor="middle"><textPath startOffset="22.20632615414155" xlink:href="#id3">March</textPath></text><path d="M 118.3937258080291 89.86733742301442 l 22.277045649431606 -12.271890379015165 a46.43356161337662,46.43356161337662 0 0,0 0.3796317358789123,0.7033999505151934 l -22.484985484528984 11.886609445167512" fill="#d4ff1c" stroke="none" /><path d="M 118.73160827565052 90.50648371742162 l 26.08666127164335 -13.221189547423025 a50.24574754302486,50.24574754302486 0 0,0 0.384356011164659,0.7748382647862405 l -26.310377295761416 12.770191694137834" fill="#a7ff21" stroke="none" /><path d="M 119.04729006885535 91.15688171328212 l 31.003092017120334 -14.393859124857117 a55.18149931071285,55.18149931071285 0 0,0 0.39257086397662694,0.8649778615325502 l -31.24626519806031 13.858059254482505" fill="#6fff28" stroke="none" /><path d="M 119.196687751892 91.48605970444005 l 8.75002669015197 -3.880732227733791 a30.57199298483568,30.57199298483568 0 0,0 0.20921330526406096,0.4828931535601131 l -8.81553070525871 3.7295399295870753" fill="#ff5608" stroke="none" /><path d="M 119.34039704204932 91.81776055985345 l 8.407508059542089 -3.5569199478464246 a30.12895784230889,30.12895784230889 0 0,0 0.1979591799504121,0.4793738562312276 l -8.467488926378698 3.4116715211618938" fill="#ff5007" stroke="none" /><path d="M 119.7369772167798 92.82701384747503 l 27.488466124616725 -9.990100545811822 a50.24752773824876,50.24752773824876 0 0,0 0.28843736503664413,0.8154512723518906 l -27.656356570463178 9.515451647033318" fill="#a7ff21" stroke="none" /><path d="M 119.85752413597 93.16781622104841 l 27.676004807756957 -9.522211823538926 a50.26830641037043,50.26830641037043 0 0,0 0.27447143097728344,0.8206346432389355 l -27.83581353250601 9.044404077377678" fill="#a6ff21" stroke="none" /><path d="M 120.08093135843002 93.85539295169968 l 12.819012857257876 -3.922517105855861 a34.40571635834037,34.40571635834037 0 0,0 0.16841451177546798,0.5678100103683319 l -12.884633266145046 3.7012777087409994" fill="#ff8d0c" stroke="none" /><path d="M 120.18372546131832 94.20196356495316 l 14.918421629629046 -4.285509745351565 a36.521755625472494,36.521755625472494 0 0,0 0.1683709098422899,0.6057197458879703 l -14.989979310037699 4.028078696044642" fill="#ffaa0f" stroke="none" /><path d="M 120.28053869075195 94.5502522615342 l 8.50987055562897 -2.286756211082484 a29.811762073642548,29.811762073642548 0 0,0 0.12890558808078736,0.4967258147740354 l -8.547972475580059 2.139933970759598" fill="#ff4b07" stroke="none" /><path d="M 120.67395015179393 96.31383870115 l 29.29316217900499 -5.222965130145428 a50.755146028816654,50.755146028816654 0 0,0 0.1459527993785468,0.861421683846439 l -29.37872683990376 4.717957657983151" fill="#a1ff22" stroke="none" /><line stroke="#e1ed5e" stroke-width="0.3" x1="184.98032266829074" x2="189.97916517819016" y1="98.17113171792111" y2="98.06355123074" /><path d="M 185.9800911702706 98.14961562048488 a86.0,86.0 0 0,1 -9.607161424134198,41.387399972396054" fill="none" id="id4" stroke="none" /><text fill="#e1ed5e" style="font-size:6.75px; font-family:Arial;" text-anchor="middle"><textPath startOffset="21.466115282336823" xlink:href="#id4">April</textPath></text><path d="M 120.99980553446 99.90962569577887 l 36.80151833479516 -0.15837821013773493 a57.801859129719396,57.801859129719396 0 0,0 -0.004282024234279498,0.994991629409494 l -36.79879201327138 -0.47512289747544384" fill="#52ff2b" stroke="none" /><path d="M 120.9764740272857 100.99374915477107 l 49.131049519416145 2.327556998827642 a70.18615199893271,70.18615199893271 0 0,0 -0.0675580118600457,1.2062936846664705 l -49.08370515666857 -3.1729223998295355" fill="#3bff9c" stroke="none" /><path d="M 120.92983693683757 101.71520430193887 l 62.39906003473101 5.113615387042949 a83.60824031662739,83.60824031662739 0 0,0 -0.12989298070920358,1.4333582183185531 l -62.30179245774473 -6.1869549939100725" fill="#4cd6ff" stroke="none" /><path d="M 120.89721153311464 102.0752229133903 l 62.69163459934395 6.2256687401709 a84.0,84.0 0 0,0 -0.15527079399579247,1.4376147124608343 l -62.575181503847105 -7.303879774516526" fill="#4dd2ff" stroke="none" /><path d="M 120.70491114924044 103.5080841355445 l 37.6597215737527 6.380779460951773 a59.19645239471695,59.19645239471695 0 0,0 -0.1788678812068401,1.0031860681139733 l -37.544307250206664 -7.028084279798965" fill="#44ff2d" stroke="none" /><path d="M 120.64145759157962 103.86396538481128 l 41.24063310283231 7.720015800727741 a62.95698347934363,62.95698347934363 0 0,0 -0.20856769334799727,1.063482174976539 l -41.10163547650865 -8.428761702772226" fill="#32ff45" stroke="none" /><path d="M 120.49622156327973 104.57218783832717 l 10.141867582192642 2.2623937526271405 a31.39114543958732,31.39114543958732 0 0,0 -0.12218545062017024,0.5263717233813503 l -10.10142156564192 -2.4366341333570554" fill="#ff6209" stroke="none" /><path d="M 119.26925614724726 108.34839909993367 l 26.4622095244322 11.464743863897692 a49.83901670965447,49.83901670965447 0 0,0 -0.3478262965250916,0.7842564752035265 l -26.260942143175836 -11.918548675593906" fill="#abff21" stroke="none" /><path d="M 118.81262510543309 109.33194174019688 l 26.70215564139841 13.245517804489458 a50.80685924089474,50.80685924089474 0 0,0 -0.39537735814899083,0.7801170370876455 l -26.47019961346315 -13.703189053279798" fill="#a0ff22" stroke="none" /><line stroke="#e1ed5e" stroke-width="0.3" x1="174.80103733775053" x2="179.2010983576182" y1="140.37084112569926" y2="142.7455964860345" /><path d="M 175.68104954172406 140.8457921977663 a86.0,86.0 0 0,1 -30.038265399797805,32.042727171017184" fill="none" id="id5" stroke="none" /><text fill="#e1ed5e" style="font-size:6.75px; font-family:Arial;" text-anchor="middle"><textPath startOffset="22.206326154141568" xlink:href="#id5">May</textPath></text><path d="M 117.35343817320211 111.8261652097733 l 15.276935924814751 10.41105320702236 a39.48715229910616,39.48715229910616 0 0,0 -0.3876117025565862,0.5583835669795949 l -15.095463315096028 -10.672478036188974" fill="#ffd213" stroke="none" /><path d="M 117.14729908036423 112.12312394758627 l 8.33752340815677 5.894621025694468 a31.210820418464003,31.210820418464003 0 0,0 -0.3139217128055115,0.4360098027179525 l -8.234821902975655 -6.037264433863552" fill="#ff5f08" stroke="none" /><path d="M 116.27256486870786 113.27417163493432 l 47.64991537559582 38.86991142386396 a82.49296260061368,82.49296260061368 0 0,0 -0.907045478338763,1.0925947102235922 l -46.97377389736351 -39.68436739120133" fill="#4be0ff" stroke="none" /><path d="M 116.0416608686014 113.55231037782055 l 34.37236337513247 29.038448119221467 a65.99656468181615,65.99656468181615 0 0,0 -0.7405992766603129,0.861484274093014 l -33.86742158890138 -29.62580949247601" fill="#36ff6b" stroke="none" /><path d="M 115.56566222782051 114.09645910891815 l 37.55323304570265 34.00867925106858 a71.66394750300174,71.66394750300174 0 0,0 -0.8359210170507755,0.907227167602668 l -36.962265620656154 -34.65005767347258" fill="#3dffad" stroke="none" /><path d="M 114.55890576462653 115.13401014063108 l 13.262434299875364 13.786325595391748 a40.12994869257793,40.12994869257793 0 0,0 -0.5019380709178897,0.4746137754476025 l -13.023160394566666 -14.012574007585272" fill="#ffda14" stroke="none" /><path d="M 114.29624159901734 115.38237550388516 l 15.162101319867682 16.3140175209538 a43.271876528661004,43.271876528661004 0 0,0 -0.5499658733768503,0.5023807857647531 l -14.879035897023968 -16.572591073305137" fill="#fcff18" stroke="none" /><line stroke="#e1ed5e" stroke-width="0.3" x1="143.8653032363475" x2="146.44561519142675" y1="172.8068346515853" y2="177.08958963109032" /><path d="M 144.38136562736335 173.6633856474863 a86.0,86.0 0 0,1 -40.68145358897372,12.25698825130547" fill="none" id="id6" stroke="none" /><text fill="#e1ed5e" style="font-size:6.75px; font-family:Arial;" text-anchor="middle"><textPath startOffset="21.466115282336833" xlink:href="#id6">June</textPath></text><path d="M 109.2508944713604 118.85261126421891 l 4.93923385719619 10.065778627252557 a32.212311557788944,32.212311557788944 0 0,0 -0.49988496529110027,0.23997516129904167 l -4.765236223904857 -10.149308065051159" fill="#ff6e0a" stroke="none" /><path d="M 107.93186726928326 119.44442032107085 l 12.931832517741938 31.70148698408411 a55.23764841908658,55.23764841908658 0 0,0 -0.8834839006181194,0.3515564770856686 l -12.384227541081952 -31.919390305575845" fill="#6eff28" stroke="none" /><path d="M 107.59598834532513 119.57807347666477 l 9.00523596629676 23.210300412238976 a45.89603020634144,45.89603020634144 0 0,0 -0.7389911696023805,0.2794232273828419 l -8.604374575934104 -23.36187188972845" fill="#dbff1b" stroke="none" /><path d="M 104.83641907484287 120.43548508189849 l 0.8742310861594492 3.69391817435171 a24.79595988793525,24.79595988793525 0 0,0 -0.41619410652190486,0.09472442363270858 l -0.8105168302446822 -3.708419331562103" fill="#ff0000" stroke="none" /><line stroke="#e1ed5e" stroke-width="0.3" x1="102.19456741930631" x2="102.32365962044197" y1="184.97166512339345" y2="189.96999836594603" /><path d="M 102.22038585953345 185.97133177190398 a86.0,86.0 0 0,1 -42.740103519485714,-10.115201625700543" fill="none" id="id7" stroke="none" /><text fill="#e1ed5e" style="font-size:6.75px; font-family:Arial;" text-anchor="middle"><textPath startOffset="22.20632615414155" xlink:href="#id7">July</textPath></text><line stroke="#e1ed5e" stroke-width="0.3" x1="58.666819895761336" x2="56.23545636021788" y1="174.27360380694188" y2="178.64263932499728" /><path d="M 58.180547188652646 175.14741091055294 a86.0,86.0 0 0,1 -31.652253787137756,-30.449443065178592" fill="none" id="id8" stroke="none" /><text fill="#e1ed5e" style="font-size:6.75px; font-family:Arial;" text-anchor="middle"><textPath startOffset="22.20632615414155" xlink:href="#id8">August</textPath></text><path d="M 88.54995079064634 117.60387380957326 l -6.084159341768146 9.354088469971611 a32.158672232845646,32.158672232845646 0 0,0 -0.46143912374690665,-0.3058166897130926 l 6.244273164255015 -9.2479737591672" fill="#ff6d0a" stroke="none" /><path d="M 88.24862548938628 117.40417183066458 l -6.936029057792234 10.272486970376901 a33.394857306443726,33.394857306443726 0 0,0 -0.4736394446535826,-0.3257735289077689 l 7.1118253870687065 -10.151572652104031" fill="#ff7e0b" stroke="none" /><path d="M 83.50135304334701 112.99209946851258 l -9.903948034005637 7.799007902093097 a33.606058500466936,33.606058500466936 0 0,0 -0.3539729066892413,-0.45755769792385154 l 10.036727757912947 -7.627372210055992" fill="#ff810b" stroke="none" /><line stroke="#e1ed5e" stroke-width="0.3" x1="26.63291911575756" x2="22.317208475507996" y1="142.92168965132927" y2="145.44649492493687" /><path d="M 25.769776987707644 143.4266507060508 a86.0,86.0 0 0,1 -11.730757126820373,-40.83630448921669" fill="none" id="id9" stroke="none" /><text fill="#e1ed5e" style="font-size:6.75px; font-family:Arial;" text-anchor="middle"><textPath startOffset="21.46611528233685" xlink:href="#id9">September</textPath></text><path d="M 81.69416730710424 110.29060199501025 l -10.68930745527568 6.008981425205918 a33.26251000578112,33.26251000578112 0 0,0 -0.2762745917077714,-0.501518633329415 l 10.791158456434967 -5.824092273478681" fill="#ff7d0b" stroke="none" /><path d="M 80.58989483394504 108.01547362559985 l -22.457527067098095 9.273917599237073 a45.29703828878908,45.29703828878908 0 0,0 -0.2914053073665911,-0.7232440749085538 l 22.613834988722072 -8.885974156485714" fill="#e2ff1b" stroke="none" /><path d="M 79.86692584326677 105.97154293290107 l -26.830715698042184 7.958087744773849 a48.98604054564859,48.98604054564859 0 0,0 -0.2328175017262656,-0.8104682662959222 l 26.963725836654554 -7.495062002973331" fill="#b5ff1f" stroke="none" /><path d="M 79.76711848015287 105.62410040840567 l -24.784790617835025 6.889387005962574 a46.72449220660826,46.72449220660826 0 0,0 -0.20872926170741277,-0.7767592320045625 l 24.899707955884214 -6.461736840782472" fill="#d1ff1d" stroke="none" /><line stroke="#e1ed5e" stroke-width="0.3" x1="15.007084014347285" x2="10.007500721073583" y1="101.09737516637583" y2="101.16192664675087" /><path d="M 14.007167355692545 101.11028546245083 a86.0,86.0 0 0,1 10.666146001902534,-42.60595125391555" fill="none" id="id10" stroke="none" /><text fill="#e1ed5e" style="font-size:6.75px; font-family:Arial;" text-anchor="middle"><textPath startOffset="22.20632615414155" xlink:href="#id10">October</textPath></text><line stroke="#e1ed5e" stroke-width="0.3" x1="26.266209847984243" x2="21.928928074336255" y1="57.711370442889674" y2="55.22380399835377" /><path d="M 25.398753493254645 57.213857153982495 a86.0,86.0 0 0,1 29.58750427330803,-30.492523968695096" fill="none" id="id11" stroke="none" /><text fill="#e1ed5e" style="font-size:6.75px; font-family:Arial;" text-anchor="middle"><textPath startOffset="21.46611528233685" xlink:href="#id11">November</textPath></text><line stroke="#e1ed5e" stroke-width="0.3" x1="56.762969772571076" x2="54.21961505331055" y1="26.818313649435495" y2="22.513508569990535" /><path d="M 56.25429882871897 25.957352633546506 a86.0,86.0 0 0,1 42.265352541879196,-11.944610805530505" fill="none" id="id12" stroke="none" /><text fill="#e1ed5e" style="font-size:6.75px; font-family:Arial;" text-anchor="middle"><textPath startOffset="22.20632615414155" xlink:href="#id12">December</textPath></text></svg>