<?xml version="1.0" encoding="utf-8" ?>
<svg baseProfile="full" height="200mm" version="1.1" viewBox="0,0,200,200" width="200mm" xmlns="http://www.w3.org/2000/svg" xmlns:ev="http://www.w3.org/2001/xml-events" xmlns:xlink="http://www.w3.org/1999/xlink"><defs /><rect fill="#1a1a1a" height="200" width="200" x="0" y="0" /><rect fill="#1a1a1a" height="200" width="180" x="10" y="0" /><text alignment-baseline="middle" fill="#e1ed5e" style="dominant-baseline: central; font-size:9.0px; font-family:Arial;" text-anchor="middle" x="100.0" y="100.0">2023</text><line stroke="#e1ed5e" stroke-width="0.3" x1="100.0" x2="100.0" y1="15.0" y2="10.0" /><path d="M 100.0 14.0 a86.0,86.0 0 0,1 42.46469731375804,11.215312516191453" fill="none" id="id109" stroke="none" /><text fill="#e1ed5e" style="font-size:6.75px; font-family:Arial;" text-anchor="middle"><textPath startOffset="22.20632615414155" xlink:href="#id109">January</textPath></text><path d="M 102.16513564639614 79.11191278185805 l 4.315227898094153 -41.63104369538361 a62.85409168742561,62.85409168742561 0 0,0 1.0752039311798036,0.12081168959211283 l -5.031198532783682 41.55059605232089" fill="#5cff2a" stroke="none" /><path d="M 102.88285421437855 79.19881850522331 l 4.627603040765985 -33.39038452123178 a54.7095311207175,54.7095311207175 0 0,0 0.9317059711891612,0.1373092409061399 l -5.201677992383802 33.305780796164676" fill="#d3ff1c" stroke="none" /><path d="M 103.2404852339499 79.25152402106235 l 6.61143467140128 -42.33230012243458 a63.845474697686356,63.845474697686356 0 0,0 1.0843721973744833,0.17893070382630852 l -7.339136074914639 42.212223155668646" fill="#4eff2b" stroke="none" /><path d="M 103.59715602781102 79.31037775812273 l 5.4349115873786555 -31.25976932651783 a52.72871636719216,52.72871636719216 0 0,0 0.8928851808645171,0.1631690596245437 l -5.972191889346073 31.161584785542548" fill="#f3ff19" stroke="none" /><path d="M 103.95276090670814 79.375362276772 l 9.150291620565648 -47.744210740341295 a69.61314118589247,69.61314118589247 0 0,0 1.1749159799422764,0.23567709254074806 l -9.970774009975049 47.57962969172334" fill="#35ff66" stroke="none" /><path d="M 104.307194497241 79.44645832069477 l 9.160884533312812 -43.714910528270025 a65.66447366674484,65.66447366674484 0 0,0 1.1042803161923813,0.24135290579580282 l -9.912007573658721 43.550744124378355" fill="#36ff2e" stroke="none" /><path d="M 105.01212808612495 79.60689891045804 l 10.012517954424855 -40.73844229374101 a62.950818779949294,62.950818779949294 0 0,0 1.0500529651721922,0.2676818812269542 l -10.712279808282071 40.56005741634519" fill="#5aff2a" stroke="none" /><path d="M 105.36241919743992 79.69619591428918 l 8.630318603348064 -32.6770980909699 a54.797561137486895,54.797561137486895 0 0,0 0.9099059635254492,0.24871167172840647 l -9.191522456097223 32.5236998784152" fill="#d2ff1c" stroke="none" /><path d="M 106.0581310904928 79.89281104454417 l 9.091547096901833 -30.175222794652502 a52.515080506356,52.515080506356 0 0,0 0.8632844735270625,0.26822668817834844 l -9.609616943139613 30.01425597159163" fill="#f6ff19" stroke="none" /><path d="M 108.09893153111575 80.62456947434976 l 16.4424539694407 -39.33600664879447 a63.63420823248837,63.63420823248837 0 0,0 1.0069848074194818,0.4311383421444051 l -17.117122534650495 39.04714877868727" fill="#51ff2b" stroke="none" /><path d="M 108.76106565485865 80.91482961587045 l 23.54254915461708 -51.28526364180767 a77.43075302977341,77.43075302977341 0 0,0 1.206525214610549,0.5664797659965183 l -24.42185258052723 50.87241889317115" fill="#42ffd7" stroke="none" /><path d="M 110.05341064243156 81.56283822128135 l 27.003554310359892 -49.52238768793634 a77.40619494086465,77.40619494086465 0 0,0 1.1643215399244404,0.6479436763837669 l -27.851999939356364 49.05022861399239" fill="#42ffd7" stroke="none" /><path d="M 110.36928655335952 81.73862282372117 l 26.548538405063436 -46.75469915880703 a74.766409447495,74.766409447495 0 0,0 1.1136751036672181,0.6451125027980675 l -27.349410241195983 46.29078249861891" fill="#3effb2" stroke="none" /><line stroke="#e1ed5e" stroke-width="0.3" x1="143.23703022742887" x2="145.7803849466894" y1="26.81831364943548" y2="22.513508569990506" /><path d="M 143.74570117128098 25.957352633546492 a86.0,86.0 0 0,1 28.547481713284135,27.462654790039103" fill="none" id="id110" stroke="none" /><text fill="#e1ed5e" style="font-size:6.75px; font-family:Arial;" text-anchor="middle"><textPath startOffset="19.985693538727396" xlink:href="#id110">February</textPath></text><path d="M 110.99172775467656 82.1063720568725 l 16.625163920924706 -27.064398276054938 a52.762835664382074,52.762835664382074 0 0,0 0.7697867768617314,0.4820404090504416 l -17.0885698501587 26.77421352568155" fill="#f2ff19" stroke="none" /><path d="M 111.90073688211348 82.69761687909136 l 16.165949985986398 -23.503541246372826 a49.52638059883101,49.52638059883101 0 0,0 0.6982485268782036,0.4891677152018907 l -16.568129652448253 23.221788688407" fill="#ffd714" stroke="none" /><path d="M 112.48926042617603 83.11751280151076 l 19.006783579582642 -25.69261665760679 a52.958854371767245,52.958854371767245 0 0,0 0.7281939472570222,0.5484605840302431 l -19.44622368059805 25.361639484070704" fill="#efff19" stroke="none" /><path d="M 112.77801427241765 83.33499621200491 l 17.029286255966387 -22.20948528560674 a48.986743773422944,48.986743773422944 0 0,0 0.6647441525796202,0.5188433550854252 l -17.409062963705438 21.91306354129809" fill="#ffcd13" stroke="none" /><path d="M 113.06298171725822 83.55741782278167 l 21.34758602397744 -26.870544955348795 a55.31829854827505,55.31829854827505 0 0,0 0.7404659866245219,0.5987386652259746 l -21.806955409166452 26.49910019285869" fill="#caff1d" stroke="none" /><path d="M 113.34407831869373 83.78471172551755 l 26.595459495438973 -32.317934008729694 a62.85411956266841,62.85411956266841 0 0,0 0.8295021670411451,0.6946842096917064 l -27.147819199439237 31.855348641644166" fill="#5cff2a" stroke="none" /><path d="M 113.89432698308785 84.25364557470407 l 22.2816297479389 -25.25163252680917 a54.67663833421089,54.67663833421089 0 0,0 0.700353092718601,0.6287839216606934 l -22.71299382825349 24.864349596379178" fill="#d4ff1c" stroke="none" /><path d="M 114.16331599549186 84.49514656593476 l 21.44856222136591 -23.480152085822212 a52.801861004305174,52.801861004305174 0 0,0 0.6657865007095392,0.6187759923754181 l -21.849556605870298 23.107471507372153" fill="#f2ff19" stroke="none" /><path d="M 114.42810811169701 84.74124197986012 l 40.991245482980645 -43.35117888823375 a80.66244142880531,80.66244142880531 0 0,0 1.0006627430159836,0.962636765957324 l -41.731391469609044 42.63915903551412" fill="#47fcff" stroke="none" /><path d="M 114.94478906791727 85.2469230424477 l 24.589262063268865 -24.27383042344824 a55.55214396014283,55.55214396014283 0 0,0 0.665926660127497,0.6862959598674053 l -25.00345298709947 23.846970268030717" fill="#c6ff1e" stroke="none" /><path d="M 115.68641384162765 86.03803664274999 l 31.48017912055083 -28.019476713945444 a63.14371546014062,63.14371546014062 0 0,0 0.7156532401637469,0.8181153666786518 l -31.957824224292423 27.473445791063845" fill="#58ff2a" stroke="none" /><path d="M 116.15771136456269 86.58626213691792 l 43.30901781374541 -35.95409021448723 a77.2882547885685,77.2882547885685 0 0,0 0.8409753697128864,1.030936365220978 l -43.9214916755347 35.203269679658156" fill="#42ffd6" stroke="none" /><path d="M 116.60985879189232 87.15038557335679 l 25.331160932866144 -19.59653330258654 a53.02642396031982,53.02642396031982 0 0,0 0.5522930820951663,0.7267529569698467 l -25.66472995518542 19.15759556973566" fill="#eeff19" stroke="none" /><path d="M 117.04232023915458 87.72973835380427 l 51.126960717463746 -36.81078493858721 a84.0,84.0 0 0,0 0.8347495207844684,1.1806939986728273 l -51.75302285805209 35.92526443958259" fill="#4dd2ff" stroke="none" /><line stroke="#e1ed5e" stroke-width="0.3" x1="172.23445277983987" x2="176.4835382374775" y1="55.19839476539836" y2="52.563006222186495" /><path d="M 173.08426987136738 54.67131705675599 a86.0,86.0 0 0,1 12.851231095245387,41.99856678651699" fill="none" id="id111" stroke="none" /><text fill="#e1ed5e" style="font-size:6.75px; font-family:Arial;" text-anchor="middle"><textPath startOffset="22.20632615414155" xlink:href="#id111">March</textPath></text><path d="M 119.04729006885535 91.15688171328212 l 35.78914564222801 -16.61588851488601 a60.45821456857531,60.45821456857531 0 0,0 0.4301103417656177,0.9476911247942454 l -36.06985830095697 15.997375381249702" fill="#7dff26" stroke="none" /><path d="M 119.34039704204932 91.81776055985345 l 36.986028757100065 -15.647483480963311 a61.159806554664236,61.159806554664236 0 0,0 0.4018441399418599,0.9730974588604798 l -37.249894583928125 15.008511451649529" fill="#73ff27" stroke="none" /><path d="M 119.85752413597 93.16781622104841 l 39.25795276797343 -13.507099186164158 a62.516606122819205,62.516606122819205 0 0,0 0.34134872582127523,1.020589242519713 l -39.484638787566475 12.829336840722132" fill="#60ff29" stroke="none" /><path d="M 119.97218684219823 93.5106431181261 l 37.810420453454924 -12.285350328175044 a60.756228789373786,60.756228789373786 0 0,0 0.31461460513183986,0.9974142744616673 l -38.016290542354966 11.632685887286957" fill="#79ff26" stroke="none" /><path d="M 120.28053869075195 94.5502522615342 l 56.781479272230335 -15.258210985869349 a79.79582800532728,79.79582800532728 0 0,0 0.34503589925381645,1.329564068826341 l -57.035711503354456 14.278550491494158" fill="#46fff7" stroke="none" /><line stroke="#e1ed5e" stroke-width="0.3" x1="184.98032266829074" x2="189.97916517819016" y1="98.17113171792111" y2="98.06355123074" /><path d="M 185.9800911702706 98.14961562048488 a86.0,86.0 0 0,1 -9.607161424134198,41.387399972396054" fill="none" id="id112" stroke="none" /><text fill="#e1ed5e" style="font-size:6.75px; font-family:Arial;" text-anchor="middle"><textPath startOffset="21.466115282336823" xlink:href="#id112">April</textPath></text><path d="M 120.99824983174949 100.27111621757518 l 28.12377591875726 0.3631165364789965 a49.126119987434016,49.126119987434016 0 0,0 -0.01819523246624115,0.8454609559131167 l -28.11335862360601 -0.847167308182228" fill="#ffd013" stroke="none" /><path d="M 120.9764740272857 100.99374915477107 l 39.573695569495 1.87478250501959 a60.618079086046,60.618079086046 0 0,0 -0.05834821811987297,1.0418466306461978 l -39.5355610004876 -2.555700852001211" fill="#7bff26" stroke="none" /><path d="M 120.95626037817324 101.35467743843564 l 27.98408625455266 1.8089778233412084 a49.04249425902738,49.04249425902738 0 0,0 -0.06170816523847458,0.8419588873134425 l -27.94880153064985 -2.290409847151421" fill="#ffce13" stroke="none" /><path d="M 120.92983693683757 101.71520430193887 l 39.5072978901062 3.2376309239095957 a60.63973814970333,60.63973814970333 0 0,0 -0.09420933041840512,1.0395921108302126 l -39.44571396341072 -3.917204423288379" fill="#7bff26" stroke="none" /><path d="M 120.70491114924044 103.5080841355445 l 39.36055764076072 6.668956308503792 a60.92152897919091,60.92152897919091 0 0,0 -0.1840803691364703,1.032420468588424 l -39.239930829285065 -7.345495527825434" fill="#77ff27" stroke="none" /><path d="M 120.32669344350535 105.2749913415812 l 39.962327696756134 10.370645534439994 a62.28604998960209,62.28604998960209 0 0,0 -0.27824638888556186,1.0354583232405303 l -39.7778932315288 -11.056994790856074" fill="#64ff29" stroke="none" /><path d="M 120.23288151984713 105.62410040840565 l 33.15866934225382 9.217060140792391 a55.4158618980828,55.4158618980828 0 0,0 -0.2633767167015104,0.9168489026171113 l -32.99509998866622 -9.786466518914084" fill="#c8ff1d" stroke="none" /><line stroke="#e1ed5e" stroke-width="0.3" x1="174.80103733775053" x2="179.2010983576182" y1="140.37084112569926" y2="142.7455964860345" /><path d="M 175.68104954172406 140.8457921977663 a86.0,86.0 0 0,1 -30.038265399797805,32.042727171017184" fill="none" id="id113" stroke="none" /><text fill="#e1ed5e" style="font-size:6.75px; font-family:Arial;" text-anchor="middle"><textPath startOffset="22.206326154141568" xlink:href="#id113">May</textPath></text><path d="M 118.48025628344425 109.97397251340804 l 36.835496687593796 19.880472751285915 a62.85793847093231,62.85793847093231 0 0,0 -0.5220908248845763,0.9477464986968555 l -36.48782945325771 -20.511589768380574" fill="#5cff2a" stroke="none" /><path d="M 118.12598468904814 110.60418214915192 l 36.14289603445159 21.144553497209877 a62.87363223262996,62.87363223262996 0 0,0 -0.5545428144666398,0.9294456542891808 l -35.77357234428672 -21.763561245385162" fill="#5cff2a" stroke="none" /><path d="M 117.94076556474637 110.91462005526583 l 28.64817344850039 17.428683705792395 a54.533220209993495,54.533220209993495 0 0,0 -0.49478603632273516,0.797752633855972 l -28.343922772509693 -17.91923267101364" fill="#d6ff1c" stroke="none" /><path d="M 117.75023020441432 111.22182372390056 l 26.823450589500407 16.957979176364248 a52.734375041481016,52.734375041481016 0 0,0 -0.4916730555225068,0.7630875007974912 l -26.52757267060085 -17.41718827708319" fill="#f3ff19" stroke="none" /><path d="M 117.55443506779139 111.5257021239791 l 20.97146313301656 13.769217650224801 a46.087718521992684,46.087718521992684 0 0,0 -0.44111849055358676,0.6594122916348625 l -20.73134153705225 -14.128166856065471" fill="#ff9b0e" stroke="none" /><path d="M 117.35343817320211 111.8261652097733 l 27.6935479654405 18.872829131337934 a54.51292703323348,54.51292703323348 0 0,0 -0.5351069203127339,0.7708614288704817 l -27.364580137965632 -19.346731822395437" fill="#d6ff1c" stroke="none" /><path d="M 116.93607887273984 112.41649034213515 l 25.528100055228013 18.71563129639112 a52.65373196405421,52.65373196405421 0 0,0 -0.5421798239849155,0.7263384759883431 l -25.202158964548005 -19.152282651888775" fill="#f4ff19" stroke="none" /><path d="M 116.71984013943494 112.70617746262583 l 25.353076740919743 19.2669720288716 a52.843283615109264,52.843283615109264 0 0,0 -0.5565987662606816,0.7194789356606823 l -25.017671157440994 -19.700528958645535" fill="#f1ff19" stroke="none" /><path d="M 115.32070863581623 114.36230785411682 l 30.345208001764448 28.44693607707466 a62.59398779683815,62.59398779683815 0 0,0 -0.7436566608750553,0.7797210358273454 l -29.85104478951043 -28.96506422948451" fill="#5fff29" stroke="none" /><path d="M 115.07121518719521 114.62390073753431 l 26.047054525383928 25.273976594003297 a57.293566128482745,57.293566128482745 0 0,0 -0.6928684877299436,0.7018721200142664 l -25.60814541259845 -25.718589207998228" fill="#acff21" stroke="none" /><path d="M 114.81725581225074 114.88116024355365 l 23.714322750933107 23.816598795049128 a54.60951474954316,54.60951474954316 0 0,0 -0.6718271779180591,0.657524294470013 l -23.300845620639254 -24.221273192441714" fill="#d5ff1c" stroke="none" /><path d="M 113.75828350139079 115.86535959552629 l 20.722401327781142 23.896029523946417 a52.629703504758695,52.629703504758695 0 0,0 -0.6895356376987185,0.5876372296030384 l -20.308000213505377 -24.249191143772403" fill="#f4ff19" stroke="none" /><path d="M 113.48314897796784 116.09983520530334 l 20.631890022742642 24.635938524663764 a53.13416177375037,53.13416177375037 0 0,0 -0.7062538926567871,0.581198872136323 l -20.204766001541163 -24.987432515657265" fill="#ecff1a" stroke="none" /><path d="M 111.45004920935366 117.60387380957326 l 13.138159753252891 20.19925872435036 a45.09608463454671,45.09608463454671 0 0,0 -0.6543617925989611,0.41764465609331786 l -12.788516158606999 -20.42241780926749" fill="#ff8a0c" stroke="none" /><line stroke="#e1ed5e" stroke-width="0.3" x1="143.8653032363475" x2="146.44561519142675" y1="172.8068346515853" y2="177.08958963109032" /><path d="M 144.38136562736335 173.6633856474863 a86.0,86.0 0 0,1 -40.68145358897372,12.25698825130547" fill="none" id="id114" stroke="none" /><text fill="#e1ed5e" style="font-size:6.75px; font-family:Arial;" text-anchor="middle"><textPath startOffset="21.466115282336833" xlink:href="#id114">June</textPath></text><path d="M 110.8373102113329 117.98757091392108 l 8.659989399296144 14.373693323897696 a37.780896166932884,37.780896166932884 0 0,0 -0.5599347023090552,0.33081929177129643 l -8.411286825958706 -14.520631187962742" fill="#ff0100" stroke="none" /><path d="M 110.5260780823613 118.17145234162733 l 20.978378094617373 36.215539612020706 a62.85280942625671,62.85280942625671 0 0,0 -0.9408503878862228,0.5342394049285885 l -20.35187893980995 -36.57128218274392" fill="#5cff2a" stroke="none" /><path d="M 110.21172684928248 118.3499491758327 l 20.392692953813754 36.64462287170723 a62.93674178233418,62.93674178233418 0 0,0 -0.9511755303345787,0.518656738724494 l -19.758894611610526 -36.99022026219149" fill="#5bff2a" stroke="none" /><path d="M 109.89434966115114 118.52300852407294 l 12.756525623452188 23.881229282659994 a48.07474945466291,48.07474945466291 0 0,0 -0.7332752194803773,0.38361493810500114 l -12.343559501445315 -24.097273639709712" fill="#ffbe11" stroke="none" /><path d="M 109.57404056367764 118.69057910512821 l 14.621102372567345 28.543525451042694 a53.0703832182189,53.0703832182189 0 0,0 -0.8166422359402783,0.4094813703151785 l -14.127606228944305 -28.790974662267175" fill="#edff1a" stroke="none" /><path d="M 108.92500713936063 119.00905698771935 l 9.477590134139875 20.185983960906714 a43.30019424177127,43.30019424177127 0 0,0 -0.677404742757579,0.31096329279548424 l -9.128717395614876 -20.34613432403627" fill="#ff6909" stroke="none" /><path d="M 107.59598834532513 119.57807347666477 l 15.205464193793873 39.19090995131717 a63.03728778312176,63.03728778312176 0 0,0 -1.0149897239037138,0.383782264362096 l -14.528604249129884 -39.44684046578589" fill="#59ff2a" stroke="none" /><path d="M 107.2578585660854 119.70592522655815 l 11.12925704396442 30.217219740312 a53.20156411084612,53.20156411084612 0 0,0 -0.8620691243249547,0.30910731703259725 l -10.607468359009731 -30.40431459838456" fill="#ebff1a" stroke="none" /><path d="M 106.2309692047433 120.05430185196036 l 12.284168298683916 39.53645267168968 a62.400868114704416,62.400868114704416 0 0,0 -1.0285000986263293,0.3098786428011547 l -11.601793225617342 -39.742046683596556" fill="#62ff29" stroke="none" /><path d="M 101.62511606390274 120.93702456842531 l 2.3884691189052147 30.771609323305984 a51.864165711681494,51.864165711681494 0 0,0 -0.8906737874649941,0.061426079120535146 l -1.85843257066129 -30.808163746942807" fill="#fffd17" stroke="none" /><line stroke="#e1ed5e" stroke-width="0.3" x1="102.19456741930631" x2="102.32365962044197" y1="184.97166512339345" y2="189.96999836594603" /><path d="M 102.22038585953345 185.97133177190398 a86.0,86.0 0 0,1 -42.740103519485714,-10.115201625700543" fill="none" id="id115" stroke="none" /><text fill="#e1ed5e" style="font-size:6.75px; font-family:Arial;" text-anchor="middle"><textPath startOffset="22.20632615414155" xlink:href="#id115">July</textPath></text><path d="M 100.54218724476979 120.99299961872073 l 0.9910405659437905 38.372194151908275 a59.384989845447265,59.384989845447265 0 0,0 -1.0221013878790106,0.017596402313817545 l -0.3303794881721119 -38.38356803150125" fill="#8dff24" stroke="none" /><path d="M 99.81925306533755 120.99922214144158 l -0.20815979722339392 24.184055076645443 a45.18495090860017,45.18495090860017 0 0,0 -0.777698222313763,-0.013388780174705711 l 0.6244177094298248 -24.17688881919158" fill="#ff8b0c" stroke="none" /><path d="M 99.45781275523022 120.99299961872073 l -0.8657934339972375 33.52273850985285 a54.53391709106355,54.53391709106355 0 0,0 -0.9381902089744577,-0.032313167760894906 l 1.4427039946463385 -33.50286854366586" fill="#d6ff1c" stroke="none" /><path d="M 99.09653310690486 120.98055641714683 l -1.3207397417323463 30.67058115306668 a51.69900489807838,51.69900489807838 0 0,0 -0.8887598866359891,-0.045938734361905396 l 1.8484876967818242 -30.643302611942573" fill="#fffb17" stroke="none" /><path d="M 96.93821686468263 120.77559828337769 l -4.926787535460841 33.430505734912956 a54.79159583552722,54.79159583552722 0 0,0 -0.9318853813384403,-0.14554133137423708 l 5.501508780407799 -33.340746096191616" fill="#d2ff1c" stroke="none" /><path d="M 96.58105272829116 120.7198165907248 l -5.0209588566797185 30.428473548228045 a51.83994212568636,51.83994212568636 0 0,0 -0.8791832717567907,-0.1528572812291082 l 5.543991099908559 -30.337537688477934" fill="#fffd17" stroke="none" /><path d="M 92.06813273071674 119.44442032107085 l -6.418812181283679 15.735271125656089 a37.994113899127015,37.994113899127015 0 0,0 -0.6034343503077627,-0.25223560736862055 l 6.688717991088904 -15.622450475267495" fill="#ff0500" stroke="none" /><path d="M 91.7346041902142 119.30500536409082 l -10.99177651888607 25.67285457845271 a48.92695137761219,48.92695137761219 0 0,0 -0.7713667644358686,-0.33814452114906485 l 11.43206395797968 -25.47984550400919" fill="#ffcc13" stroke="none" /><line stroke="#e1ed5e" stroke-width="0.3" x1="58.666819895761336" x2="56.23545636021788" y1="174.27360380694188" y2="178.64263932499728" /><path d="M 58.180547188652646 175.14741091055294 a86.0,86.0 0 0,1 -31.652253787137756,-30.449443065178592" fill="none" id="id116" stroke="none" /><text fill="#e1ed5e" style="font-size:6.75px; font-family:Arial;" text-anchor="middle"><textPath startOffset="22.20632615414155" xlink:href="#id116">August</textPath></text><path d="M 89.4739219176387 118.17145234162733 l -8.397929367145384 14.497571846740659 a37.75424743481396,37.75424743481396 0 0,0 -0.5595397527075425,-0.33058594858517315 l 8.646236990881308 -14.350867325861735" fill="#ff0000" stroke="none" /><path d="M 89.1626897886671 117.98757091392108 l -11.531063592451819 19.13905019210944 a43.34432075112717,43.34432075112717 0 0,0 -0.6357596360072774,-0.3905354944573008 l 11.858802428391405 -18.937726230823763" fill="#ff6a09" stroke="none" /><path d="M 87.36589467227662 116.77436683061367 l -10.086550436827919 13.391965057594353 a37.76553690814886,37.76553690814886 0 0,0 -0.5158975043793723,-0.39556820735996645 l 10.315576669700778 -13.21635750840702" fill="#ff0000" stroke="none" /><path d="M 87.07902340077011 116.55440617244103 l -15.489341354445882 19.845005225097925 a46.17427115089355,46.17427115089355 0 0,0 -0.6223467370713082,-0.49442988701748786 l 15.828645584234549 -19.575441424075308" fill="#ff9d0e" stroke="none" /><path d="M 86.79598089348748 116.32954008644616 l -16.064838305892764 19.867543282254406 a46.549917922896185,46.549917922896185 0 0,0 -0.6187367907653952,-0.50917825541366 l 16.404445225202846 -19.588069907983567" fill="#ffa30f" stroke="none" /><line stroke="#e1ed5e" stroke-width="0.3" x1="26.63291911575756" x2="22.317208475507996" y1="142.92168965132927" y2="145.44649492493687" /><path d="M 25.769776987707644 143.4266507060508 a86.0,86.0 0 0,1 -11.730757126820373,-40.83630448921669" fill="none" id="id117" stroke="none" /><text fill="#e1ed5e" style="font-size:6.75px; font-family:Arial;" text-anchor="middle"><textPath startOffset="21.46611528233685" xlink:href="#id117">September</textPath></text><line stroke="#e1ed5e" stroke-width="0.3" x1="15.007084014347285" x2="10.007500721073583" y1="101.09737516637583" y2="101.16192664675087" /><path d="M 14.007167355692545 101.11028546245083 a86.0,86.0 0 0,1 10.666146001902534,-42.60595125391555" fill="none" id="id118" stroke="none" /><text fill="#e1ed5e" style="font-size:6.75px; font-family:Arial;" text-anchor="middle"><textPath startOffset="22.20632615414155" xlink:href="#id118">October</textPath></text><line stroke="#e1ed5e" stroke-width="0.3" x1="26.266209847984243" x2="21.928928074336255" y1="57.711370442889674" y2="55.22380399835377" /><path d="M 25.398753493254645 57.213857153982495 a86.0,86.0 0 0,1 29.58750427330803,-30.492523968695096" fill="none" id="id119" stroke="none" /><text fill="#e1ed5e" style="font-size:6.75px; font-family:Arial;" text-anchor="middle"><textPath startOffset="21.46611528233685" xlink:href="#id119">November</textPath></text><line stroke="#e1ed5e" stroke-width="0.3" x1="56.762969772571076" x2="54.21961505331055" y1="26.818313649435495" y2="22.513508569990535" /><path d="M 56.25429882871897 25.957352633546506 a86.0,86.0 0 0,1 42.265352541879196,-11.944610805530505" fill="none" id="id120" stroke="none" /><text fill="#e1ed5e" style="font-size:6.75px; font-family:Arial;" text-anchor="middle"><textPath startOffset="22.20632615414155" xlink:href="#id120">December</textPath></text></svg>